<mxfile host="app.diagrams.net" agent="Mozilla/5.0 (Windows NT 10.0; Win64; x64) AppleWebKit/537.36 (KHTML, like Gecko) Chrome/135.0.0.0 Safari/537.36" version="26.2.13">
  <diagram name="Page-1" id="vj9Woe-WYsp_K27Tb6D0">
    <mxGraphModel dx="1126" dy="644" grid="1" gridSize="10" guides="1" tooltips="1" connect="1" arrows="1" fold="1" page="1" pageScale="1" pageWidth="827" pageHeight="1169" math="0" shadow="0">
      <root>
        <mxCell id="0" />
        <mxCell id="1" parent="0" />
        <mxCell id="SSA5BnTpUQUNPvU0TnQh-2" value="" style="rounded=0;whiteSpace=wrap;html=1;" vertex="1" parent="1">
          <mxGeometry x="80" y="40" width="560" height="590" as="geometry" />
        </mxCell>
        <mxCell id="lAROizHbzUq1qXPvCfQx-10" value="" style="edgeStyle=orthogonalEdgeStyle;rounded=0;orthogonalLoop=1;jettySize=auto;html=1;" parent="1" source="lAROizHbzUq1qXPvCfQx-2" target="lAROizHbzUq1qXPvCfQx-8" edge="1">
          <mxGeometry relative="1" as="geometry" />
        </mxCell>
        <mxCell id="lAROizHbzUq1qXPvCfQx-2" value="" style="shape=image;verticalLabelPosition=bottom;labelBackgroundColor=default;verticalAlign=top;aspect=fixed;imageAspect=0;image=data:image/png,iVBORw0KGgoAAAANSUhEUgAAARUAAAEGCAYAAABLrAHXAAAAAXNSR0IArs4c6QAAAARnQU1BAACxjwv8YQUAAAAJcEhZcwAADsMAAA7DAcdvqGQAAAxESURBVHhe7d1/bJT1HcDxT39QfnWpo44YJ4R2wP6asklmdOGfmQwDxkVlRpgYZqImC4uJWba4LBK3xD+WGO0qLjg2zdxwEwVHBQeL1IpThgizIq0tLZVfJddf0Pba3t1z1z3P8W30D4Hn+d6Hu3vueb/wo3ff5CTi3ZsvTb7flk26BACUlJt/AoAKogJAFVEBoIqoAFBFVACoIioAVBEVAKqICgBVRAWAKqICQBVRAaCKqABQRVQAqCIqAFQRFQCqiAoAVUQFgCqiAkBV3q+T7O7uNo8QBfX19eYRoiLvUVm/fr3s37/fPEMpu/nmm6WxsdE8Q1QULCp1X5lhVlCKjo9MEJWIKlhUnvpundx4dbVZRSk52D8qPz9wnKhEFF+oBaCKqABQRVQAqCIqAFQRFQCqiAoAVUQFgCqiAkAVUQGgiqgAUEVUAKgiKgBUhepA4R8OtMkrR7iPpdjFnbScGE1IdXW1LFiwwKwGU1NTI7t37zbPECah26k4mQxT5JPOTIr3e5U3juNYDcIrdDuVLa3HZN1Pl8ntq5aYVRSbMScjp+IXdirz5s0zq/6MnJ+Qn9z5R6mtrWWnElKh/ZpKeXkZU4KD8OMLtQBUERUAqogKAFVEBYAqogJAFVEBoIqoAFBFVACoIioAVBEVAKqICgBVoT1QeMc93zar/jS3dEjTziPmGa4k75Syd6iwsrJSZs2aZVb9SSYdeb/lmEyfPl1uvfVWsxpcQ0ODzJkzxzxDPkUqKk83NJtnuJIyMimp9KSUl5dLVVWVWfUnnc5IT1d/NkiLFi0yq8Ht2bOHqBRI5KKy/LqvyqoFtWYVV0Iho/LLD3pkMOEQlQKKZFQeu/46s4oroZBRueutNqJSYHyhFoAqogJAFVEBoIqoAFBFVACoIioAVBEVAKqICgBVRAWAKqICQBVRAaCKsz8+dA+NyWttveYZLmfS/ZFx31VlZWVSUVFhVv3JuC88NziWPTfkfT/loP5+vE/GnYzcf//9MnPmTLMazPLly+Wmm24yzxAUUfHBi8qDTR+ZZ7gc7w3lva28qHgTVCLhZF/n3akSVPfwhDjuz+0dRvQOJdrYuHEjUckBUfFhKip1C78mt69aYlZxMWGNyrt7P5XDB04QlRwRFR++GJWnNq82q7iYsEblt794nago4Au1AFQRFQCqiAoAVUQFgCqiAkAVUQGgiqgAUEVUAKgiKgBUERUAqogKAFWc/fEh17M/O944Yh5FQ/YN5f7N5tyPJ+Wks6+1OWUcG09Jxn1LX3PNNYGvXdj+8kHp6RqQdevWycKFC81qcGvWrDGPoomo+JBrVH646k/mEfzw7lSxPYyYzGTEe0d7hxGDvr739DkZiydl/vz5Mnv2bLMazCOPPCJr1641z6KJqPigERXv7b2q7uoLC7iksEZl6/F+ouIiKj5oRaV5xbcuLOCSwhiVTe1n5eXuPqLi4gu1AFQRFQCqiAoAVUQFgCqiAkAVUQGgiqgAUEVUAKgiKgBUERUAqogKAFWc/fGhkGd//nd22DyKDu/qAtuzP445+zNt2rTAr+/vG5WJ8VT22oSZM2eaVX+29QzI7tNDcu+998qKFSvManBLly41j8KLqPhQyKg89EardA2OmWe4nEnvh/uOLi8PvglPpdLZw4xVVVWBX98/kZLBhCNz586V2tpasxrMypUr5YknnjDPwouo+FAMUbn+O/PMCi4lrFFpPXSSqNgiKsFMReWZP/9Y5tfb/Q4YJWGMSsuedml4ck/JRCX4rzwAXAJRAaCKqABQRVQAqCIqAFQRFQCqiAoAVUQFgCqiAkAVUQGgiqgAUEVUStjoaIIJMvHPZ2R0ItB4r497/44R9/nweKAZH0tIOp2WRCIhw8PD1lMsOFDoQ1gPFD7T2OL+dx8zz3A53kfB9jCi474wnZmUysrK7AQxMjwhsbPDUlNTI9dee61ZDWbx4sWyZcsW86yw2KlEQE1VBVPCU2zYqfgQ9p3Kr26YJz/4+lVmFRcTxp1Kt/tHrwfe6WSnAqB0ERUAqogKAFVEBYAqogJAFVEBoIqoAFBFVACoIioAVBEVAKqICgBVRAWAKg4U+hDFA4WvfHJGtrWdNc+iYeqDUFbm/d8KZup7OHuvDfp6x8lIMuFkDyLOmDHDrPozls7Ix4NxmTVrlixZssSsBrdr1y7zKHfsVHBRfWPJSE2/mb54wmJsX5eQgfGkDCZSMjCRlFh8PNAMupNKpbIXPMViMevRxE7Fh6juVDZ9eELuXH2jrLz7BrOKi/E+RN5HyWankslMumFIS0VFhUybNs2s+pN0dyo9o4nsDqeurs6s+vfQPS9kf/6DBw+aldyxU8FlzXHjz5TmXAlEBYAqogJAFVEBoIqoAFBFVACoIioAVBEVAKqICgBVRAWAKqICQBVRAaCqYFF5tadfHjvYE2iaTg7I6XjSagYmHEl5B7csxvs+udkDY5YDREnBovJ+bCTw9IwkJO6krSaRzkjGjYPteCdQbQeIkrxfffDee++ZR8Ft3bpV3nzzTaurD/a99Yk0/u4Ny6sP4vLQPw/bX31w9+ZQX32w9uHvmVVcTHZX6n6Uwnb1warvN4b/6oNbbrnFerxftOrqaqvxftHLy8utB4A/fFoAqCIqAFQRFQCqiAoAVUQFgCqiAkAVUQGgiqgAUEVUAKgiKgBUERUAqkIZlZHhCfnb5vcDTfPudhnsj1vN+aFxSTsZ65k6rWwz3J2AsAllVF776weB5z/NHTI0GLea8+fGxElnrCfbBssBwibvVx/k4sUXXzSPgmttbZXt27dbXX1w/Nyo/Ozfh6yvPrjzR/ZXHzzsXX0wxNUHxc77EHkfJa4+CFlUcrFr1y55/PHHraLSNTgs67a1WEfljrs25RSVY+5uiagUN6LyOb5QC0AVUQGgiqgAUEVUAKgiKgBUERUAqogKAFVEBYAqogJAFVEBoIqoAFAVyajs7T0faPb3jcpIKm09X/YN3/1O9kyJ5QCFELmo7D41JL85fCLQPHv0jPSOJa0n5R0Ys5xsWGzH/DcD+RSpqNx2221Ws2zZMqmpqbEe7/Sp7UyderUZoBAic/VBLjo7O2X16tXWVx/cvmyD9dUHD77+oXTlcvXB251cfZAH2T9yuh8lm6Bz9QEAXAJRAaCKqABQRVQAqCIqAFQRFQCqiAoAVUQFgCqiAkAVUQGgiqgAUEVUAjr12VDgSSbT1uOdy/BOZ9kMx5RRCBwo9GHqQKGttrY26wOFv/7vMTkxOmF1oPDZ5/bJ2+/YfS/lrUd75flDHCj0K9tw96PEgUJ2Kr7V19dbz/Tp060nl+sPPF+27ncAG+xU8mDp0qXWO5UHtr8jnQPn7a4++H2z7H27I4erDz5jp+ITO5XPsVMBoIqoAFBFVACoIioAVBEVAKqICgBVRAWAKqICQBVRAaCKqABQRVQAqCIqAFRxoDAPpg4UVpYHP/l7rLtbxsftrj74y/P75MC7XVYHCl892iubD3GgMCgOFLJTyRuv3CnvzRNw3L8unIC1GKAQ2KnkQTqdNo+Cu++++6Sjo8Nqp/L0k9tl778+stqp/OPjU7Lpg252KnnATgWBeW8W25naTtsMUAhEBYAqogJAFVEBoIqoAFBFVACoIioAVBEVAKqICgBVRAWAKqICQBVRAaCKA4VFbs2aNdkDhd/45lyz4t+R1k7pPROzOlDY1B2TLe29HCjMk4z7MfTOenGgEHnT9Wks8AwNxCUx4ViNk8pk3+hMfqaUsFMpcu3t7eZRcI2NjdLS0mK1U3nlkx55/lAHO5U8C3q6vBh3KkSlhG3YsEF27txpFZWXW7vkuQNHiUqR448/AEoeUQGgiqgAUEVUAKgiKgBUERUAqogKAFVEBYAqogJAFVEBoIqoAFDF2Z8SNnX2Z8W8OWbFv9YTZ+RA90nO/oTA+aTDgULkx1RUbAwMDEgsFiMqIUFUkBc7duwwj4Jrbm6WpqYmohIiV10V7CS6h6ggb1566SVpaGggKiWOqw8AFD2iAkAVUQGgiqgAUEVUAKgiKgBUERUAqogKAFVEBYAqogJAFVEBoIqzP/hSXzz7M+fq2WYVpeaFjfs4UIj8mIoKooGo4IrzotLX12eeodQ9+uij5lHuiAoAVXyhFoAqogJAFVEBoIqoAFBFVACoIioAVBEVAKqICgBVRAWAKqICQBVRAaBI5P9ExuLE0ipfvQAAAABJRU5ErkJggg==;" parent="1" vertex="1">
          <mxGeometry x="304.85" y="150" width="95.15" height="90" as="geometry" />
        </mxCell>
        <mxCell id="lAROizHbzUq1qXPvCfQx-11" value="" style="edgeStyle=orthogonalEdgeStyle;rounded=0;orthogonalLoop=1;jettySize=auto;html=1;" parent="1" source="lAROizHbzUq1qXPvCfQx-3" target="lAROizHbzUq1qXPvCfQx-9" edge="1">
          <mxGeometry relative="1" as="geometry" />
        </mxCell>
        <mxCell id="lAROizHbzUq1qXPvCfQx-3" value="" style="shape=image;verticalLabelPosition=bottom;labelBackgroundColor=default;verticalAlign=top;aspect=fixed;imageAspect=0;image=data:image/png,iVBORw0KGgoAAAANSUhEUgAAARUAAAEGCAYAAABLrAHXAAAAAXNSR0IArs4c6QAAAARnQU1BAACxjwv8YQUAAAAJcEhZcwAADsMAAA7DAcdvqGQAAAxESURBVHhe7d1/bJT1HcDxT39QfnWpo44YJ4R2wP6asklmdOGfmQwDxkVlRpgYZqImC4uJWba4LBK3xD+WGO0qLjg2zdxwEwVHBQeL1IpThgizIq0tLZVfJddf0Pba3t1z1z3P8W30D4Hn+d6Hu3vueb/wo3ff5CTi3ZsvTb7flk26BACUlJt/AoAKogJAFVEBoIqoAFBFVACoIioAVBEVAKqICgBVRAWAKqICQBVRAaCKqABQRVQAqCIqAFQRFQCqiAoAVUQFgCqiAkBV3q+T7O7uNo8QBfX19eYRoiLvUVm/fr3s37/fPEMpu/nmm6WxsdE8Q1QULCp1X5lhVlCKjo9MEJWIKlhUnvpundx4dbVZRSk52D8qPz9wnKhEFF+oBaCKqABQRVQAqCIqAFQRFQCqiAoAVUQFgCqiAkAVUQGgiqgAUEVUAKgiKgBUhepA4R8OtMkrR7iPpdjFnbScGE1IdXW1LFiwwKwGU1NTI7t37zbPECah26k4mQxT5JPOTIr3e5U3juNYDcIrdDuVLa3HZN1Pl8ntq5aYVRSbMScjp+IXdirz5s0zq/6MnJ+Qn9z5R6mtrWWnElKh/ZpKeXkZU4KD8OMLtQBUERUAqogKAFVEBYAqogJAFVEBoIqoAFBFVACoIioAVBEVAKqICgBVoT1QeMc93zar/jS3dEjTziPmGa4k75Syd6iwsrJSZs2aZVb9SSYdeb/lmEyfPl1uvfVWsxpcQ0ODzJkzxzxDPkUqKk83NJtnuJIyMimp9KSUl5dLVVWVWfUnnc5IT1d/NkiLFi0yq8Ht2bOHqBRI5KKy/LqvyqoFtWYVV0Iho/LLD3pkMOEQlQKKZFQeu/46s4oroZBRueutNqJSYHyhFoAqogJAFVEBoIqoAFBFVACoIioAVBEVAKqICgBVRAWAKqICQBVRAaCKsz8+dA+NyWttveYZLmfS/ZFx31VlZWVSUVFhVv3JuC88NziWPTfkfT/loP5+vE/GnYzcf//9MnPmTLMazPLly+Wmm24yzxAUUfHBi8qDTR+ZZ7gc7w3lva28qHgTVCLhZF/n3akSVPfwhDjuz+0dRvQOJdrYuHEjUckBUfFhKip1C78mt69aYlZxMWGNyrt7P5XDB04QlRwRFR++GJWnNq82q7iYsEblt794nago4Au1AFQRFQCqiAoAVUQFgCqiAkAVUQGgiqgAUEVUAKgiKgBUERUAqogKAFWc/fEh17M/O944Yh5FQ/YN5f7N5tyPJ+Wks6+1OWUcG09Jxn1LX3PNNYGvXdj+8kHp6RqQdevWycKFC81qcGvWrDGPoomo+JBrVH646k/mEfzw7lSxPYyYzGTEe0d7hxGDvr739DkZiydl/vz5Mnv2bLMazCOPPCJr1641z6KJqPigERXv7b2q7uoLC7iksEZl6/F+ouIiKj5oRaV5xbcuLOCSwhiVTe1n5eXuPqLi4gu1AFQRFQCqiAoAVUQFgCqiAkAVUQGgiqgAUEVUAKgiKgBUERUAqogKAFWc/fGhkGd//nd22DyKDu/qAtuzP445+zNt2rTAr+/vG5WJ8VT22oSZM2eaVX+29QzI7tNDcu+998qKFSvManBLly41j8KLqPhQyKg89EardA2OmWe4nEnvh/uOLi8PvglPpdLZw4xVVVWBX98/kZLBhCNz586V2tpasxrMypUr5YknnjDPwouo+FAMUbn+O/PMCi4lrFFpPXSSqNgiKsFMReWZP/9Y5tfb/Q4YJWGMSsuedml4ck/JRCX4rzwAXAJRAaCKqABQRVQAqCIqAFQRFQCqiAoAVUQFgCqiAkAVUQGgiqgAUEVUStjoaIIJMvHPZ2R0ItB4r497/44R9/nweKAZH0tIOp2WRCIhw8PD1lMsOFDoQ1gPFD7T2OL+dx8zz3A53kfB9jCi474wnZmUysrK7AQxMjwhsbPDUlNTI9dee61ZDWbx4sWyZcsW86yw2KlEQE1VBVPCU2zYqfgQ9p3Kr26YJz/4+lVmFRcTxp1Kt/tHrwfe6WSnAqB0ERUAqogKAFVEBYAqogJAFVEBoIqoAFBFVACoIioAVBEVAKqICgBVRAWAKg4U+hDFA4WvfHJGtrWdNc+iYeqDUFbm/d8KZup7OHuvDfp6x8lIMuFkDyLOmDHDrPozls7Ix4NxmTVrlixZssSsBrdr1y7zKHfsVHBRfWPJSE2/mb54wmJsX5eQgfGkDCZSMjCRlFh8PNAMupNKpbIXPMViMevRxE7Fh6juVDZ9eELuXH2jrLz7BrOKi/E+RN5HyWankslMumFIS0VFhUybNs2s+pN0dyo9o4nsDqeurs6s+vfQPS9kf/6DBw+aldyxU8FlzXHjz5TmXAlEBYAqogJAFVEBoIqoAFBFVACoIioAVBEVAKqICgBVRAWAKqICQBVRAaCqYFF5tadfHjvYE2iaTg7I6XjSagYmHEl5B7csxvs+udkDY5YDREnBovJ+bCTw9IwkJO6krSaRzkjGjYPteCdQbQeIkrxfffDee++ZR8Ft3bpV3nzzTaurD/a99Yk0/u4Ny6sP4vLQPw/bX31w9+ZQX32w9uHvmVVcTHZX6n6Uwnb1warvN4b/6oNbbrnFerxftOrqaqvxftHLy8utB4A/fFoAqCIqAFQRFQCqiAoAVUQFgCqiAkAVUQGgiqgAUEVUAKgiKgBUERUAqkIZlZHhCfnb5vcDTfPudhnsj1vN+aFxSTsZ65k6rWwz3J2AsAllVF776weB5z/NHTI0GLea8+fGxElnrCfbBssBwibvVx/k4sUXXzSPgmttbZXt27dbXX1w/Nyo/Ozfh6yvPrjzR/ZXHzzsXX0wxNUHxc77EHkfJa4+CFlUcrFr1y55/PHHraLSNTgs67a1WEfljrs25RSVY+5uiagUN6LyOb5QC0AVUQGgiqgAUEVUAKgiKgBUERUAqogKAFVEBYAqogJAFVEBoIqoAFAVyajs7T0faPb3jcpIKm09X/YN3/1O9kyJ5QCFELmo7D41JL85fCLQPHv0jPSOJa0n5R0Ys5xsWGzH/DcD+RSpqNx2221Ws2zZMqmpqbEe7/Sp7UyderUZoBAic/VBLjo7O2X16tXWVx/cvmyD9dUHD77+oXTlcvXB251cfZAH2T9yuh8lm6Bz9QEAXAJRAaCKqABQRVQAqCIqAFQRFQCqiAoAVUQFgCqiAkAVUQGgiqgAUEVUAjr12VDgSSbT1uOdy/BOZ9kMx5RRCBwo9GHqQKGttrY26wOFv/7vMTkxOmF1oPDZ5/bJ2+/YfS/lrUd75flDHCj0K9tw96PEgUJ2Kr7V19dbz/Tp060nl+sPPF+27ncAG+xU8mDp0qXWO5UHtr8jnQPn7a4++H2z7H27I4erDz5jp+ITO5XPsVMBoIqoAFBFVACoIioAVBEVAKqICgBVRAWAKqICQBVRAaCKqABQRVQAqCIqAFRxoDAPpg4UVpYHP/l7rLtbxsftrj74y/P75MC7XVYHCl892iubD3GgMCgOFLJTyRuv3CnvzRNw3L8unIC1GKAQ2KnkQTqdNo+Cu++++6Sjo8Nqp/L0k9tl778+stqp/OPjU7Lpg252KnnATgWBeW8W25naTtsMUAhEBYAqogJAFVEBoIqoAFBFVACoIioAVBEVAKqICgBVRAWAKqICQBVRAaCKA4VFbs2aNdkDhd/45lyz4t+R1k7pPROzOlDY1B2TLe29HCjMk4z7MfTOenGgEHnT9Wks8AwNxCUx4ViNk8pk3+hMfqaUsFMpcu3t7eZRcI2NjdLS0mK1U3nlkx55/lAHO5U8C3q6vBh3KkSlhG3YsEF27txpFZWXW7vkuQNHiUqR448/AEoeUQGgiqgAUEVUAKgiKgBUERUAqogKAFVEBYAqogJAFVEBoIqoAFDF2Z8SNnX2Z8W8OWbFv9YTZ+RA90nO/oTA+aTDgULkx1RUbAwMDEgsFiMqIUFUkBc7duwwj4Jrbm6WpqYmohIiV10V7CS6h6ggb1566SVpaGggKiWOqw8AFD2iAkAVUQGgiqgAUEVUAKgiKgBUERUAqogKAFVEBYAqogJAFVEBoIqzP/hSXzz7M+fq2WYVpeaFjfs4UIj8mIoKooGo4IrzotLX12eeodQ9+uij5lHuiAoAVXyhFoAqogJAFVEBoIqoAFBFVACoIioAVBEVAKqICgBVRAWAKqICQBVRAaBI5P9ExuLE0ipfvQAAAABJRU5ErkJggg==;" parent="1" vertex="1">
          <mxGeometry x="510" y="150" width="95.15" height="90" as="geometry" />
        </mxCell>
        <mxCell id="lAROizHbzUq1qXPvCfQx-6" style="edgeStyle=orthogonalEdgeStyle;rounded=0;orthogonalLoop=1;jettySize=auto;html=1;" parent="1" source="lAROizHbzUq1qXPvCfQx-5" target="lAROizHbzUq1qXPvCfQx-2" edge="1">
          <mxGeometry relative="1" as="geometry" />
        </mxCell>
        <mxCell id="lAROizHbzUq1qXPvCfQx-5" value="Input" style="rounded=1;whiteSpace=wrap;html=1;fillColor=#d5e8d4;strokeColor=#82b366;" parent="1" vertex="1">
          <mxGeometry x="400" y="70" width="80" height="40" as="geometry" />
        </mxCell>
        <mxCell id="lAROizHbzUq1qXPvCfQx-7" value="" style="endArrow=classic;html=1;rounded=0;entryX=0.25;entryY=0;entryDx=0;entryDy=0;" parent="1" target="lAROizHbzUq1qXPvCfQx-3" edge="1">
          <mxGeometry width="50" height="50" relative="1" as="geometry">
            <mxPoint x="440" y="110" as="sourcePoint" />
            <mxPoint x="400" y="190" as="targetPoint" />
            <Array as="points">
              <mxPoint x="440" y="130" />
              <mxPoint x="534" y="130" />
            </Array>
          </mxGeometry>
        </mxCell>
        <mxCell id="lAROizHbzUq1qXPvCfQx-15" value="" style="edgeStyle=orthogonalEdgeStyle;rounded=0;orthogonalLoop=1;jettySize=auto;html=1;" parent="1" source="lAROizHbzUq1qXPvCfQx-8" target="lAROizHbzUq1qXPvCfQx-13" edge="1">
          <mxGeometry relative="1" as="geometry" />
        </mxCell>
        <mxCell id="lAROizHbzUq1qXPvCfQx-8" value="Repeat Vector" style="rounded=1;whiteSpace=wrap;html=1;fillColor=#b1ddf0;strokeColor=#10739e;" parent="1" vertex="1">
          <mxGeometry x="304.85" y="270" width="95.15" height="40" as="geometry" />
        </mxCell>
        <mxCell id="lAROizHbzUq1qXPvCfQx-16" value="" style="edgeStyle=orthogonalEdgeStyle;rounded=0;orthogonalLoop=1;jettySize=auto;html=1;" parent="1" source="lAROizHbzUq1qXPvCfQx-9" target="lAROizHbzUq1qXPvCfQx-14" edge="1">
          <mxGeometry relative="1" as="geometry" />
        </mxCell>
        <mxCell id="lAROizHbzUq1qXPvCfQx-9" value="Repeat Vector" style="rounded=1;whiteSpace=wrap;html=1;fillColor=#b1ddf0;strokeColor=#10739e;" parent="1" vertex="1">
          <mxGeometry x="510" y="270" width="95.15" height="40" as="geometry" />
        </mxCell>
        <mxCell id="lAROizHbzUq1qXPvCfQx-20" value="" style="edgeStyle=orthogonalEdgeStyle;rounded=0;orthogonalLoop=1;jettySize=auto;html=1;" parent="1" source="lAROizHbzUq1qXPvCfQx-13" target="lAROizHbzUq1qXPvCfQx-18" edge="1">
          <mxGeometry relative="1" as="geometry" />
        </mxCell>
        <mxCell id="lAROizHbzUq1qXPvCfQx-13" value="BIGRU" style="rounded=1;whiteSpace=wrap;html=1;fillColor=#d0cee2;strokeColor=#56517e;" parent="1" vertex="1">
          <mxGeometry x="304.85" y="347.5" width="95.15" height="40" as="geometry" />
        </mxCell>
        <mxCell id="lAROizHbzUq1qXPvCfQx-21" value="" style="edgeStyle=orthogonalEdgeStyle;rounded=0;orthogonalLoop=1;jettySize=auto;html=1;" parent="1" source="lAROizHbzUq1qXPvCfQx-14" target="lAROizHbzUq1qXPvCfQx-19" edge="1">
          <mxGeometry relative="1" as="geometry" />
        </mxCell>
        <mxCell id="lAROizHbzUq1qXPvCfQx-14" value="BIGRU" style="rounded=1;whiteSpace=wrap;html=1;fillColor=#d0cee2;strokeColor=#56517e;" parent="1" vertex="1">
          <mxGeometry x="510" y="347.5" width="95.15" height="40" as="geometry" />
        </mxCell>
        <mxCell id="lAROizHbzUq1qXPvCfQx-25" value="" style="edgeStyle=orthogonalEdgeStyle;rounded=0;orthogonalLoop=1;jettySize=auto;html=1;" parent="1" source="lAROizHbzUq1qXPvCfQx-18" target="lAROizHbzUq1qXPvCfQx-23" edge="1">
          <mxGeometry relative="1" as="geometry" />
        </mxCell>
        <mxCell id="lAROizHbzUq1qXPvCfQx-18" value="Self Attention" style="rounded=1;whiteSpace=wrap;html=1;fillColor=#bac8d3;strokeColor=#23445d;" parent="1" vertex="1">
          <mxGeometry x="304.85" y="420" width="95.15" height="40" as="geometry" />
        </mxCell>
        <mxCell id="lAROizHbzUq1qXPvCfQx-26" value="" style="edgeStyle=orthogonalEdgeStyle;rounded=0;orthogonalLoop=1;jettySize=auto;html=1;" parent="1" source="lAROizHbzUq1qXPvCfQx-19" target="lAROizHbzUq1qXPvCfQx-24" edge="1">
          <mxGeometry relative="1" as="geometry" />
        </mxCell>
        <mxCell id="lAROizHbzUq1qXPvCfQx-19" value="Self Attention" style="rounded=1;whiteSpace=wrap;html=1;fillColor=#bac8d3;strokeColor=#23445d;" parent="1" vertex="1">
          <mxGeometry x="510" y="420" width="95.15" height="40" as="geometry" />
        </mxCell>
        <mxCell id="lAROizHbzUq1qXPvCfQx-31" style="edgeStyle=orthogonalEdgeStyle;rounded=0;orthogonalLoop=1;jettySize=auto;html=1;exitX=0.453;exitY=1.2;exitDx=0;exitDy=0;exitPerimeter=0;" parent="1" target="lAROizHbzUq1qXPvCfQx-28" edge="1">
          <mxGeometry relative="1" as="geometry">
            <mxPoint x="347.9529499999999" y="529" as="sourcePoint" />
            <Array as="points">
              <mxPoint x="350" y="529" />
              <mxPoint x="350" y="575" />
            </Array>
          </mxGeometry>
        </mxCell>
        <mxCell id="lAROizHbzUq1qXPvCfQx-23" value="Global Average Pooling" style="rounded=1;whiteSpace=wrap;html=1;fillColor=#fad7ac;strokeColor=#b46504;" parent="1" vertex="1">
          <mxGeometry x="304.85" y="490" width="95.15" height="40" as="geometry" />
        </mxCell>
        <mxCell id="lAROizHbzUq1qXPvCfQx-32" style="edgeStyle=orthogonalEdgeStyle;rounded=0;orthogonalLoop=1;jettySize=auto;html=1;entryX=1.072;entryY=0.533;entryDx=0;entryDy=0;entryPerimeter=0;" parent="1" target="lAROizHbzUq1qXPvCfQx-28" edge="1">
          <mxGeometry relative="1" as="geometry">
            <mxPoint x="560" y="531" as="sourcePoint" />
            <Array as="points">
              <mxPoint x="560" y="576" />
            </Array>
          </mxGeometry>
        </mxCell>
        <mxCell id="lAROizHbzUq1qXPvCfQx-24" value="Global Average Pooling" style="rounded=1;whiteSpace=wrap;html=1;fillColor=#fad7ac;strokeColor=#b46504;" parent="1" vertex="1">
          <mxGeometry x="510" y="490" width="95.15" height="40" as="geometry" />
        </mxCell>
        <mxCell id="lAROizHbzUq1qXPvCfQx-28" value="64D Feature Vector" style="rounded=1;whiteSpace=wrap;html=1;fillColor=#dae8fc;strokeColor=#6c8ebf;gradientColor=#7ea6e0;" parent="1" vertex="1">
          <mxGeometry x="414" y="554" width="95.15" height="40" as="geometry" />
        </mxCell>
        <mxCell id="SSA5BnTpUQUNPvU0TnQh-1" value="" style="shape=image;verticalLabelPosition=bottom;labelBackgroundColor=default;verticalAlign=top;aspect=fixed;imageAspect=0;image=data:image/jpeg,/9j/4AAQSkZJRgABAQEAYABgAAD/2wBDAAMCAgMCAgMDAwMEAwMEBQgFBQQEBQoHBwYIDAoMDAsKCwsNDhIQDQ4RDgsLEBYQERMUFRUVDA8XGBYUGBIUFRT/2wBDAQMEBAUEBQkFBQkUDQsNFBQUFBQUFBQUFBQUFBQUFBQUFBQUFBQUFBQUFBQUFBQUFBQUFBQUFBQUFBQUFBQUFBT/wAARCAJ4A8YDASIAAhEBAxEB/8QAHwAAAQUBAQEBAQEAAAAAAAAAAAECAwQFBgcICQoL/8QAtRAAAgEDAwIEAwUFBAQAAAF9AQIDAAQRBRIhMUEGE1FhByJxFDKBkaEII0KxwRVS0fAkM2JyggkKFhcYGRolJicoKSo0NTY3ODk6Q0RFRkdISUpTVFVWV1hZWmNkZWZnaGlqc3R1dnd4eXqDhIWGh4iJipKTlJWWl5iZmqKjpKWmp6ipqrKztLW2t7i5usLDxMXGx8jJytLT1NXW19jZ2uHi4+Tl5ufo6erx8vP09fb3+Pn6/8QAHwEAAwEBAQEBAQEBAQAAAAAAAAECAwQFBgcICQoL/8QAtREAAgECBAQDBAcFBAQAAQJ3AAECAxEEBSExBhJBUQdhcRMiMoEIFEKRobHBCSMzUvAVYnLRChYkNOEl8RcYGRomJygpKjU2Nzg5OkNERUZHSElKU1RVVldYWVpjZGVmZ2hpanN0dXZ3eHl6goOEhYaHiImKkpOUlZaXmJmaoqOkpaanqKmqsrO0tba3uLm6wsPExcbHyMnK0tPU1dbX2Nna4uPk5ebn6Onq8vP09fb3+Pn6/9oADAMBAAIRAxEAPwD79/4ZP+CH/RG/h/8A+EvY/wDxqj/hk/4If9Eb+H//AIS9j/8AGq9WooA8p/4ZP+CH/RG/h/8A+EvY/wDxqj/hk/4If9Eb+H//AIS9j/8AGq9WooA8p/4ZP+CH/RG/h/8A+EvY/wDxqj/hk/4If9Eb+H//AIS9j/8AGq9WooA8p/4ZP+CH/RG/h/8A+EvY/wDxqj/hk/4If9Eb+H//AIS9j/8AGq9WooA8p/4ZP+CH/RG/h/8A+EvY/wDxqj/hk/4If9Eb+H//AIS9j/8AGq9WooA8p/4ZP+CH/RG/h/8A+EvY/wDxqj/hk/4If9Eb+H//AIS9j/8AGq9WooA8p/4ZP+CH/RG/h/8A+EvY/wDxqj/hk/4If9Eb+H//AIS9j/8AGq9WooA8p/4ZP+CH/RG/h/8A+EvY/wDxqj/hk/4If9Eb+H//AIS9j/8AGq9WooA8p/4ZP+CH/RG/h/8A+EvY/wDxqj/hk/4If9Eb+H//AIS9j/8AGq9WooA8p/4ZP+CH/RG/h/8A+EvY/wDxqj/hk/4If9Eb+H//AIS9j/8AGq9WooA8p/4ZP+CH/RG/h/8A+EvY/wDxqj/hk/4If9Eb+H//AIS9j/8AGq9WooA8p/4ZP+CH/RG/h/8A+EvY/wDxqj/hk/4If9Eb+H//AIS9j/8AGq9WooA8p/4ZP+CH/RG/h/8A+EvY/wDxqj/hk/4If9Eb+H//AIS9j/8AGq9WooA8p/4ZP+CH/RG/h/8A+EvY/wDxqj/hk/4If9Eb+H//AIS9j/8AGq9WooA8p/4ZP+CH/RG/h/8A+EvY/wDxqj/hk/4If9Eb+H//AIS9j/8AGq9WooA8p/4ZP+CH/RG/h/8A+EvY/wDxqj/hk/4If9Eb+H//AIS9j/8AGq9WooA8p/4ZP+CH/RG/h/8A+EvY/wDxqj/hk/4If9Eb+H//AIS9j/8AGq9WooA8p/4ZP+CH/RG/h/8A+EvY/wDxqj/hk/4If9Eb+H//AIS9j/8AGq9WooA8p/4ZP+CH/RG/h/8A+EvY/wDxqj/hk/4If9Eb+H//AIS9j/8AGq9WooA8p/4ZP+CH/RG/h/8A+EvY/wDxqj/hk/4If9Eb+H//AIS9j/8AGq9WooA8p/4ZP+CH/RG/h/8A+EvY/wDxqj/hk/4If9Eb+H//AIS9j/8AGq9WooA8p/4ZP+CH/RG/h/8A+EvY/wDxqj/hk/4If9Eb+H//AIS9j/8AGq9WooA8p/4ZP+CH/RG/h/8A+EvY/wDxqj/hk/4If9Eb+H//AIS9j/8AGq9WooA8p/4ZP+CH/RG/h/8A+EvY/wDxqj/hk/4If9Eb+H//AIS9j/8AGq9WooA8p/4ZP+CH/RG/h/8A+EvY/wDxqj/hk/4If9Eb+H//AIS9j/8AGq9WooA8p/4ZP+CH/RG/h/8A+EvY/wDxqj/hk/4If9Eb+H//AIS9j/8AGq9WooA8p/4ZP+CH/RG/h/8A+EvY/wDxqj/hk/4If9Eb+H//AIS9j/8AGq9WooA8p/4ZP+CH/RG/h/8A+EvY/wDxqj/hk/4If9Eb+H//AIS9j/8AGq9WooA8p/4ZP+CH/RG/h/8A+EvY/wDxqj/hk/4If9Eb+H//AIS9j/8AGq9WooA8p/4ZP+CH/RG/h/8A+EvY/wDxqj/hk/4If9Eb+H//AIS9j/8AGq9WooA8p/4ZP+CH/RG/h/8A+EvY/wDxqj/hk/4If9Eb+H//AIS9j/8AGq9WooA8p/4ZP+CH/RG/h/8A+EvY/wDxqj/hk/4If9Eb+H//AIS9j/8AGq9WooA8p/4ZP+CH/RG/h/8A+EvY/wDxqj/hk/4If9Eb+H//AIS9j/8AGq9WooA8p/4ZP+CH/RG/h/8A+EvY/wDxqj/hk/4If9Eb+H//AIS9j/8AGq9WooA8p/4ZP+CH/RG/h/8A+EvY/wDxqj/hk/4If9Eb+H//AIS9j/8AGq9WooA8p/4ZP+CH/RG/h/8A+EvY/wDxqj/hk/4If9Eb+H//AIS9j/8AGq9WooA8p/4ZP+CH/RG/h/8A+EvY/wDxqj/hk/4If9Eb+H//AIS9j/8AGq9WooA8p/4ZP+CH/RG/h/8A+EvY/wDxqj/hk/4If9Eb+H//AIS9j/8AGq9WooA8p/4ZP+CH/RG/h/8A+EvY/wDxqj/hk/4If9Eb+H//AIS9j/8AGq9WooA8p/4ZP+CH/RG/h/8A+EvY/wDxqj/hk/4If9Eb+H//AIS9j/8AGq9WooA8p/4ZP+CH/RG/h/8A+EvY/wDxqj/hk/4If9Eb+H//AIS9j/8AGq9WooA8p/4ZP+CH/RG/h/8A+EvY/wDxqj/hk/4If9Eb+H//AIS9j/8AGq9WooA8p/4ZP+CH/RG/h/8A+EvY/wDxqj/hk/4If9Eb+H//AIS9j/8AGq9WooA8p/4ZP+CH/RG/h/8A+EvY/wDxqj/hk/4If9Eb+H//AIS9j/8AGq9WooA8p/4ZP+CH/RG/h/8A+EvY/wDxqj/hk/4If9Eb+H//AIS9j/8AGq9WooA8p/4ZP+CH/RG/h/8A+EvY/wDxqj/hk/4If9Eb+H//AIS9j/8AGq9WooA8p/4ZP+CH/RG/h/8A+EvY/wDxqj/hk/4If9Eb+H//AIS9j/8AGq9WooA8p/4ZP+CH/RG/h/8A+EvY/wDxqj/hk/4If9Eb+H//AIS9j/8AGq9WooA8p/4ZP+CH/RG/h/8A+EvY/wDxqj/hk/4If9Eb+H//AIS9j/8AGq9WooA8p/4ZP+CH/RG/h/8A+EvY/wDxqj/hk/4If9Eb+H//AIS9j/8AGq9WooA8p/4ZP+CH/RG/h/8A+EvY/wDxqj/hk/4If9Eb+H//AIS9j/8AGq9WooA8p/4ZP+CH/RG/h/8A+EvY/wDxqj/hk/4If9Eb+H//AIS9j/8AGq9WooA8p/4ZP+CH/RG/h/8A+EvY/wDxqj/hk/4If9Eb+H//AIS9j/8AGq9WooA8p/4ZP+CH/RG/h/8A+EvY/wDxqj/hk/4If9Eb+H//AIS9j/8AGq9WooA8p/4ZP+CH/RG/h/8A+EvY/wDxqj/hk/4If9Eb+H//AIS9j/8AGq9WooA8p/4ZP+CH/RG/h/8A+EvY/wDxqj/hk/4If9Eb+H//AIS9j/8AGq9WooA8p/4ZP+CH/RG/h/8A+EvY/wDxqj/hk/4If9Eb+H//AIS9j/8AGq9WooA8p/4ZP+CH/RG/h/8A+EvY/wDxqj/hk/4If9Eb+H//AIS9j/8AGq9WooA8p/4ZP+CH/RG/h/8A+EvY/wDxqj/hk/4If9Eb+H//AIS9j/8AGq9WooA8p/4ZP+CH/RG/h/8A+EvY/wDxqj/hk/4If9Eb+H//AIS9j/8AGq9WooA8oP7J/wAEB/zRv4f/APhL2P8A8aor1ZqKAFooooAKKKKACiiigAooooAKKKKACiiigAooooAKKKKACiiigAooooAKKKKACiiigAooooAKKKKACiiigAooooAKKKKACiiigAooooAKKKKACiiigAooooAKKKKACiiigAooooAKKKKACiiigAooooAKKKKACiiigAooooAKKKKACiiigAooooAKKKKACiiigAooooAKKKKACiiigAooooAKKKKACiiigAooooAKKKKACiiigAooooAKKKKACiiigAooooAKKKKACiiigAooooAKKKKACiiigAooooAKKKKACiiigAooooAKKKKACiiigBGooaigBaKKKACiiigAooooAKKKKACiiigAooooAKKKKACiiigAooooAKKKKACiiigAooooAKKKKACiiigAooooAKKKKACiiigAooooAKKKKACiiigAooooAKKKKACiiigAooooAKKKKACiiigAooooAKKKKACiiigAooooAKKKKACiiigAooooAKKKKACiiigAooooAKKKKACiiigAooooAKKKKACiiigAooooAKKKKACiiigAooooAKKKKACiiigAooooAKKKKACiiigAooooAKKKKACiiigAooooAKKKKACiiigAooooAKKKKACiiigAooooARqKGooAWiiigAooooAKKKKACiiigAooooAKKKKACiiigAooooAKKKKACiiigAooooAKKKKACiiigAooooAKKKKACiiigAooooAKKKKACiiigAooooAKKKKACiiigAooooAKKKKACikpaACiiigAooooAKKKKACiiigAooooAKKKKACiiigAooooAKKKKACiiigAooooAKKKKACiiigAooooAKKKKACiiigAooooAKKKKACiiigAooooAKKKKACiiigAooooAKKKKACiiigAooooAKKKKACiiigAooooAKKKKACiiigAooooAKKKKACiiigAooooARqKGooAWiiigAooooAKKKKACiiigAooooAKKKKACiiigAooooAKKKKACiiigAooooAKTvS1j+J/FFh4T0uW/wBQlKRqQiRoN0krnhURRyzE9B/+uk3bUai5OyRqMwXkmuY1n4neFtAuntL3W7VLxPvWkTebOP8AtmmW/SvONUv9e8cyF9Znl0nTGJ2aNYTFSy548+VcFmI6opCc4O/qZdN0uz0e1W3sbSGztx0jgjCKPfA61yyr/wAp7lPLUknVfyX+Z13/AAu7wru5l1ZR/fbQ74J/30YcY/GtzQfiB4d8UTmDTNZs7y5AybdJQJlHqUJ3D8q8/qjqmh6frkQjv7OG7CnKGRRlD1yG6qcgYIORUKvLqjolltFq0W0/69D29TnoaWvFdJ8Ta94FdAJrjxHoSn95bTuZL22X1icjdMBj7jnd1wxwFPr2i6xZ6/pdvqGn3CXVncLvjmjOQw/z27V0wqKex42Iws8O9dV3LtFFFanGFFFFABRRRQAUUUUAFFFFABRRRQAUnGaWmmgAozUF3cR2kMk88ixQxoWd3YKqgDJJJ6AV5JrXjzWPG0jxaNNJofh84xqKr/pd4vrGrAiOM9mPzkHIC8Mc5zUFqdOHw88Q7R2PSfEHjPQvCoQ6xq9npxk/1aXEyoz/AO6pOW/AVzp+N3hTcQs+pzL/AH4NFvZF/wC+lhIrh9L8O6do8jy2tqq3MnMlzITJNIfV5HyzH3JJrSrldad9Ee3HLaK+KTf4f5nZab8WfCOrXMdvFrdvBcyHakF4GtpXPoqShSfwFdarhhkEGvGryzgvrd4LmGO4hcYaOVAyt7EHPr6VQ0+31TwWxm8MXRSBR82i3kha0k9lPLQn0KfLnqjVca7+0ZVcti1+6lr5/wCZ7rzxinLXN+DfGln4ys5JIUktby3bZdWM+PNt3I6HHUHqGBwRyK6ReBXUmpK6PDlCVOTjJaoWiiimQFFFFABRRRQAUUUUAFFFFABRRRQAUUUUAFJS0jUAJzSMcZrJ8UeJrHwlpct/fyFI1IRI0G6SVz91EUcsxPQD+VeTanfa744kL6zPNpOmsTs0axnKllyMGeVcFmI6opCc4O8cnGdRQO3D4SeI1Wi7no+tfE7wv4funtL3WrVLxPvWkT+dOP8AtmmW/Ssv/hd3hTdzLqqj++2h3wX67jDjH41yOm6XZ6Parb2NpDZ246RwRhFHvgdatVz+2l0R7Cy2glq3/XyPQNB+IHhzxRMYNL1qzvLkDLWySgTKPUoTuH4iuhU8V4hqmh6frcQjv7OG7CnKmReUPXIb+E8DBByKl0nxJr3gWRdstx4j0IHEltO5kvbZfWJyMzAf3HO7rhjgKbjX1tI5q2W21ou/ke1ZpV6VR0fWLLX9Nt9Q0+5S6s51DxzRnIYf54x2xV4V1nhtOLsxaKKKACiiigAooooAKKKKACiiigAooooAKKKKACiiigAooooAKKKKACiiigAooooAKaT1p1NI5oAOar3t9b6fbyXF1PHbW8Y3PLM4VVHqSeAK4zx18RJNIu/7G0KCPUdcZQ0nmuRBZoejykc5PJVBy2Oqj5q4F/Di6pdLe69cyeIb4Hcr3eDFEf8AplD9xOD1ALY+8xrnnWUXZbnp4fATrLnk7I9BuPjT4PhYrFqzaj/taXaTXi/nCj02P42eEGP73ULmxX/npqGnXNog9y0sagD8a5cAKAAAB7DApc45rD20+x6f9nYfu/w/yPU9J1qw16zS7068t7+1c/LPbyrIh+hBxV5egxXg1x4ZtVvHv9PebRdUxn7dpx8p2xnG8fdkGf4XVl9q7Hwd8RryPUYtF8TJFFdSt5dnqUOVhuz2Vgf9XL1+XJDY+U5yo3hWUtGefiMvlTTnTd0ek/zoFNHQYp9dB5IUUUUAFFFFABRRRQAUUUUAFFFFACNRQ1FAC0UUUAFFFFABRRRQAUUUUAFFFFABRRRQAUUUUAFFFFABRRRQAUUUUAFIaWkNADGwqlicADOa8MXVH8da8/iWVydPXdDpELYKrFnBuPrL1B7Jtx1Oe9+MmoyWnge6s4HMdxqksemoynBAlcLIwPYiMuw9xXJwwpbwpFGoSNFCqoGAABwK5K8teU9/LaK5XWe+yH/hiioL6/ttLsp729uYrO0t42lmuJ3CRxIoJLMxwFAGeSRwDVObxPo1va6bcS6tYxW+qSRw2Er3KBLp5BuRY2zhyw6AEk44zXKexc06Kqx6tYy6pLpyXlu+oRRJPJaCVTKkbFgrsgOQpKMAxGCVOOlF5qllps1nDd3kFtNeS+RbxzSqrTybWYogJG5tqs2F5wGPSgLlqq/hrVm8C+LoSXK6HrU6wzx9EtrtjiOUegkJCMP7xjPGWJsVR1zS11zR7uwdiguI2jEi9YyfusD2IIBB9QPSmnyu5M4RqwcJbM9uT7gpy9K574f+IJPFHgvRtVnAW5ubZGnVeiygYkX8GDD8K6KvTTurnxkouEnF7oKKKKZIUUUUAFFFFABRRRQAUUUUAFNbFOqpqd9Fptjc3U7FIYI2ldvRQCSaT0VxpXdjyv4kas3i7xI3huJmGj6bsl1Pb0uJmXdHbn/ZVSsjDvujHTcKjPU1i+EVmk0GG8u1xe6iWv7kdcSTEuy59F3BR7KK2q8yUuZ3Ps6VJUYKmun5hRVPWNa0/wAO6Xc6lqt9baZp9um+e7vJliiiXpuZ2ICjJHJpt3r2m2F5p9ndaha213qDslnBLOqSXDKhZhEpILkKCTjPAyelI0L1FVbfVrK61C6soLy3mvbQI1xbRyqZIQ4JQuoOVyAccc4PpVqgV+xlam15od/B4j0pHk1CxX97bR4ze2/VoT79WQ9nA7M2fatH1S11zSbPULKUT2l1Es0Mq9GRgCD+Rryr/PHJrZ+DN4bez1vQ2I2abfM0Cg5xDMBKo+gZ5FHsgrooys+XoeXmNJSp+1W6PSO2KWkpVrtPnBaKKKACiiigAooooAKKKKACiiigAooooAKjYhdzHgDnNSVwvxk1KW18EXNnA5juNUlj01GU4IErBZGB7ERl2HuKmT5Vc0pw9pNQXU4P+1n8ea83iWVydOQNDpELEFVizg3HH8UvUHsm3HU50/wxTIYUt4UiiUJGihVUDAAA4FVdW1zTtBt459T1C102CSaO3SW6nWJWlkYKiKWIG9mKqB1JIA5IrzL31Z9moxprkjsi7RVKTXNOh1i30mS/tU1W4he5hsWmQTSRoQGdY87mUF1BOMDcuetPsdUstUa5WyvLe8NtMbefyJBIYZRglGx91gCMqecEUBdFqiquparZaLYy32o3lvYWUIzJcXMqxxoCQAWYnAySBzjr6mrVA7lfw1q7eBfFsRLldD1qdYZ4+iW123Eco9BIxCMP7xjPGWJ9pT7orxDXNKXXNHu7B2KC4jaMSL1jY/dYHsQQCD6geleofD7xBJ4o8E6Nqk4C3NxbI06r0WUDEi/gwYfhXVQlvE8PMqKVqseu/wCh0NFFFdZ4YUUUUAFFFFABRRRQAUUUUAFFFFABRRRQAUUUUAFFFFABRRRQAUUUUAFFFFABXJfEjxZJ4R0EyWiLNqt5KtpYQv0eZgTkj+6qqzt32oe+K62vH/G902tfE1oSd1votiqovbz5ySxI9VSNMe0jetZVZcsbndg6SrVkpbLVmboukro9j5Jmkup5GMtxdzY8yeVvvSPjufQcDoOBV89c4xR+tH4fnXnn1TCisuLxVok2n6lfR6vYSWOmvLHfXK3KGO1eLmVZWDYQoOWBPHer1neQahZwXVrPHdW06LLFPC4dJFYZDKRwQQcgjjBoFcmqtqWnW+rWM1ncpvhlXawzg+oII6EEAgjkHHTrVmigq9tTpfhX4outVsbrRNUma41jSCkck74BuoWB8qfA/vbWU9tyPjiu8X7teKWN0dD8feHNRU7Y7p5NLuPQrIpeM/USRoB6CRvWvbF6V30Zc0dT5fHUVRq+7s9RaKKK2POCiiigAooooAKKKKACiiigBGooaigBaKKKACiiigAooooAKKKKACiiigAooooAKKKKACiiigAooooAKKKKACmmnUnrQB5p8aMmTwYP4DrR3f8AgHdEf+PBayPWuk+NVqW8FnUlXcdJuodQb2jRx5x/CJpK5sMGAIOR6+vvXBVXvH1GAd6GncGUMuCNwPG0jg/55614F8H/AIfx6T8X/FenS3jXuieC5Ei8N6fJHgact7H58wDbju2g+VHwNkWV7mvfaKyudso8zTPA7uKbSf2ovFVzogt7/wAT3PhXTpLTTNX164s7a4jF1cLM4RUmACKIz8sJALn7pkYm18TPDMM3xI+DXibVbCKDxO2t/ZJfJvpbq3t1Nhdu6Q7wigFgMusaM4VN33QB7lRT5iFT8wo7UVV1TUodH027v7htsFtE0zt6KoJP6CoZutWkdh8Ec/8ACv4gei6jqSr/ALovpwv6YrvK5f4Z6LN4f8B6JZXaeXeLbrJcp6TP88g/77Zq6gV6cNIo+OxElKtOS2bYtFFFWc4UUUUAFFFFABRRRQAUUUUAFcf8YGdfhV4xaL/WLo94V+vkviuwqhrmlxa1pF9YT/6m6geB/wDdZSD+hqZbM0pvlmmeUQqiwxrH/qwoC/THFPrG8H3Utx4dslucC8t0+y3S/wB2aMmOQf8AfatWzXln2z0ehDfWNvqdjcWl3BHc2lxG0U0EqhkkRhhlIOcggkYIxzXh37PPgttO8TeK31HUZdafwneN4W0OS4T57SwVIp9m4k73bzERn43LBF3Br3eiq5rGTjzNM8Y+Htlplh+018VMXsw1W5sdLnWzm1GVw0OyRWkWBnKhQwVdwUBSSBjcQfZ6KKW44x5VYKu/C3K/ELxWB9z+ztOb/gXmXgP6Bapf4Vr/AAct/tUniXWyuIry++y27f3o4F2E/wDf3zh+FaUl76OTGy5cNK/W35npWOKWk7Uor0D5QWiiimAUUUUAFFFFABRRRQAUUUUAFFFFABXmnxoyZvBg/gOtHd/4B3RH/jwWvS64H412hbwWdSVctpN1DqDe0aOBMfwiaSs6nws68I0q8L9zmvWsrxV4Z07xp4b1LQtWg+06bqEDW88ffawxkHsR1BHQgHqK1QwYAg5Hr6+9Fecu59bJXTXc8W/Zj0W8m8Pal4l17UW17xLcXc2jPqUsQjf7LYzyW0KYyfvFHlY93mY9NoHCaD4b8Q3Hhf446V8OvEEdn4qPiK+Mtvf3FxeXAD2yGERFruP7K7ljtl5BwOCFGPqSiq5jH2a08jwD9obwXean+z9qVx41urPXNa0rbcwS6dBPZWqv5kYDNbtcSh3UZwzlsE5UKa9/6cUUUmy4wSYdq6f4I5/4V/ED0XUdSVf90X04X9MVx2qalDo+m3d/cNtgtommdvRVBJ/QV6L8MdFn8P8AgHRLK6Ty7xbdZLlPSZ/nkH/fbNW9H4mzz8xkvYJdW/yR1FFFFdp80FFFFAHO/EC88Saf4P1a58IafZ6t4ljgJsLHUJzDBLJkYDuOVHv7VU8Uah4wtPhzdXug6Tp9941WyV4dLurkx2rXOBuQy4ztBJ+b2FdbRQByXijUPGFp8Obq90HSdPvvGq2SvDpl1cmO1a5wNyGXGdoJPzewpPFGoeMLT4c3V7oOkaffeNVsleHS7q5Mdq1zgbkMuM7QSfm9hXXUUAcj4o1DxhafDm6vdB0jT77xqtkrw6XdXJjtWucDchlxnaCT83sKPFGoeMLT4c3V7oOkaffeNVsleHS7q5Mdq1zgbkMuM7QSfm9hXXUUAcl4o1Dxha/Dm6vdB0nT77xqtkrw6XdXJjtWucDchlxnaCT83sKTxRqHjC0+HN1e6DpGn33jVbJXh0u6uTHatc4G5DLjO0En5vYV11FAHI+KNQ8YWnw5ur3QdI0++8arZK8Ol3VyY7VrnA3IZcZ2gk/N7CjxRqHjC0+HN1e6DpGn33jVbJXh0u6uTHatc4G5DLjO0En5vYV11FAHI+KNQ8YWnw5ur3QdI0++8arZK8Ol3VyY7VrnA3IZcZ2gk/N7CjxRqHjC0+HN1e6DpGn33jVbJXh0u6uTHatc4G5DLjO0En5vYV11FAHI+KNQ8YWnw5ur3QdI0++8arZK8Ol3VyY7VrnA3IZcZ2gk/N7CjxRqHjC0+HN1e6DpGn33jVbJXh0u6uTHatc4G5DLjO0En5vYV11FAHJeKNQ8YWnw5ur7QdI0++8arZK8Ol3V0Y7VrnA3IZcZCg5+b2FHijUfGFp8Obq+0HSNPvvGq2SvDpd1dGO1a5wNyGXGQoOfm74FdbRQByXijUfGFp8Obq+0HSNPvvGq2SvDpd1dGO1a5wNyGXGQoOfm74FdDo8l5NpNlJqMMdtqDQo1zDE+9I5So3qrdwDkA96uUUAFFFFABXiM+W+IPjkt1GowKP8Ad+w2x/mWr26vHPFlt/ZPxQvgw2w6vZRXMZ/vSQny5R+Ctb/nXNiFeKPXyySVZp9V/kFFHYetFcZ9D5s8B+Jvw/ivvjl4asI7s2/h7xkkkviLSfK3R372Cq8Bzn5d29Ek4O9IkU8Cuj+ONncat4o+F2jJquqaVp+oa9LHerpOoT2T3ESWNzII2khdHC7kQ8EcgV63RT5jPkEVQihR0UY5Of1paKKRotrGP4mz5ejlfvjW9N2/jeQg/wDjpb9a95X7orxGO1/tjxt4W0xRuC3TajOPSOFDhv8Av68Ir28cCuuhseDmbXPFeQtFFFdR4oUUUUAFFFFABRRRQAUUUUAI1FDUUALRRRQAUUUUAFFFFABRRRQAUUUUAFFFFABRRRQAUUUUAFFFFABRRRQAUnrS0jUAQ3dvHeW8sEyCSKVCjowyGBGCDXhmm2kvhXU5/Ct6zNJYpvsZ5M/6RZ5whz3ZBhG75Ab+MV7xurnfGXgy18Y2KRyyPaXtu3m2l9CB5kEmMZGeCpHBU8EEg9jWNWnzLQ9DB4n6vK0vhZwBorJvNTvfClwlp4qgj06Rm2xakmfsVz2GHI/dsf8Anm5BznaX61qqdygjpXB5H1CakuaOqFoopk08dvC8szrHEqkuzsFUAdSSe3+FAx9ULHTD458WQaMgP9mac8d3qkmDtYg7obfPqzBWYf3Fwf8AWCotJOq+OpFi8Nps0/OJtemj/chf+mAP+ub3HyD1JG0+u+GfDNj4T0mPT7CNliUlnkkbdJM5OWd26liepranByd+h52LxUaEXCLvJ/h/wTXQbUAHFOpq9OetOFd58uLRRRQAUUUUAFFFFABRRRQAUUUUAFMP3qfSGgDxnxrph8F+MnvgCNF12VcsAdtve4C4PosqquO29TnlxUlep6xpNnr2l3Gn38CXVncIUkikHDA/yPv614/rOk6x8PpGF8k+r+Hl/wBVqcKmSe3HpcIASQB/y1UdM7gPvHhqU+V3Wx9JgsXGpFU5uzX4l2iq9jqFrqlqlzZ3EN1bSDKTQsGUj1BB5qxWB6mvVBRR3AxWT/bkmqXz6Z4etv7b1VThliYCC3PrNKMhBj+HliOimgHZK72F1u6u5JLbSdKw2t6kTDa7kLLFx88z4/gQHJ9TtXq1eyeGdAtvC2gWGk2YYW1nEsSFzlmwPvMe7E5JPckmsLwP4FTwqs17eTLqOu3Shbi827VVRyIol/hjBPTqTknJrsF+7XdSp8qu9z5rG4pVpKEPhX4hS0UVueYFFFFABRRRQAUUUUAFFFFABRRRQAUUUUAFV7y3ivLeW3mjEkUqlGRhkMCMEH86sUhoGnZ3R4NptnN4U1ObwreszSWSeZYzyZ/0mzJwhz3ZBhG75Ab+MVrmvQPGfg218ZWKRSyPaXlu3m2l9CB5lvJjGRngqRwVPBBI9DXlF3ql54VuVs/FUEenSltsWopn7FcdhhyP3bH/AJ5uQc52l+tefUpuL02PqsLio4iKT0kvx8zXopFO5QR0paxO4KKZNPHbwvLM6xxKCWZ2CqAOpJPb/Cs7SW1Tx3IsPhtPL0/OJtemj/cqv/TAH/XN7j5B6kjaWrvREykox5puyJbHTD458WQaMgP9mac8d3qkmDtYg7obfPqzBWYf3Fwf9YK9wj+6OMVj+GfDNj4T0iPT7BGWJSXeSQ7pJXJyzu3UsT1NbK/dr0KcORa7ny2LxH1id18K2FooorU4QooooAKKKKACiiigAooooAKKKKACiiigAooooAKKKKACiiigAooooAKKKKACuJ+KXha58QaPDeaaoOs6XL9qtFzjzuCJIc/7aFgD0DbW/hrtqY33qmUVJWZrTqSpTU47o8U0jVbfXNNgvbUsYZVyA6lWUg4Ksp5VgQQQeQQRVutbxt8P762vp9b8MRxvcznfe6XKwSO6P/PRG6JLgY/utgbsfeHLab4is9SuJbXL2uowj97p92vlXEXOPmRuqn+8MqexPWvOlFwdmfW0a0MRHmg/l2NOij9aKg2Corq5is7WW4nkWGCJC8kjnAVRyST9P0qpq2vWOiLH9rn2SSnbDbopkmmb+7HGoLOfZQa2PC/gPUPFV1FqPiS2+w6VE4lttHYhnlYcq9xjgYIBEQJHA3E/dFxi5OyM6tWFCPNN/wDBNH4S6FPKt34qv4XguNURFtLeVSrwWi5MYZT0dyzOR1AKKeVr0kdKavbNOFejGPKrI+RrVZVpuchaKKKoxCiiigAooooAKKKKACiiigBGooaigBaKKKACiiigAooooAKKKKACiiigAooooAKKKKACiiigAooooAKKKKACiiigApPWlpOM+9AFe7tYbyGSGeJZopF2tG6hlYdwQeOa/N7/AIKTfFjxD+zL4n8ExfDqIeE7a8tbq7ubhyTZX7qVC20UAJCvGAWZgqqBNHlgSBX6UfQ18qftx69qHjX4V/EzwNoF09rbaN4Sv9d8S6hEM+XGtrM9rYqegkneMO47Qxtn/WoalxUtzWnWqUvgdjgf+Cf/AI28WftXfC/XvFXijxHeWcdjrDaVbx6Zb28O8JbwyOz7o3bJMo6Nx05IyfrDT/g54YtJ0nu7WbWrhCCH1ad7lQw5BWNjsU+6qKxf2e/2fNA/Zv8ACuteHfDbyHS9Q1u71mOF1Ci2ExG2BcdVRERQTyQtepLzUqnBdDaWMrz0c2IiiNAFAA9qeOnrSfpSitDkFooooAKKKKACiiigAooooAKKKKACiiigAooooAKYy7s8U+igD5P/AG/LhvhP8Bdc8ZeEdMGm+J2ureE65ay/ZorFWkBe4udrASLhfKAIcl5YwFJIFfLP7Av7S/xF/ae+L0ngvXPEUkOn2eiTardXVnYwRT7leGNVUusg27pfvYBORgLjn9FPjN47vPCPh+207QoI77xh4guP7M0SzkAZPPZSWnlXP+phQNLJ6qm0fMyg+DfsO/steEPh74f8CfFbQYzYatrvw/07T9QtI1Bjnmfy7iW6Zjz5jnYpHAworN04vVo64YuvBWUme8WvwV0Q4/tS71TXMH7l9eMsZ/3o4giMPYqRXbaXpVlo1jFaWFpDZWsYwkEEYREHoAOBVpflHSnCmoxjsjKpWqVfjk2FLRRVmIUUUUAFFFFABRRRQAUUUUAFFFFABRRRQAUUUUAFFFFABVe6tYryGSGeNZoZF2tHIoZWHcEHjBqxTe/WgNj5g/af+Ifwg/ZZ8NW2r+IbvVNAvdR80aZpHh15PMvXjClxHCT5CBd6ZZgoG4ckkCvmT9i/9sp/2n/jhrPgfXdT1Lwza3cDXPh2KOS1eaXyxmWCZzb/ADuUzICoQARsDk4J+z/i/A3xr8UN8JbOd4dDSBL7xdexKrbbVs+RYKWBUSTsCzgg4hRgR+9WvmX4K/8ABOH4b/Db4/a9plnqviB9R8NWWg+JtH1yO6WO8tpZb7VVeJhtMUiMlpAj5j+YKcbdxzk6cXrY7I4yvFW5mfZmm/BvwzZzJPd2s2tXCEFX1a4e6AI6MEc7FPuFBruI1CKAFCj2oUfLTulWoqOxhUq1KrvN3FoooqjIKKKKACiiigAooooAKKKKACiiigAooooAKKKKACiiigAooooAKKKKACiiigAooooAKKKKACsTxH4P0XxZCsWr6bb3yxnMbyoN8RPdG6ofdSDW3TGHJNLR7lRlKLvF2Pj/APau+Mnw0/ZL0QPqnibxJFr91btNpnh3T5luZbnBKgmS4jkEce7ALE5HYMRisv8AYJ8Zan+1h8Hr/wAY+KdYvIri31qbTRYabOkCKkcULjeURX3HzWPDDgr35r0L45fDfR/2tvH9j8O9Ua4uvAPhC5TU/EyWtyYkvb5o/wDRdPZlw3yxyGeTaw2h4AOXymB/wTr/AGa9B+CPwP8ADXifRdX1e5u/Gvh/TdV1OzupkNoJ5IjMJI02bkYLP5ed2GVEJGRms/ZQvsdf12va3Mz6Q8N+AtA8Js0ul6ZFb3Eg2vdNmWeQejSOS7fiTXRLwoHWgH5Rg0o6VolbY5JTlN3k7sWiiimSFFFFABRRRQAUUUUAFFFFABRRRQAjUUNRQAtFFFABRRRQAUUUUAFFFFABRRRQAUUUUAFFFFABRRRQAUUUUAFFFFABRRRQAUUVHNIkMbySMqIoJZmOAAByc0Acf8WPiD/wrnwq15b2n9p65fTppujaWrYN9fy5EMWf4V4Lu38EaSOeFNeU/Ff4fH4d/sXfGO0urv8AtPXr/wAKa5qWtapt2/bb6Wxl82UL/CnCoifwRpGv8NdH8L1b4weNH+Kd2M6BbxyWHg6HcSr2rEedqRB/iuCu2M9oEUg/vmFaP7WH/Jq/xj/7EzWf/SGagD1UdKWiigAooooAKKKKACiiigAooooAKKKKACiiigAooooAKKKKACq19fW+m2lxd3c8dra28bTTTzOESNFGWZmPAAAJJParNeMfEpv+FxePI/hjbHzPDmnpFqPjCTaSksLEtbaaG6ZmZfMlX/nim1hidTQBL8INOuPiD4guvizrFs8J1G3Nl4ZsriIrJYaSWVvMZT0lunRJmHUIsCHlGzd/ZQ/5Ng+Eo/6lTS//AEljr1RfuivK/wBlH/k2H4S/9ippf/pLHQB6rRRRQAUUUUAFFFFABRRRQAUUUUAFFFFABRRRQAUUUUAFFFFABRRRQAVxfxY+IP8Awrnwq15b2n9p65fTppujaWrYN9fy5EMWf4V4Lu38EaSOeFNdhNIkMbySMqIoJZmOAAByc1458L1b4weNH+Kd2M6BbxyWHg6HcSr2rEedqRB/iuCu2M9oEUg/vmFAHZfCb4fn4deFPsl1d/2nr1/O+pa1qm3ab6+lx5soH8KcKiJ/BGka/wANc94b/wCTpviF/wBiZ4Z/9Lter1UdBXlfhz/k6b4h/wDYmeGf/S7XqAPVaKKKACiiigAooooAKKKKACiiigAooooAKKKKACiiigAooooAKKKKACiiigAooooAKKKKACiiigAooooAK4D4xeP7zwToFtaaFapqXjDXLgaboenv92S4YEtLJ/0xhQNLIf7kZA+YqD2uo39tpdlcXl5PHa2lvG0s08zhI40UEszE8AAAkk15P8IdPuPiH4gufixrMDw/2hbm08L2NzGVksNKLKxkZTyst0ypK3cIsCHBVsgHa/DH4f23wz8H2ei291NqVwhee91O6wJ9Qu5GLz3MuON8jksewzgYAArl/wBk/wD5NZ+Dn/Ym6P8A+kUNeqDpXlf7J/8Ayaz8HP8AsTdH/wDSKGgD1WiiigAooooAKKKKACiiigAooooAKKKKACiiigBGooaigBaKKKACiiigAooooAKKKKACiiigAooooAKKKKACiiigAooooAKKKKACiiigArxz4tXU/wATvFVv8KdLmmisJoUv/Fl9btj7Pp5YhLLPaS7KsnHIhSY8EoT2fxT+IUPw08I3GrG0k1PUJZI7PTdLgYCW/vJW2QwJnpuYjLdFUMx4U1U+EPw9n8AeG5jqt1FqnirV7htS17VIkKLd3jgBioPIjRVSKNTyI40B5FAHbWttDZWsNvbRRwW8KCOOKJQqIoGAqgcAAdAK8v8A2sf+TWfjJ/2Jms/+kM1eqCvK/wBrH/k1n4yf9iZrP/pDNQB6rRRRQAUUUUAFFFFABRRRQAUUUUAFFFFABRRRQAUUUUAFFFMkYKrMx2qBkk8AUAcb8WfiAfh34Ua7tbT+09evp003RdL3bTe38uRDET/CvBZ2/gjR2PC0fCf4ej4b+Eksbi6Opa1eTPqOsamww17fSkGaXH8K5wqL0SNEUcKK4v4Yg/GDxxN8Urob/D1okun+DY9xKSWzECfUiP707LsjPaBAwP75hXtAoAF+6K8r/ZR/5Nh+Ev8A2Kml/wDpLHXqteVfso/8mw/CX/sVNL/9JY6APVaKKKACiiigAooooAKKKKACiiigAooooAKKKKACiiigAooooAKKK4/4p/EKH4aeEbjVjaSanqEskdnpulwMBLf3krbIYEz03MRluiqGY8KaAOM+LV1P8TvFVv8ACnS5porCaFL/AMWX1u2Ps+nliEss9pLsqycciFJjwShPr1rbQ2VrDb20UcFvCgjjiiUKiKBgKoHAAHQCuJ+EPw9n8AeG5jqt1FqnirV7htS17VIkKLd3jgBioPIjRVSKNTyI40B5Fd0KAFryrw5/ydN8Q/8AsTPDP/pdr1eq15V4c/5Om+If/YmeGf8A0u16gD1WiiigAooooAKKKKACiiigAooooAKKKKACiiigAooooAKKKKACiiigAooooAKKKKACiiigAooooAKKK4T4wfESb4feG4jpdrFqnirVrhdN0HSZZNgvL11YqrEcrGiq8sjfwxxueoAoA5T4jf8AF5fHg+G0H7zwvpXk33i+THEwbD2umg9/MIEsw/55BVPE4x7Kv3RXHfC34exfDXwjDpYu5NT1GaWS91PVJhiW/vZTvmnb03N0XoqBEHCiuxHSgAryv9k//k1n4Of9ibo//pFDXqteVfsn/wDJrPwd/wCxN0f/ANIoaAPVaKKKACiiigAooooAKKKKACiiigAooooAKKKKAEaihqKAFooooAKKKKACiiigAooooAKKKKACiiigAooooAKKKKACiiigAooooAKY3fqafXj3xi1K5+IHiC1+E+i3LwvqVv8AbPE19byFJNP0kll2Kw+7LdMrQoeqoJ3HKLQBF8Pf+LzePz8SJv3nhXSPOsfCEZyBOWzHdakR3EmDFEf+eQdxxPXso6VX07T7bSdPtrGyt47Sztolhgt4VCpHGoCqqgcAAAAD2qzQAV5V+1j/AMms/GT/ALEzWf8A0hmr1WvKv2sf+TWfjJ/2Jms/+kM1AHqtFFFABRRRQAUUUUAFFFFABRRRQAUUUUAFFFFABRRRQAV498YLyf4jeI7X4T6RcSRJf24vfFF5byFZLLSixUQhh92S6ZHiXuI1uHGCq57f4mePbT4a+D77Xbm3lv5Y9kNnptvjz7+6kYJBbRZ6vJIyqM8Ddk4AJGR8HfAN74J8P3V3rtwmoeMNcuTqeuXyjKtOwAWGM9fJhQJDGDztjBPzMxoA7qytINPs4LW1gjtraBBFFDCgRI0UYVVUcAAAAAelT0i9BmloAK8q/ZR/5Nh+Ev8A2Kml/wDpLHXqteVfso/8mw/CX/sVNL/9JY6APVaKKKACiiigAooooAKKKKACiiigAooooAKKKKACiiigAooooAY3fqa8c+Hv/F5vH5+JE37zwrpHnWPhCM5AnLZjutSI7iTBiiP/ADyDuOJ6l+MWpXPxA8QWvwn0W5eF9St/tnia+t5Ckmn6SSy7FYfdlumVoUPVUE7jlFr1jTtPttJ0+2sbK3jtLO2iWGC3hUKkcagKqqBwAAAAPagCwOlLRRQAV5V4c/5Om+If/YmeGf8A0u16vVa8q8Of8nTfEP8A7Ezwz/6Xa9QB6rRRRQAUUUUAFFFFABRRRQAUUUUAFFFFABRRRQAUUUUAFFFFABRRRQAUUUUAFFFFABRRRQAUUUUAQXV1FZwS3FxKkFvEhkklkYKqKBkkk9ABzntivIfhPaz/ABQ8WXPxW1OKWLTpYXsPCVjcLjydPLAvfY6iS7Kqw7iFIRwWcE+KLP8AF7xpH8LLNidBgijv/GE652vaMT5OnBh0e4KkyDtAjDjzUNexQxpDCkcaLHGihVRRgKB0AHYUAOFLRRQAV5V+yf8A8ms/B3/sTdH/APSKGvVO9eV/sn/8mtfB3/sTtH/9IoaAPVaKKKACiiigAooooAKKKKACiiigAooooAKKKKAEaihqKAFooooAKKKKACiiigAooooAKKKKACiiigAooooAKKKKACiiigAoopjfeNAHL/E3x9a/DTwfe65c281/MhSCy021I8+/upGCQ20QPBeRyqjPAzk4AJGV8HvAN94L0G6vNeuI9Q8Y67cnUtcvkHytOygLBGevkwoFhjH91AT8zMTy/g9f+F2fEhvG84Wbwd4ZmmsvDMLKSt3eDdFdakOxUAvbwn+757jIlTHs69KABelLRRQAV5V+1j/yaz8ZP+xM1n/0hmr1WvKv2sf+TWfjJ/2Jms/+kM1AHqtFFFABRRRQAUUUUAFFFFABRRRQAUUUUAFFFFABTG+9T68m+M3iDUtf1TTvhj4XvJLHX9fhafUdThB3aVpKsFnnDD7s0mfJh/2mZ+RC1AFDwrn41fE6TxbKvmeC/CdxNY+H425jvtQG6O51EeqRgvbxH1Nw3RkNeziqOg6HYeGdEsNJ0q1jstNsYUt7a3iHyxxqAFUfQAVfoAKKKKACvKv2Uf8Ak2H4S/8AYqaX/wCksdeq15V+yj/ybD8Jf+xU0v8A9JY6APVaKKKACiiigAooooAKKKKACiiigAooooAKKKKACiiigArlPib4+tfhp4Pvdcubea/mQpBZabakeff3UjBIbaIHgvI5VRngZycAEjqG+8a8a8Hr/wALs+JDeN5ws3g7wzNNZeGYWUlbu8G6K61IdioBe3hP93z3GRKmADqPg94BvvBeg3V5r1xHqHjHXbk6lrl8g+Vp2UBYIz18mFAsMY/uoCfmZie/XpQvSloAKKKKACvKvDn/ACdN8Q/+xM8M/wDpdr1eq15V4c/5Om+If/YmeGf/AEu16gD1WiiigAooooAKKKKACiiigAooooAKKKKACiiigAooooAKKKKACiiigAooooAKKKKACiiigAri/ix8Qf8AhXPhVry2tP7U1y+nTTtG0tWwb6/lyIYs/wAK8F3b+CNJHPCmuwmkSGN5JGVEUEszHAAA5Oa8c+F6t8YPGj/FO7GdAt45LDwdDuJV7ViPO1Ig/wAVwV2xntAikH98woA7L4TfD8/Drwp9kurv+09ev7h9S1rVNu0319LjzZQP4U4VET+CNI1/hrtB0oHQUtABRRRQAleV/sn/APJrfwe/7E7R/wD0iir1SvK/2T/+TW/g9/2J2j/+kUVAHqtFFFABRRRQAUUUUAFFFFABRRRQAUUUUAFFFFACNRQ1FAC0UUUAFFFFABRRRQAUUUUAFFFFABRRRQAUUUUAFFFFABRRRQAV5L8ZdXvfFmrWHwu0C5ltdS1yA3Os39uxV9N0fcUldX/hmmOYYj1BMsg/1Jrs/iP48034a+D7/wAQ6mJJIrcKkNrAMzXc7sEht4h/FJJIyRqO7MKwfg14D1HwvpN/rXiVopvG/iSZdR1qSFy8UMm0LHaQsefJgTEa+pDOeZGoA7jRdHsvD2j2OlaZax2WnWMCW1tbQrtSKJFCoijsAAAPYVdpF5FLQAUUUUAFeVftY/8AJrPxk/7EzWf/AEhmr1WvKv2sf+TWfjJ/2Jms/wDpDNQB6rRRRQAUUUUAFFFFABRRRQAUUUUAFFFFABRRTG+9QBznxG8e6Z8M/B+oeIdVLtb2oVY7eEZmup3YJDbxL/FJJIyRqO7MBXO/BfwHqfhfS9R17xOY5PHPiWVL/WmhlMkVuwXbFZwsf+WMCfIp/ibfIeZGrnvDm743/E4+J5d7eBvCVzLa6JG2DFqmpAGOe/HqkH7yCI9C5nftG1ezr90UAKvSloooAKKKKACvKv2Uf+TYfhL/ANippf8A6Sx16rXlX7KP/JsPwl/7FTS//SWOgD1WiiigAooooAKKKKACiiigAooooAKKKKACiiigAoormPiP48034a+D7/xDqYkkitwqQ2sAzNdzuwSG3iH8UkkjJGo7swoA4z4y6ve+LNWsPhdoFzLa6lrkBudZv7dir6bo+4pK6v8AwzTHMMR6gmWQf6k16bouj2Xh7R7HStMtY7LTrGBLa2toV2pFEihURR2AAAHsK4f4NeA9R8L6Tf614laKbxv4kmXUdakhcvFDJtCx2kLHnyYExGvqQznmRq9EXkUALRRRQAUUUUAFeVeHP+TpviH/ANiZ4Z/9Lter1WvKvDn/ACdN8Q/+xM8M/wDpdr1AHqtFFFABRRRQAUUUUAFFFFABRRRQAUUUUAFFFFABRRRQAUUUUAFFFFABRRRQAUUUUAFFFch8UviFD8NfCNxqxtJNT1CSSOz03S4GAlv7yVtkMCZ6bmIy3RVDMeFNAHF/Fq6n+J/iq3+FOlzTRWE0KX3i2+t2A+z6eWISyz2kuyrJxyIUmPBKE+vWttDZ2sNvbxRwW8SCOOKJQqIoGAqgcAAdAK4n4Q/D2fwB4bmOq3UWqeK9XuG1LXtUiQot3eOAGKg8iNFVIo1PIjjQHkV3QoAWiiigAooooAT1ryv9k/8A5Nb+D3/Yn6R/6RRV6rXlX7J//Jrfwf8A+xP0j/0jioA9VooooAKKKKACiiigAooooAKKKKACiiigAooooARqKGooAWiiigAooooAKKKKACiiigAooooAKKKKACiiigAooooAKY2d2etPryn4zeINS1i+034b+GLySx8Q+Io3kvNSh5bSdLQhbi5z/DI+4Qw5/wCWj7uRE+ADM8PK3xs+KDeJpC7+B/CNzLaaJGcNFqepDMc9+P7yQZkgi7bzO/aM17QvSs7w14d0zwj4e03Q9FsotN0nTrdLW0tIRhIYkUKqj6ACtKgAooooAKKKKACvKv2sf+TWfjJ/2Jms/wDpDNXqteVftY/8ms/GT/sTNZ/9IZqAPVaKKKACiiigAooooAKKKKACiiigAooooAK8m+M3iDUte1TTfhl4YvJLHXtfia41HUoQc6VpKsFnnDD7s0mfJh/2mZ+REwrs/iN490z4Z+D9Q8Q6qXa3tQqx28IzNdTuwSG3iX+KSSRkjUd2YCud+C/gPU/C+l6jr3icxyeOfEsqX+tNDKZIrdgu2KzhY/8ALGBPkU/xNvkPMjUAdt4b8O6b4R8P6boejWUOm6Tp1vHaWlnbrtjhiRQqIo9AABWlSL0paACiiigAooooAK8q/ZR/5Nh+Ev8A2Kml/wDpLHXqteVfso/8mw/CX/sVNL/9JY6APVaKKKACiiigAooooAKKKKACiiigAooooAKKKKAGNndnrXjPh5W+NnxQbxNIXfwP4RuZbTRIzhotT1IZjnvx/eSDMkEXbeZ37RmtP4zeINS1i+034b+GLySx8Q+Io3kvNSh5bSdLQhbi5z/DI+4Qw5/5aPu5ET49E8NeHdM8I+HtN0PRbKLTdJ063S1tLSEYSGJFCqo+gAoA0V6UtFFABRRRQAUUUUAFeVeHP+TpviH/ANiZ4Z/9Lter1WvKvDn/ACdN8Q/+xM8M/wDpdr1AHqtFFFABRRRQAUUUUAFFFFABRRRQAUUUUAFFFFABRRRQAUUUUAFFFFABRRRQAUUUUAMbv1NeOfD3/i83j8/Eib954V0jzrHwhGcgTlsx3WpEdxJgxRH/AJ5B3HE9S/GLUrj4geIbX4T6LcvC+pW/2zxNfW0hSTT9JJZdisPuy3TK0KHqqCdxyi59Y07T7bSdPtrGyt47Sztolhgt4VCpHGoCqqgcAAAAD2oAsDpS0UUAFFFFABRRRQAV5V+yf/ya38H/APsT9I/9I4q9Vryr9k//AJNb+D//AGJ+kf8ApHFQB6rRRRQAUUUUAFFFFABRRRQAUUUUAFFFFABRRRQAjUUNRQAtFFFABRRRQAUUUUAFFFFABRRRQAUUUUAFFFFABRRTTQBgePvG+mfDjwjqfiTWHkXT7CLe6QRmSWViQqRRoOWkd2VFUcszKB1rmPg14J1TQ7PU/E3ilY/+E48TSJdaqIn3x2iICtvZRnukCErkcM7SydZDXPaa3/C8vip/amRN4E8E3rxWBV8pqespujmlI6NHa5aNf+mxkPWFTXtC52jPWgAXpS0UUAFFFFABRRRQAV5V+1j/AMms/GT/ALEzWf8A0hmr1WvKv2sf+TWfjJ/2Jms/+kM1AHqtFFFABRRRQAUUUUAFFFFABRRRQAUxvvU+vJvjN4g1LXtU034ZeGLySx17X4muNR1KEHOlaSrBZ5ww+7NJnyYf9pmfkRMKAM/w5u+N/wATj4nl3t4G8JXMtrokbYMWqakAY578eqQfvIIj0Lmd+0bV7Ov3RWf4b8O6b4R8P6boejWUOm6Tp1vHaWlnbrtjhiRQqIo9AABWlQAUUUUAFFFFABRRRQAV5V+yj/ybD8Jf+xU0v/0ljr1WvKv2Uf8Ak2H4S/8AYqaX/wCksdAHqtFFFABRRRQAUUUUAFFFFABRRRQAUUUUAFc94+8b6Z8OPCOp+JNYeRdPsIt7pBGZJZWJCpFGg5aR3ZUVRyzMoHWt814xprf8Ly+Kn9qZE3gTwTevFYFXymp6ym6OaUjo0drlo1/6bGQ9YVNAHQ/BrwTqmh2ep+JvFKx/8Jx4mkS61URPvjtEQFbeyjPdIEJXI4Z2lk6yGvR16ULnaM9aWgAooooAKKKKACiiigAryrw5/wAnTfEP/sTPDP8A6Xa9XqteVeHP+TpviH/2Jnhn/wBLteoA9VooooAKKKKACiiigAooooAKKKKACiiigAooooAKKKKACiiigAooooAKKKKACuU+Jvj61+Gng+91y5t5r+ZCkFlptqR59/dSMEhtogeC8jlVGeBnJwASOob7xrxrwev/AAuz4kN43nCzeDvDM01l4ZhZSVu7wborrUh2KgF7eE/3fPcZEqYAOo+D3gG+8F6DdXmvXEeoeMdduTqWuXyD5WnZQFgjPXyYUCwxj+6gJ+ZmJ79elC9KWgAooooAKKKKACiiigBO9eV/sn/8mt/B/wD7E/SP/SOKvVa8p/ZP/wCTW/g//wBifpH/AKRxUAerUUUUAFFFFABRRRQAUUUUAFFFFABRRRQAUUUUAI1FDUUALRRRQAUUUUAFFFFABRRRQAUUUUAFFFFABRRRQAV5b8afFGq3EmmeAPCl1JZ+LPEyyL/aNvtL6NYLgXF+Qf4l3LHGDwZZI8/KHx2vjbxhpnw/8K6r4j1mdrfTNNga4mZF3OQBwqKOXdjhVUcsxUAZNcb8GvBuq2qan418V26w+NfE5Sa6g+9/ZtmmTbaerdxErsWI4aWSVuhUAA7jwn4X0zwT4Z0zQNGtVstL06BLa3gX+FFGBknkk9Sx5JJJ5Na9IOlLQAUUUUAFFFFABRRRQAV5V+1j/wAms/GT/sTNZ/8ASGavVa8q/ax/5NZ+Mn/Ymaz/AOkM1AHqtFFFABRRRQAUUUUAFFFFABRRTG+9QBznxG8e6Z8M/B+oeIdVLtb2oVY7eEZmup3YJDbxL/FJJIyRqO7MBXO/BfwHqfhfS9R17xOY5PHPiWVL/WmhlMkVuwXbFZwsf+WMCfIp/ibfIeZGrnvDm743/E4+J5d7eBvCVzLa6JG2DFqmpAGOe/HqkH7yCI9C5nftG1ezr90UAKvSloooAKKKKACiiigAooooAK8q/ZR/5Nh+Ev8A2Kml/wDpLHXqteVfso/8mw/CX/sVNL/9JY6APVaKKKACiiigAooooAKKKKACiiigAoorC8beMNM+H/hXVfEesztb6ZpsDXEzIu5yAOFRRy7scKqjlmKgDJoA4r40+KNVuJNM8AeFLqSz8WeJlkX+0bfaX0awXAuL8g/xLuWOMHgyyR5+UPju/CfhfTPBPhnTNA0a1Wy0vToEtreBf4UUYGSeST1LHkkknk1w/wAGvBuq2qan418V26w+NfE5Sa6g+9/ZtmmTbaerdxErsWI4aWSVuhUD04dKAFooooAKKKKACiiigAooooAK8q8Of8nTfEP/ALEzwz/6Xa9XqteVeHP+TpviH/2Jnhn/ANLteoA9VooooAKKKKACiiigAooooAKKKKACiiigAooooAKKKKACiiigAooooAKKK5j4jePNN+GvhC/8Qan5kkVuFjhtYRma7ndgkNvEP4pJJGSNR3ZhQBxnxl1e98WatYfC7QLmW11PXIDc61f27FX03R9xSZ1cfdmmOYYj1BMsg/1Jr03RdHsvD2j2OlaZax2Wm2MCW1tbQrtSKJFCoijsAoAHsK4f4N+A9R8L6Tf614laKbxv4kmXUdalhcvFDJtCx2kLHnyYExGvqQznmRq9EXkUALRRRQAUUUUAFFFFABRRRQAleV/sof8AJrvwg/7FDSf/AEjir1WvKf2Tv+TXPhB/2KGk/wDpHFQB6tRRRQAUUUUAFFFFABRRRQAUUUUAFFFFABRRRQAjUUNRQAtFFFABRRRQAUUUUAFFFFABRRRQAUUUUAFNP3qdXmPxo8ZalZrpfgzwrOkfjbxQXhtJThv7OtE2/atQYdCIVddoPDSyQoeGJABjf8lt+K2P9Z4F8C33OchdR12M8f70VoD9DO3rb8+zCsTwT4O0v4feE9K8OaNC0OmabAsEIkYu7Y6u7HlnYkszHlmYk8mtygAooooAKKKKACiiigAooooAK8q/ax/5NZ+Mn/Ymaz/6QzV6rXlX7WP/ACaz8ZP+xM1n/wBIZqAPVaKKKACiiigAooooAKKKKACvJvjN4g1LxBqmm/DHwxeSWOva9C1xqOpQg50rSVYLPMGH3ZpM+TD/ALTM/IiYV2fxG8e6Z8M/B+oeIdVLtb2oVYreEZmup3YJDbxL/FJJIyRqO7MK534M+A9T8L6XqOveJzHJ458Syrf600Mpkit2C7YrOFj/AMsYE+QH+Jt8h+aQ0Adt4b8O6b4R8P6boejWUOm6Tp1vHaWlnbrtjhiRQqIo9AABWlSL0paACiiigAooooAKKKKACiiigAryr9lH/k2H4S/9ippf/pLHXqteVfso/wDJsPwl/wCxU0v/ANJY6APVaKKKACiiigAooooAKKKKACiiigBp+9XjX/Jbfitj/WeBfAt9znIXUddjPH+9FaA/Qzt62/Oz8aPGWpWa6X4M8KzpH428UF4bSU4b+zrRNv2rUGHQiFXXaDw0skKHhiR2Xgnwdpfw+8J6V4c0aFodM02BYIRIxd2x1d2PLOxJZmPLMxJ5NAG2KWiigAooooAKKKKACiiigAooooAK8q8Of8nTfEP/ALEzwz/6Xa9XqteVeHP+TpviH/2Jnhn/ANLteoA9VooooAKKKKACiiigAooooAKKKKACiiigAooooAKKKKACiiigAooooAY2d2eteM+Hlb42fFA+JpC7+B/CNzLaaJGcNFqepDMc9+P7yQZkgiPTeZ37RmtP4zeINS1i+034b+GLySx8Q+Io3kvNSh5bSdLQhbi5z/DI+4Qw5/5aPu5ET49E8NeHdM8I+HtN0PRbKLTdJ063S1tLSEYSGJFCqo+gAoA0V6UtFFABRRRQAUUUUAFFFFABRRRQAV5T+yf/AMmu/CD/ALFHSf8A0jir1avKf2T/APk134Qf9ijpP/pHFQB6tRRRQAUUUUAFFFFABRRRQAUUUUAFFFFABRRRQAjUUNRQAtFFFABRRRQAUUUUAFFFFABRRRQAVG+c8VJSN0oA+Y/B3ibxx4l8I6Hq9x8Qdahn1Cxgu5I4LLTRGjSRq5Cg2hOATxkk47mo7Pwvrlj4t1LxMnj7xA+t6hbw2kt1Lb6c5WCIsUijBtMIu53YhQMsxJzxhvws/wCSY+EP+wPZ/wDohK6ivZcIp7L7hFX7X4y/6KNr/wD4B6Z/8h0n2zxl/wBFG17/AMA9M/8AkOrdFLlj/KvuFcqfbPGX/RRte/8AAPTP/kOj7Z4y/wCija9/4B6Z/wDIdW6KOWP8q+5BcqfbPGX/AEUbXv8AwD0z/wCQ6PtnjL/oo2vf+Aemf/IdW6KOWP8AKvuC5y3jfxZ4+8K6CNRsPHuo3d2t5aQJDqNhYNA3m3McRDiO2RyMOfusp4HNey/Cn4rWvxI02WKWH+y/EViFXUdLd9xiY9HQ8b4mwSr45wQQGBA8U+K3/Iop/wBhTTP/AEugrIu7W7t9Ss9Y0e7/ALM1+xyba8C7lKnBaGRf44nwMr7AghgCIqUYzjorMaPr9fujFOrgPhT8VbX4kabLFLD/AGZ4hsdq6jpbvuMTHO10PG+J8Eq2OxBAYEDvV+6MV5couLsxjq8q/ax/5NZ+Mn/Ymaz/AOkM1eq15V+1j/yaz8ZP+xM1n/0hmpAeq0UUUAFFFFABUb5zxUlI3SgD5j8HeJvHHiXwjoer3HxB1qGfULGC7kjgstNEaNJGrkKDaE4BPGSTjua1/tnjL/oo2vf+Aemf/IdYXws/5Jj4Q/7A9n/6ISuor2XCCey+4RzWveF9c8Tatoeo6n4+8QXU2i3DXllG1tp3lRzlDGJSn2QKzqrsFJzt3kjB5G19s8Zf9FG17/wE0z/5Dq3RS5Y/yr7hXKn2zxl/0UbXv/APTP8A5Do+2eMv+ija9/4B6Z/8h1boo5Y/yr7kFyp9s8Zf9FG17/wD0z/5Do+2eMv+ija9/wCAemf/ACHVuijlj/KvuC5y3jfxZ4+8K6CNRsPHuo3d2t5aQJDqNhYNA3m3McRDiO2RyMOfusp4HNey/Cn4rWvxI02WKWH+y/EViFXUdLd9xiY9HQ8b4mwSr45wQQGBA8U+K3/Iop/2FNM/9LoKyLu1u7fUrPWNHu/7M1+xyba8C7lKnBaGRf44nwMr7AghgCIqUYzjorMaPr9fujFOrgPhT8VbX4kabLFLD/ZniGx2rqOlu+4xMc7XQ8b4nwSrY7EEBgQO9X7oxXlyi4uzGOooopAFeVfso/8AJsPwl/7FTS//AEljr1WvKv2Uf+TYfhL/ANippf8A6Sx0Aeq0UUUAFFFFJgeNfFbXvEUfxCsdJ0rxLfaDZf2W11Itlb2sjPJ5u0EmeGTjHYYrnvtfjIf81G17/wAA9M/+Q61/ih/yV6y/7ATf+lFU69WlGPIvdEVPtnjL/oo2vf8AgHpn/wAh0fbPGX/RRte/8A9M/wDkOrdFacsf5V9yFcqfbPGX/RRte/8AAPTP/kOj7Z4y/wCija9/4B6Z/wDIdW6KOWP8q+4LnM2fhfXLHxbqXiZPH3iB9b1C3htJbqW305ysERYpFGDaYRdzuxCgZZiTnjG59r8Zf9FG1/8A8A9M/wDkOrVFHLH+VfcFyr9q8Y/9FG1/8LPTP/kSqvwv+Omq6Rr2qaV411JtS0o6jJaWuuTxRRNauNoWOcRIibGJ4kwMNw3BBGoO9eW6RDHcXfieKVFkjfVLhWR1DBgQuQQexHboeaJU4Si1YZ9mL05pa+dvhf8AFCTwBNbaBr9w0nhmRlisNSmYs1gTwsMzHkxHgJIfu8K3GCPoheleVODg7MYtFFFQAUUUUAFFFFABXlXhz/k6b4h/9iZ4Z/8AS7Xq9Vryrw5/ydN8Q/8AsTPDP/pdr1AHqtFFFABRRRQAUUUUAFFFFABRRRQAUUUUAFFFFABUbZyakpDSA+c7bxJ4y1y81m4XxxqumxR6xqNpFa2dnYGKKOG8mhjAMls7H5Y1ySxyc/Sp/tnjL/oo2vf+Aemf/IdUfC/+r13/ALGHWf8A05XNbNeyoxtsvuEVPtnjL/oo2vf+Aemf/IdL9q8Zf9FF17/wD0z/AOQ6tUUcsf5V9wrnMaR4V1zQ/EWu69a+P/EP9r620JvbqW3052ZYY9kSKDafIiguQq4G55GxlyTufa/GX/RRtf8A/APTP/kOrdFHLHsguVPtnjL/AKKNr3/gHpn/AMh0fbPGX/RRte/8A9M/+Q6t0U+WP8q+4LnOeNPEnjjw54O13V7b4ha1Jc2FhPdRrNZaaULpGzKGAtASMjnBB9x1r0r4Q/GA+Mi+ga8kWn+LrWMu8cY2xXsQIH2iDJ6cgMmdyE4OQVY+YfFT/kl/jD/sD3n/AKIesHVtLGpfZ5YriWw1C0kE9nf252zWsoBw6Hp0OCDwwLBgQcVNSlGUdrDR9gL0pa8q+EHxfPjHfoGvJFYeLrWPe8acQ30QwPtEGT0yQGTOUJxyCrH1ReleVKLi7MYtFFFSAUUUUAJ3ryr9k/8A5Nd+EP8A2KOk/wDpHFXqteV/sn/8mu/CH/sUdJ/9JIqAPVaKKKACiiigAooooAKKKKACiiigAooooAKKKKAEaihqKAFooooAKKKKACiiigAopK8Q/aC/bK+FP7NlvIvi7xHHJrm0ND4f0vFxqEuRlf3YIEYYZw0hRTjrQB7hRWV4U1e58QeF9H1S90y40S8vbOG5m0y7IM1o7oGaF8cbkJKnHGQa1aACkbpS0jdKAPl34Wf8kx8If9gez/8ARCV1IrlvhZ/yTHwh/wBgez/9EJXUV7kt2QfIXjTwzpn7SH7UXjXwl4/utQl8BeBdJtLqPw7DdSwW95NMhd7mTyiHbYDgYOcjGeSD594V1D4S2PwW+PmkfCf4hapr+iS+Hrq/g8L3VtdJbaSnlMrtG88YZizns2cYyGK7q+lfi1+zre+MvHVl488E+Nrz4c+OYLb7BPqVvZx3tveWuSQk1vIQrlSflYnj0JCleb0n9kO7k0j4h3Xij4hah4r8b+NNHfRbrXriwigt7aArhPKtIzhccZG/BxkAZOeZxlfRAfD2i6H4A1bwT4E8N+Avhl4w8OfHbVILO50rxJf3EllaXEiEPNdQtJdbWQqkmCsYB4xg19lfDNJ4/wBvT4kpcuslyvhHTRK6DAZ/3e4gfXNdL42/ZJsPGfwQ8FeCTr7af4i8Hx2p0jxVDZ5lt5oQoLiLf0YLym/qFPVRT/Hn7NvijXfHGm+OvCnxNm8EeOP7Kj0nV7+DRoru01GNfmDfZpHIRt2T958AADkZMqMo2GjA/ZOhZfjJ+0ZLj5W8VqoPuEcn/wBCFfTdeXfAL4Gw/A/QNWin1u68UeIddv31TWNauo1iN1cP1KxqSEXHRcnqeR0HqPPfrW8E1HURyHxW/wCRRT/sKaZ/6XQVWqz8Vv8AkUU/7Cmmf+l0FVqt7DRRurW7t9Ss9Y0e7/szX7HJtrwLuUqcFoZF/jifAyvsCCGAI+jPhT8Q1+JHhl72WzbTtTs5zZahZ7w4huFRXIVv4kKyI6kgHa4yAcivAa1fh98afA/wP8IePNc8deJrDw5p3/CRfIbuT95ORptjlYolBeRgOdqAmuSvG8bvco+nRXlf7WP/ACaz8ZP+xM1n/wBIZqk/Z7+O+m/tG+A5fGeh6Rqel+Hpb+a00641REje/ii2q1wiqx2oZPMQAnP7s5x0qL9rD/k1f4x/9iZrP/pDNXnAerUUUUwCiiigApG6UtI3SgD5d+Fn/JMfCH/YHs//AEQldSK5b4Wf8kx8If8AYHs//RCV1Fe5LdkHyF408M6Z+0h+1F418JeP7rUJfAXgXSbS6j8Ow3UsFveTTIXe5k8oh22A4GDnIxnkg+feFdQ+Etj8Fvj5pHwn+IWqa/okvh66v4PC91bXSW2kp5TK7RvPGGYs57NnGMhiu6vpX4tfs63vjLx1ZePPBPja8+HPjmC2+wT6lb2cd7b3lrkkJNbyEK5Un5WJ49CQpXm9J/ZDu5NI+Id14o+IWoeK/G/jTR30W6164sIoLe2gK4TyrSM4XHGRvwcZAGTnmcZX0QHw9ouh+ANW8E+BPDfgL4ZeMPDnx21SCzudK8SX9xJZWlxIhDzXULSXW1kKpJgrGAeMYNfZXwzSeP8Ab0+JKXLrJcr4R00SugwGf93uIH1zXS+Nv2SbDxn8EPBXgk6+2n+IvB8dqdI8VQ2eZbeaEKC4i39GC8pv6hT1UU/x5+zb4o13xxpvjrwp8TZvBHjj+yo9J1e/g0aK7tNRjX5g32aRyEbdk/efAAA5GTKjKNhowP2ToWX4yftGS4+VvFaqD7hHJ/8AQhX03Xl3wC+BsPwP0DVop9buvFHiHXb99U1jWrqNYjdXD9SsakhFx0XJ6nkdB6jz361vBNR1Ech8Vv8AkUU/7Cmmf+l0FVqs/Fb/AJFFP+wppn/pdBVarew0Ubq1u7fUrPWNHu/7M1+xyba8C7lKnBaGRf44nwMr7AghgCPoz4U/ENfiR4Ze9ls207U7Oc2WoWe8OIbhUVyFb+JCsiOpIB2uMgHIrwGtX4e/GnwP8D/CPj3W/HXibT/Denf8JF+7a8k/eTEabYkrFEoLyMBztRWOOcVyV43jd7lH06KWvLv2e/jtpf7RngSTxloOk6ppvh6S/mtNOuNVRI31COParXCKrNtQyeYgzz+7OQOg9QXoK84Ba8q/ZR/5Nh+Ev/YqaX/6Sx16rXlX7KP/ACbD8Jf+xU0v/wBJY6YHqtFFFABSUtJSYHiPxQ/5K9Zf9gJv/SiqdXPih/yV6y/7ATf+lFU69el8CJZ5J+1h8RNU+Ff7PfjPxJobNFq9rarHbTqoYwvJIsYkwQRld5bkH7or5b+JPwV+Avwd8NeENT8T/EDXvCfxM1RI9Wh8cpJf3t7dyAq07kRh4xuEm0HAPKnL/Nu+6PGHhPS/HnhXVfDutWwu9K1S3e0uYScbkcYOD2PoRyCAe1fNt3+xr411TwuPAuofHbXLr4YDEH9hnRrZb02qnckJvsljjCjlMYGNoHAUk29hHh/7SE3gLXv2rdL1Hxj4R8SfE3wq3gO3vkh0CCU3OPNZhdSrG8JVAhO4kgAuPlHGMvQtLST9lv8AaB8SeDtOvvD/AMH9XgtT4b0jUbwTzRyxyLHdSbfMkMeXXkMxJAHOBX2dof7PFr4f+Oen/EC01hhZ2PhePwxFo8ltuPlo4YSmbzOTgAFdnvmud8N/sh6V4bufiXpEOtSf8K78cxs8/heO1CNYXDgB5oJ95wDzhDHgYTnC4Ofs5XuNHnP7VEL3H7IfwrijXLvqPh5VX1JjAH+fevsevlvSf2N/FN9N4R03xv8AGHUPGPgnwvdw3lh4f/saCzYvCMQCW5Vy8iqMA7hz6qSDX1J04rWCfUbAd68v0L/kIeJP+wvcfyWvUB3ry/Qv+Qh4k/7C9x/Ja26CRrTwpcQyRSIskbqVZHUMGB6gg9iO3Q812Hwl+JFz4P1TT/CerPNeaNeyi20m7OZJLSQglbaTu0eFOxzyuNrcYNcjTbH/AJHbwV/2HIP/AEF6wnFSi7lH1ovSlpKWvJAKKKKYBRRRQAV5V4c/5Om+If8A2Jnhn/0u16vVa8q8Of8AJ03xD/7Ezwz/AOl2vUAeq0UUUAFFFFABRRRQAUUUUAFFFMbg0APor56+NH7cXwz+D/iC18KJqEnjDx/e3UdjaeFPDpSe7e4kcIkcjkiOE7mXh2DYOQrV9CDpQAtFFFABSGlpDQB81+F/9Xrn/Yw6z/6crmtqsXwv/q9c/wCxh1n/ANOVzW1XtR6Es+Wfj3Yt8aP2mfB/wf1rUNQsvA7aJNr2p6fZTmFdXZZdiQSMpDbBt3EA+/BAYcp8D7f4IeC/jR4p0L4WePdUtZZ9OubW58CCC8az+1QBhLP51whBYBMcPnrglTtr3n43fANfive6Dr+j+JL3wT448Puz6V4gsI1m8tXx5kcsLYEsbAfdJHvkEg814E/Zj1uw+IQ8dePviVqPxA8UWthLpmnyf2bBptpaQSqQ/wC4iJDPyfm3LkHBBwMYOLvsB+ePgO1+E7fA3TrPVfhZ4tvPibrslzY6H4pSSS10ye9aVlg2StcrGdhMYb5CAQc+tfYOh6Z4g0X9rL4B2Hiu5+2eJbbwHcRajOZPMLzhHDkv/Ec5y3c5Neg6T+xrosf7Lw+Dmtaz/a8cTTT2+tLZ+TJbztK0kcqx72xtLYI3/MMjgGpPFH7L/iPxFpHgDUbf4m3OkfErwfbPZweLbfSkdLuBwFZJrV5GV2IC/MXxncSOQBPJKOoGT8P4Xb9vz4qSY/dr4X05C3oSUx/I/lX03+lePfA39n+6+FviLxR4r8R+L7rxz418RGNL3WJrKOyRYYlxHHHBGSE98HnA4GOfYa2imlqI5f4qf8kv8Yf9ge8/9EPWfWh8VP8Akl/jD/sD3n/oh6z60lsNFHVdLGpCCWK4lsNQtJBPZ39uds1rKAcOh6dDgg8MCwYEHFe6/Bn4l3fjywvtO1i3S18R6SIheGAfuZ0k3iOeMZJVX8twUPKsjDkAMfGK7X9nj/ko3jj/ALBWk/8Ao7UK5a0U6bb6FHvq0tJS15oBRRRTASvK/wBk/wD5Ne+EX/YpaV/6SRV6pXlX7J//ACa78Iv+xS0r/wBJIqAPVqKKKACiiigAooooAKKKKACiiigAooooAKKKKAEaihqKAFooooAKKKKACiiigBjZOQK+SP2oP+Ca/wAMf2jL6/8AEVss3gzxxdM0r6xpyeZDcydmuLcna57koUZj1J6V9dUUAeLeF/2SfhTa+GdIh174VfD2912OzhS/urPwvaRQzXAQCV0Xy8qpfcQOwIrT/wCGVfgwvyj4T+C1Q8lF0C1AJHQ48vqMnntk+terUUAeUj9lH4K/9Ek8E/8AhP2v/wAbpG/ZS+C2Tj4SeCf/AAn7X/4ivV6aepoA+XvhX/yTHwh/2B7P/wBEpXUV5tfeB/EXwu1i18Lah4t1e10sqItDvYYLIQzwouFgJe3YrMijkMx3gbgT8yre/sHW/wDodtcH/bvYf/Ite5eMtYsg7uiuE/sHW/8Aodtc/wC/Fh/8i0f2Drf/AEO2uf8Afiw/+RaPmB3dFcJ/YOt/9Dtrn/fiw/8AkWj+wdb/AOh21z/vxYf/ACLR8wO7orhP7B1v/odtc/78WH/yLR/YOt/9Dtrn/fiw/wDkWjTuBc+K3/Iop/2FNM/9LoKrVm674N1jWNNe3fxfqlwVkjnjju7e0MRkjkWSMuI4UYrvVcgMM469ah8P6+2pST2V7B9h1i0wLqzJ3bc9JEb+NGwcNgZwQQCCKGrrcaNisOz/AGRfhr+1J4d8bW/jfR3fUbXXfLstasJfJvbQHT7EkI+CGGcna6suSTjNblel/szf8ePjz/sYh/6brGuOv8DKOC/Z7/YH+Hnwl8By+GvFvhTwX8Q5bW+mew1rUvCtqb02j7XWO4d1cySK7SAPnlQgwMYEn7TX7M3wf0H9m/4r6ppnwp8E6dqNn4T1a5try08O2cU0EqWcrJIjrHlWVgCGBBBGa+oK8r/ax/5NZ+Mn/Ymaz/6QzV5wDV/ZP+CO0Z+Dfw//APCXsf8A41S/8Mn/AAQ/6I38P/8Awl7H/wCNV6tRTA8p/wCGT/gh/wBEb+H/AP4S9j/8ao/4ZP8Agh/0Rv4f/wDhL2P/AMar1aigDyn/AIZP+CH/AERv4f8A/hL2P/xqmt+yj8ERn/izfgDIH/Qr2P8A8ar1imnqaAPl74V/8kx8If8AYHs//RKV1FebX3gfxF8LdYtvC2oeLdXttLKiLQ72GCyEM0KLhYCXt2KzIo5DMd4G4H7yre/sHW8n/ittc/8AAew/+Ra9y8ZapkHd0Vwn9g63/wBDtrn/AH4sP/kWj+wdb/6HbXP+/Fh/8i0fMDu6K4T+wdb/AOh21z/vxYf/ACLR/YOt/wDQ7a5/34sP/kWj5gd3RXCf2Drf/Q7a5/34sP8A5Fo/sHW/+h21z/vxYf8AyLRp3AufFb/kUU/7Cmmf+l0FVqzdd8G6xrGmvbv4v1S4KyRzxx3dvaGIyRyLJGXEcKMV3quQGGcdetQ+H9fbUpJ7K9g+w6xaYF1Zk7tuekiN/GjYOGwM4IIBBFDV1uNGxWFa/sjfDX9qTw542t/G2ju2pWuu+XZa1YS+Te2gOn2JwrYIZc5OyRWXJJxmt2vS/wBmb/jx8ef9jEP/AE3WNcdf4GUcH+z3+wP8PfhL4Cl8M+LPCvgv4hS2t/M+n61qPhe1+2taPtdY7h3VzJIjtIN+eVCDAxgenL+yh8E8f8kg8CD/ALluz/8Ajdeq0tecB5Qf2UfgoP8AmkXgYf8Acu2g/wDadea/sz/sz/CPXv2dfhhqWo/DHwjfajd+GtOnuLy40S2eaWRraNmdnKbixJJJPOTX1DXlX7KP/JsPwl/7FTS//SWOmAn/AAyj8Fv+iS+Cj9dAtT/7JS/8Mo/BX/okngn/AMJ+1/8Ajdeq0UAeVf8ADKPwV/6JJ4J/8J+1/wDjdH/DKPwW/wCiSeCf/Cftf/jdeq0UAfNesfDPwj8M/irHa+EvC+keGLa60bzJ4dIsY7ZJWE+AWEajJweprZHQVp/Hr4c69rN5Z+KPDmp30F3Y27W13YWMUDy3FuW35i82Nx5innb/ABDgYOM+U6fY6lqlnFd2njzWpreUZR1gsPpg/wCi8EHgg8ggivVotSgtSWeh0Vwn9g63/wBDtrn/AH4sP/kWj+wdb/6HbXP+/Fh/8i1v8xHd0Vwn9g63/wBDtrn/AH4sP/kWj+wdb/6HbXP+/Fh/8i0fMDu6K4T+wdb/AOh21z/vxYf/ACLR/YOt/wDQ7a5/34sP/kWjTuB3Y715foX/ACEPEn/YXuP5LWr/AGDrf/Q765/4D2H/AMjVz32W58CXs8l9dy6jpOoXHnPqVwEElvM+ARKEVV2McYcKMHg9Qae+lxo6Sm2P/I7eCv8AsOQf+gvTuvtWbqmm3Gs6r4dsLTUbjR7q71JIIdRtAhmtXaOQLKgcFSyE7gGBGQMgjisZfCyj6h8Q/ETwv4T1zRNF1nxBpul6trU32fTbG7uUjmu5ME7Y1Jy3THHcgdSAejXpX5keBf2DPjH8I/2vdE8Z33jXWvGekak9xbP43017N9W0zfAwEk0WoRzIFIBQmPcdrYByQjfcS/BvxdtH/F9fiAPb7D4e/wDlVXkAerUV5V/wpvxd/wBF2+IH/gD4e/8AlVR/wpvxd/0Xb4gf+APh7/5VUAeq0V5V/wAKb8Xf9F2+IH/gD4e/+VVH/Cm/F3/RdviB/wCAPh7/AOVVAHqteVeHP+TpviH/ANiZ4Z/9Lteo/wCFN+Lv+i7fED/wB8Pf/KqvM9D+E/ih/wBpDx1aD4zeOEni8J+H5XvlstCM0ytea0FiYHTPLCoUYqVQMTK+5mAQIAfUNFeUj4N+Lv8Aou3xA/8AAHw9/wDKqu48J+H7/wAN6MtlqPiXVPFdyHZjqWrx2kc7A9FItoIY8Dt8meeSaAN6iuc8WeGdS8R/YP7P8Wax4W+zTebL/ZMVk/2tf+ecn2m3mwvvHsbn71H/AAjWo/8ACZf21/wlmsf2b5Plf8I75Vn9h3Y/1m77P9o3d/8AXbf9nHFAHR0Vxtn4H1q10XW7KX4heJLy51By9tqM1vpgn00H+GAJZrGwH/TZJT70XvgfWrrR9FsoviF4ks7mwcNc6jDb6YZ9SXP3Zw9m0aj/AK4pGfegDsqKRelLQAUxs7qfRQB8UfHD/glz8N/HniqHxn4HitfBfiu3vFv2srmzF7ot/Irhyk9o5GFbG0iMhcE5Rq+gf+GUfgmf+aQeBR/3LdmP/aderUUAeU/8MofBTp/wqPwOPp4etB/7ToX9lH4KgY/4VJ4J/wDBBa//ABFerUUAeVf8Mo/BX/okngn/AMJ+1/8AjdMb9lP4Lf8ARJfBP/ggtf8A43XrFMbkmgD5j8A6TZaDo+oaZp1pBYafZ63q1vbWlrGI4oYk1G4VERRwqqAAAOABiukri/iN4L1/4c+L72aTxNqll4S1m/mubS5tILQpZ3NxK0jwTGSFyA0jtsfdg7gmAQu6A6FrZP8AyO+uf+A9h/8AIte1FqUU0yWd3RXCf2Drf/Q7a5/34sP/AJFo/sHW/wDodtc/78WH/wAi1XzEd3RXCf2Drf8A0O2uf9+LD/5Fo/sHW/8Aodtc/wC/Fh/8i0adwO7orhP7B1v/AKHbXP8AvxYf/ItH9g63/wBDtrn/AH4sP/kWjTuBp/FT/kl/jD/sD3n/AKIes+qWreDtT1vSbzTrvxnrUtpdwvBNGYLHDIylWHFsDyDjgg+hHWs/Rdaukvn0bWkSDWYk3K8WfKvI+nmxZ+o3KSSpPuCRrTRjRu12v7O//JRvG/8A2CtJ/wDR2oVxXpXa/s7/APJRvG//AGCtJ/8AR2oVzVv4cij2zX/EGl+FdJu9W1rUrPR9KtE8y4vr+dYYIV/vO7EBR7k1wvwb/aC8FfH9fEU/ga+uNZ0zRLwWE+qLayR2s02wMyQu4HmbQVzgY+ZTyCCed/ak/ZJ8FftY+GbLS/Fj6hZ3emmR9O1HTbkxvbvIFDZQ5jkB2LwykgAhSu458o/ZW/YN/wCFK+FNb8LeL9Vm12wh1Fp9G1TQvEGqaZJLbug3LcWsMqRxuHBwVZyQ3J+UZ8wD7EFLXlI/Zo8GdVvvG0R/6Z+PteT+V6KP+GbPCy/c134gJ/3ULXm/9CvDQB6rXlf7KH/Jr/wj/wCxS0r/ANJI6Yf2c9CXGzxT4/j/AO531V//AEK4Neb/ALMvwLstW/Zz+F1//wAJf44spLnwxpsxhtPE10kMZa1jO1I921VGcAAYAoA+oKK8p/4UBGPufEL4gRn/ALGGRv8A0JTR/wAKGuF+58TviBH/ANxWJv8A0KE0AerUV5T/AMKN1RfufFr4gR/9vdi3/oVoaP8AhSfiBfufGf4gR/8Agob/ANC080AerUVwXhL4da54Z1pby/8Aid4s8U2yoynTdXg0pYGJ6MWt7GKTI9nxzyDXeCgBaKKKACiiigAooooAKKKKAEaihqKAFooooAKKKKACiiigAooooAKKKKACiiigDE8X+EtL8caHc6PrFst1Y3AG5clWRgQVdWHKupAKsCCCAR0r501LTdU+HeuxeH/EEzXUc5I0vWmUKt8oBPlyYACzqMkjgMAWXjcqfU1Yni/wlpfjjQ7nR9YtlurK4A3LkqyMCCrqw5V1IBVgQQQCOlbUqjpuz2A8CorN1ax1f4da8vh3WYb/AFxnjafTdR02xlupbyBCoYyxQqzJIhdFZtuw+YpBBYorf7bk/wChe8Vf+EvqP/yPXo80XsyDUorM/tuT/oXvFX/hL6j/API9H9tyf9C94q/8JfUf/kenddxmnRWZ/bcn/QveKv8Awl9R/wDkej+25P8AoXvFX/hL6j/8j0XXcDTrn/FnhRfECQ3VtN9g1m0ybS+Aztz1Rx/FG2MFfYEEEA1d/tuT/oXvFX/hL6j/API9H9tyf9C94q/8JfUf/kejmS6iOf8AD/iBtTeeyvbf7BrFpgXVmTnbnpIh/iRsHDcdCDhga9j/AGZf+PDx3/2MQ/8ATdY1454q09vECQ3Vroviqw1m0ybS9HhbUjtz1RwIBujbuv4jBANet/sqx6w3hXxRea1ol9oFxe64ZVtdQtpIGZFsrSIuqyKrFC0b4JA6dBWOIs4aFo9vryv9rH/k1n4yf9iZrP8A6QzV6ovSvK/2sf8Ak1n4yf8AYmaz/wCkM1eYB6rRRRTAKKKKACiiigDE8X+EtL8caHc6PrFst1Y3AG5clWRgQVdWHKupAKsCCCAR0r501LTdU+HeuxeH/EEzXUc5I0vWmUKt8oBPlyYACzqMkjgMAWXjcqfU1cj4nh8J/ER9X8Eajd2WoXsdvFc3emJcL9qtkct5M2FO+M7kJVxggrkHitqdR03Z7AeK0VW1TQfEXw/1CXStX0/VNetF5stZ0vTZrs3MZPCzJAjGOVe5ICtwwIyVFX+3JG5/4R/xUff/AIRfUf8A4xXo80XsyDTorM/tuT/oXvFX/hL6j/8AI9H9tyf9C94q/wDCX1H/AOR6d13GadFZn9tyf9C94q/8JfUf/kej+25P+he8Vf8AhL6j/wDI9F13A065/wAWeFF8QJDdW032DWbTJtL4DO3PVHH8UbYwV9gQQQDV3+25P+he8Vf+EvqP/wAj0f23J/0L3ir/AMJfUf8A5Ho5kuojn/D/AIgbU3nsr23+waxaYF1Zk5256SIf4kbBw3HQg4YGvY/2Zf8Ajw8d/wDYxD/03WNeOeKtPbxAkN1a6L4qsNZtMm0vR4W1I7c9UcCAbo27r+IwQDXrf7KsesN4V8UXmtaJfaBcXuuGVbXULaSBmRbK0iLqsiqxQtG+CQOnQVjiLOGhaPb6WkXpS15gBXlX7KP/ACbD8Jf+xU0v/wBJY69Vryr9lH/k2H4S/wDYqaX/AOksdMD1WiiigAooooAY3WvG/if8L7nT7y68UeF7Zp5ZSZdT0aEf8fXrPCOgmA6r/wAtB/tAE+z0xupq4zcHdAfMOn6hbarZxXdpKs9vKNyOvf6+hB4IPIIIwKs12PxO+F9zp95deKPC9s08srebqmjwjH2r1nhHab1X/loPRsE+d/23J/0L3ir/AMJfUf8A5Hr0YTU1ck06KzP7bk/6F7xV/wCEvqP/AMj0f23J/wBC94q/8JfUf/ketLruBp0Vmf23J/0L3ir/AMJfUf8A5Ho/tuT/AKF7xV/4S+o//I9F13A06ZNDHcQyRSxrNFIpV42AZWB4wQev06EVn/23J/0L3ir/AMJfUf8A5Ho/tuT/AKF7xV/4S+o//I9K67gcxNDJ4DmSKZ2l8NuwWG4kJY2JPAjkPeI/wuen3W4wa3bHP/CbeCc9f7bg/wDQXqebVvtEMkUvhvxRLFIpV438LaiysDwQQbfB+nTFc94P0nWbT4jeErCy0LxHPoUeqRXEdxe6HewCxRQwKPJLEoMfzfKScr0PY05NOL1KR9nUtIvSlrxwCiiigAooooAK8q8Of8nTfEP/ALEzwz/6Xa9XqteVeHP+TpviH/2Jnhn/ANLteoA9VooooAKKKKACiiigAooooAKKKKACiiigAooooAKKKKAKGtaTZ6/pt1puo2sV7YXUTQz286BkkQjBUg9QQa+bvFPhe8+EOqRWl5LNe+ErqURafqkxLPaMxwtrcN354jkJ+bhWO7Bf6gqhrOk2ev6bdabqNrFe2F1E0M9vOgZJEIwVIPUHNa06jgwPnWlqt4q8MX/wi1i306Vb7WvDl/IYtJuYIZLq8icKz/ZZEQNJIQiuyyKCdqHfyu5qv9uSH/mXvFX/AIS+pf8AyPXoqSkrog06KzP7bk/6F7xV/wCEvqP/AMj0f23J/wBC94q/8JfUf/kequu4zTorM/tuT/oXvFX/AIS+o/8AyPR/bcn/AEL3ir/wl9R/+R6LruBp1keJvDNr4nsFgnZ4J4X822u4SBLbyDgOp9ecEdCDgggmpP7bk/6F7xV/4S+o/wDyPR/bcn/QveKv/CX1H/5Ho5kuoHNaLrV0l9JoutKkOtRrvWSMYivI8482LPuRuTJKk+hBPqX7O/8AyUbxvjp/ZWkf+jtQrzrxNaweJrFYJ9B8WwTxN5ttdw+GdSEtvIOA6H7P1wcEdCCQQQTXbfsrw+IJPE/jS817RNQ03/Q9OtI7q80+ezjvWjkvGZ40mVWHEqZB6E4yRgnOs06bYz6NopBS15YwooooASvKv2T/APk1/wCEf/Yp6X/6SR16r3ryr9k//k174R/9inpf/pJHQB6tRRRQAUUUUAFFFFABRRRQAUUUUAFFFFABRRRQAjUUNRQAtFFFABRRRQAUUUUAFFFFABRRRQAUUUUAFMbv+VPooA/Kv4yeJv2gtR/bt0n4qaD8P/EEvh3w7HeQaVobRiK71HRrSaGDUJEtWYSOZXvEaP5CSJIiA3lHH6m2Vwt5ZwXCpJGsqLIEmjMbqCMgMp5U+oPINeY+I/8Ak6b4ef8AYmeJv/S7Qa9VoASilooASilooASilooASloooAK8q/ax/wCTWfjJ/wBiZrP/AKQzV6rXlX7WP/JrPxk/7EzWf/SGagD1WiiigAooooAKKKKAKuoXElrZ3M8NtLeyxRs6WsBQSTEDIRS7KoJIwNzAepA5r8uvgj4J/aR8O/tu6n8V9c8Nrdz619ifxJ4ctdQie4stKv5Z4bZfmIVhb/ZFYgMSFjXd/GR+p9eU+Efm/aW+Jh9PD3h9Pym1Q/8As1AHqq/dFFFLQAlFLRQAlFLRQAlFLRQAlLRRQAUUUUAFeVfso/8AJsPwl/7FTS//AEljr1WvKv2Uf+TYfhL/ANippf8A6Sx0Aeq0UUUAFFFFABRRTWoAdSV+bXxj/wCCj03gb9vjRvDNvf7fhZoTNoOvlSPKe5lYCa5J9LaQRqe4EcwH36/SRCGUEEEdsdKAFopaKAEopaKAEopaKAEopaKACiiigAooooAKKKKACvKvDn/J03xD/wCxM8M/+l2vV6rXlXhz/k6b4h/9iZ4Z/wDS7XqAPVaKKKACiiigAooooAKKKKACiiigAooooAKKKKACiiigApjfex/Kn0UAfmJ+31J8eviF+0t4Fn+HXhTVLfRvBeqLBoVzcAW0eq6sLWS+naJZGQzRC3tXTIBUmKRASZAD+jXw98UzeOPAug+ILnSL7QLnUrKK5m0nVIHhubORlBeGRGAIZWyvTnGRwa4v4yf8lG+BP/Y53P8A6j2s16rQAlFLRQAlFLRQAlFLRQAlLRRQAUUUUAFFFFACd68q/ZP/AOTXvhH/ANinpf8A6SR16qa8q/ZP/wCTX/hJ/wBinpf/AKSx0AerUUUUAFFFFABRRRQAUUUUAFFFFABRRRQAUUUUAI1FDUUALRRRQAUUUUAFFFFABRRRQAUUUUAFFFFABRRRQB5V4j/5Om+Hn/YmeJv/AEu0GvVa8q8R/wDJ03w8/wCxM8Tf+l2g16rQAUUUUAFFFFABRRRQAUUUUAFeVftY/wDJrPxk/wCxM1n/ANIZq9Vryr9rH/k1n4yf9iZrP/pDNQB6rRRRQAUUUUAFFFFABXlPgv5v2jfig3/UH0FPyN+f/Zq9WrynwL837QnxVb0sdET8kuj/AOzUAeq0tJS0AFFFFABRRRQAUUUUAFFFFABRRRQAV5V+yj/ybD8Jf+xU0v8A9JY69Vryr9lH/k2H4S/9ippf/pLHQB6rRRRQAUUUUAFNbk06igDwXxB8OfCUPx/8GeHU8LaKnh/UPCHimS70ldPhFpcNJf6E0jSRbdrlm5JYcnk17ra2sNjaw21vDHb28KCOOGJQqIoGAqgcAADpXl/iT/k6T4ef9id4l/8AS3Q69VoAKKKKACiiigAooooAKK4D4sfELV/A7+ErHQNCtPEGteJNXbSbW31DUmsLdGWyurxneVYZmA2WbqAEOWZeQMmshfE/xqx/yTrwSf8AueLv/wCVNAHq1FeVf8JR8av+ic+Cf/C4uv8A5U0f8JR8av8AonPgn/wuLr/5U0Aeq0V5V/wlHxq/6Jz4J/8AC4uv/lTR/wAJR8av+ic+Cf8AwuLr/wCVNAHqtFeVf8JR8av+ic+Cf/C4uv8A5U0f8JR8av8AonPgn/wuLr/5U0Aeq15V4c/5Om+If/YmeGf/AEu16j/hKPjV/wBE58E/+Fxdf/Kmk+G3hrxm3xS8XeMvF+l6Loj6no2laRbWGj6tLqAxaT6hK0jySW0G3d9uUBQrfcJzzgAHq1FIvSloAKKKKACiiigAooooAKKKKACiiigAooooAKKKKACiiigDyr4yf8lG+BP/AGOdz/6j2s16rXlXxk/5KN8Cf+xzuf8A1HtZr1WgAooooAKKKKACiiigAooooAKKKKACiiigBK8q/ZP/AOTX/hJ/2Kml/wDpLHXqteVfsn/8mv8Awk/7FTS//SWOgD1aiiigAooooAKKKKACiiigAooooAKKKKACiiigBGooaigBaKKKACiiigAooooAKKKKACiiigAooooAKKKKAPKvEf8AydN8PP8AsTPE3/pdoNeq15V4j/5Om+Hn/YmeJv8A0u0GvVaACiiigAooooAwPG/jbR/h34bude165ktNNgkiiaSG2luJGkllSKJEiiVndnkkRQqqSSwwK4hf2mPBuBmx8bA/9iDr3/yFR+0x/wAkzsf+xr8Mf+n6wr1agDyn/hpjwZ/z5eNv/CB17/5Co/4aY8Gf8+Xjb/wgde/+Qq9WooA8p/4aY8Gf8+Xjb/wgde/+Qq4D9oD42aB48+A/xJ8NaHpHjW91rWvDWpadY2zeBtbiE1xLayRxpvezCLlmUbmIAzkkAV9K0UAJS0UUAFFFFABRRRQAV5V8P/m+PXxab/pjo6flBKf/AGavVa8p+HXzfHL4vN/t6Sn5WhP/ALNQB6tRSUtABRRRQAUUUUAFFFFAHK/ED4kaB8M7LT7vX57yNdQuxY2kOn6fc31xcT+VJLsSG3jeRiI4ZXOFwFRielcmP2mPBn/Pl42/8IHXv/kKl+Mn/JRvgT/2Odz/AOo9rNeq0AeU/wDDTHgz/ny8bf8AhA69/wDIVH/DTHgz/ny8bf8AhA69/wDIVerUUAeTt+0t4MOf9B8bY9f+EB13/wCQqvfsz6Te6D+zr8MNM1Kzm0/UbPw1p1vc2lzGY5YZEto1ZHUgFWBBBB5BFelUUAFFFFABRRRQAUUUUAeVeJf+TpPh3/2J/iT/ANLdDr1WvKfEv/J0nw7/AOxP8Sf+lmh16tQAUUUUAFFFFABRRRQB5V8ZP+SjfAn/ALHO5/8AUe1mvVa8q+Mn/JRvgT/2Odz/AOo9rNeq0AFFFFABRRRQAUUUUAFFFFABRRRQAUUUUAFFFFABRRRQAUUUUAFFFFABRRRQAUUUUAFFFFAHlXxk/wCSjfAn/sc7n/1HtZr1WvKvjJ/yUb4E/wDY53P/AKj2s16rQAUUUUAFFFFABRRRQBgeN/G2j/Dvw3c69r1zJaabBJFE0kNtLcSNJLKkUSJFErO7PJIihVUklhgVxC/tMeDcDNj42B/7EHXv/kKj9pj/AJJnY/8AY1+GP/T9YV6tQB5T/wANMeDP+fLxt/4QOvf/ACFR/wANMeDP+fLxt/4QOvf/ACFXq1FAHlP/AA0x4M/58vG3/hA69/8AIVH/AA0x4M/58vG3/hA69/8AIVerUUAeTt+0t4MLf8ePjbHr/wAIDrv/AMhVd/Zn0m90H9nX4YaZqVpPp+o2fhrTre5tLmMxywyLbRqyOpAKsCCCD0Ir0uigAooooAKKKKACiiigAooooAKKKKACiiigAooooARqKGooAWiiigAooooAKKKKACiiigAooooAKKKKACiiigDyrxH/AMnTfDz/ALEzxN/6XaDXqh5ryvxH/wAnTfDz/sTPE3/pdoNepmgBaWo27mvHvDF/4k1zw3pOpTeL9UimvLSK4dIbey2KzoGIXNuTjJ4yTW1KjKre3QxqVFT3R7LRXlvk6/8A9DnrH/fix/8Akejydf8A+hz1j/vxY/8AyPXR9Un3Rl9ZXZ/gR/tMf8kzsf8Asa/DH/p+sK9WrxfxN4QvPGOmpp+r+KdYu7NLu1vVj8u0TE1vcR3EL5WAfdlijbB4O3BBBIOt5Ov/APQ56x/4D2P/AMjUfVJ90H1ldn+B6lRXlvk6/wD9DnrH/fix/wDkejydf/6HPWP+/Fj/API9H1SfdB9ZXZ/gepU2vL/J1/8A6HPWP+/Fj/8AI9Yvi7VPFPh3RTf2fiy+uLlbi3iSO9trQwt5k0ceGCQq2MMejA+9H1Ob0ug+sR7HtXelrkfAPj638aWcqOn2LV7XaLyxZsmPPR1P8SNg4bjuCAQQOuX7orjlFwlyy3OmMlJXQtFFFSUFFFFABXlXwz+b41fGJvS90tPy0+I/+zV6rXlPwu+b4w/Gdv8AqLacn5aXbH/2agD1UdKDzRSGgBaWo27mvHvDF/4k1zw3pOpTeL9UimvLSK4dIbey2KzoGIXNuTjJ4yTW1KjKre3QxqVFT3R7LRXlvk6//wBDnrH/AH4sf/kejydf/wChz1j/AL8WP/yPXR9Un3Rl9ZXZ/gepUV5b5Ov/APQ56x/34sf/AJHo8nX/APoc9Y/78WP/AMj0fVJ90H1ldn+Az4yf8lG+BP8A2Odz/wCo9rNeq14vrXg+88Q6loV9f+KdXnu9DvG1DTpPLtF8m4a3mti+Ft8N+6uZlw2V+fONygjW8nX/APoc9Y/8B7H/AOR6Pqk+6D6yuz/A9SpteX+Tr/8A0Oesf9+LH/5HrF8Xap4p8O6Kb+z8WX1xcrcW8SR3ttaGFvMmjjwwSFWxhj0YH3o+pzel0H1iPY9q70tcj4B8fW/jSzlR0+xava7ReWLNkx56Op/iRsHDcdwQCCB1y/dFccouEuWW50xkpK6FoooqSgooooAKKKKAPKvE3/J0Xw6/7FHxJ/6WaJXqh5ryrxN/ydF8Ov8AsUfEn/pZoleqGgBaWo27mvHvDF/4k1zw3pOpTeL9UimvLSK4dIbey2KzoGIXNuTjJ4yTW1KjKre3QxqVFT3R7LRXlvk6/wD9DnrH/fix/wDkejydf/6HPWP+/Fj/API9dH1SfdGX1ldn+B6lRXlvk6//ANDnrH/fix/+R6PJ1/8A6HPWP+/Fj/8AI9H1SfdB9ZXZ/gM+Mn/JRvgT/wBjnc/+o9rNeq14vrXg+88Q6loV9f8AinV57vQ7xtQ06Ty7RfJuGt5rYvhbfDfurmZcNlfnzjcoI1vJ1/8A6HPWP/Aex/8Akej6pPug+srs/wAD1Km15f5Ov/8AQ56x/wB+LH/5HrF8Xap4p8O6Kb+z8WX1xcrcW8SR3ttaGFvMmjjwwSFWxhj0YH3o+pzel0H1iPY9q70tcj4B8fW/jSzlR0+xava7ReWLNkx56Op/iRsHDcdwQCCB1y/dFccouEuWW50xkpK6FoooqSgooooAKKKKACiiigAooooAKKKKACiiigAooooAKKKKACiiigAooooA8q+Mn/JRvgT/ANjnc/8AqPazXqteVfGT/ko3wJ/7HO5/9R7Wa9UagApajavKLHUPEGsvqFx/wlOo2SLqF5bpb28FpsRIrmSNQN8LN91B1J5z9K2pUpVdjKdRU90et0V5b5Ov/wDQ56x/34sf/kejydf/AOhz1j/vxY//ACPXR9Un3Rj9ZXZ/gepUV5b5Ov8A/Q56x/34sf8A5Ho8nX/+hz1j/vxY/wDyPR9Un3QfWV2f4Ef7TH/JM7H/ALGvwx/6frCvVq8X8TeELzxjpqafq/inWLuzS7tb1Y/LtExNb3EdxC+VgH3ZYo2weDtwQQSDreTr/wD0Oesf+A9j/wDI1H1SfdB9ZXZ/gepUhry7ydf/AOhz1j/vxY//ACPWX4ovfEmieGtW1KDxhqjz2dpLcIstvZFCyIzAEC3GRwM85x09aPqc+6D6yux7L2oFcD8O/iK3iTdpOrCO18Q26bmROI7pBx5sWe3I3LyVJxyCCe+X7tck4Spy5ZHTGSmroWiiioKCiiigAooooAKKKKACiiigAooooAKKKKACiiigBGooaigBaKKKACiiigAooooAKKKKACiiigAooooAKKKKAPKvEf8AydN8PP8AsTPE3/pdoNeqGvK/Ef8AydN8PP8AsTPE3/pdoNeqNQAjV4/8Pv8AkQfDX/YMtv8A0UtewNXj/wAPv+RB8Nf9gy2/9FLXo4P4ZfI4sRujfoo9e1fF/jjwtpf7T37Wfjrwd8Q7zUZfh74A0e0u4vDMN1Lb297cTIXa5l8pld9gOBg8HuAWDdkpcquc8Y8zPtCivzp8J6l8HLH4GftEaN8H/iTq3iLQpvDl1qFv4Su7a7jtdHj8plYxSXEYZiztyQ2cY3BiN1eCaHoPw61jwH8PfDHw8+FfjTwz+0Hq9vZXWk+KNQuZbCzuJYyrzXcDyXe1kKpIVKxjPbBxWLrW6Gqpn7I0V8l/CuOeH/goZ8UEunWW5XwdpiyyIMKzDyskexNW/wBj2Fl+N/7TMxHyN4wRQfcI5P8A6EK19psZuFup9U1zHxI/5Fc/9f1j/wClcVdPXMfEj/kVz/1/WP8A6VxVtH4kYvZnOXFvcQ3lvqWnXH2HVrXPkXIGRg9UkX+KNscr9CMEA1694B8fQeM7OWOSP7DrFphbywZsmMnOGU/xRtg7W74IOCCK8rqrcW9xDeW+pabcfYdWtc+RcgZGD1SRf4o2xyv0IwQDXLUpKrHXc6YScGfRY7Zp1cx4B8YDxnorXL2xsr62lNtd2pbcI5QqsQG/iUqysDwcMMgHiumXpXkOLi7M9BNSV0LRRRSGFeU/Cj5vix8bG/6j9in5aPYn/wBmr1avKfhKv/F0fjaxwc+JrPGOeBommdcdDk9Dz3oA9VoNA6UNQAjV4/8AD7/kQfDX/YMtv/RS17A1eP8Aw+/5EHw1/wBgy2/9FLXo4P4ZfI4sRujfoo9e1fF/jjwtpf7T37Wfjrwd8Q7zUZfh74A0e0u4vDMN1Lb297cTIXa5l8pld9gOBg8HuAWDdkpcquc8Y8zPtCivzp8J6l8HLH4GftEaN8H/AIk6t4i0Kbw5dahb+Eru2u47XR4/KZWMUlxGGYs7ckNnGNwYjdXgmh6D8OtY8B/D3wx8PPhX408M/tB6vb2V1pPijULmWws7iWMq813A8l3tZCqSFSsYz2wcVi61uhqqZ+yNFfJfwrjnh/4KGfFBLp1luV8HaYssiDCsw8rJHsTVv9j2Fl+N/wC0zMR8jeMEUH3COT/6EK19psZuFup9U1zHxI/5Fc/9f1j/AOlcVdPXMfEj/kVz/wBf1j/6VxVtH4kYvZnOXFvcQ3lvqWnXH2HVrXPkXIGRg9UkX+KNscr9CMEA1694B8fQeM7OWOSP7DrFphbywZsmMnOGU/xRtg7W74IOCCK8rqrcW9xDeW+pabcfYdWtc+RcgZGD1SRf4o2xyv0IwQDXLUpKrHXc6YScGfRY7Zp1cx4B8YDxnorXL2xsr62lNtd2pbcI5QqsQG/iUqysDwcMMgHiumXpXkOLi7M9BNSV0LRRRSGFFFFAHlXif/k6D4c/9il4k/8ASvRa9UNeVeKP+ToPhz/2KfiT/wBK9Fr1VqAEavH/AIff8iD4a/7Blt/6KWvYGrx/4ff8iD4a/wCwZbf+ilr0cH8MvkcWI3Rv0Uevavi/xx4W0v8Aae/az8deDviHeajL8PfAGj2l3F4Zhupbe3vbiZC7XMvlMrvsBwMHg9wCwbslLlVznjHmZ9oUV+dPhPUvg5Y/Az9ojRvg/wDEnVvEWhTeHLrULfwld213Ha6PH5TKxikuIwzFnbkhs4xuDEbq8E0PQfh1rHgP4e+GPh58K/Gnhn9oPV7eyutJ8Uahcy2FncSxlXmu4Hku9rIVSQqVjGe2DisXWt0NVTP2Ror5L+Fcc8P/AAUM+KCXTrLcr4O0xZZEGFZh5WSPYmrf7HsLL8b/ANpmYj5G8YIoPuEcn/0IVr7TYzcLdT6prmPiR/yK5/6/rH/0rirp65j4kf8AIrn/AK/rH/0riraPxIxezOcuLe4hvLfUtOuPsOrWufIuQMjB6pIv8UbY5X6EYIBr17wD4+g8Z2csckf2HWLTC3lgzZMZOcMp/ijbB2t3wQcEEV5XVW4t7iG8t9S024+w6ta58i5AyMHqki/xRtjlfoRggGuWpSVWOu50wk4M+ix2zTq5jwD4wHjPRWuXtjZX1tKba7tS24RyhVYgN/EpVlYHg4YZAPFdMvSvIcXF2Z6CakroWiiikMKKKKACiiigAooooAKKKKACiiigAooooAKKKKACiiigAooooA8q+Mn/ACUb4E/9jnc/+o9rNeptXlnxk/5KN8Cf+xzuf/Ue1mvU2oASvJ/C/wDx56j/ANhfUv8A0tnr1ivJ/C//AB56j/2F9S/9LZ678JvI48R0Niiivkj9oiwb44/tTeC/gvrmpajYeAjoM/iHVdPsJzANZdZtiW8jqQxRdu4gH34IDL3Slyq5yxjzM+t6K+G/gLb/AAF8C/HTxb4f+EvxD1a1luNMurS6+HogvXsftUAYTTma5jILAJgYfP3sMVO2vjH4e2fwfPwB0uy1b4SeMrz4q+IJLnT9B8WxyS2ulXF80zLb7JWukjPllow37s4IOfU5OrbobeyvqftlRXxFoOleI9D/AGw/2eNO8X3X23xTa/Dy5h1OcyeYXuFSQOS/8RznLdzk12nw6hdv+CivxblA/dr4U0xC2e5MZH/oJ/KrVTbQjlPqmsD4hf8AIg+Jf+wbc/8Aopq3/pwKwPiF/wAiD4l/7Btz/wCimrePxGEtmcpfWIvPJkSWS2vLdxLb3UJxJDIOAy/gcEHIYEggjNem/Dn4iN4jB0jVRHa+ILdNzKnEd0g486LPbkbl5Kk4PBBPnlVb6xF55MkcslreW7iW3uoTiSGQcBl/A4IOQwJBBGa56lNVFZ7nTGTi7o+iwenpTq4f4Z+N7jxVa3NnqMKw6zp4jFz5X+qmVt2yZBkkBtjfKeQVIyQAT2y/dFePKLhLlZ3xkpK6HUUUVJQUUUUAFFFFABRRRQAUUUUAFFFFABRRRQAjUUNRQAtFFFABRRRQAVm+IJ9Vt9Iu5NDsrPUdWVM29rqF29pBI3915UilZB7iNj7VpUUAeUr4k+N+B/xb3wAf+57vh/7hqX/hI/jf/wBE98Af+F3ff/KavVaKAPKf+Ej+N/8A0T34f/8Ahd33/wApqP8AhJPjf/0T34f/APhd33/ymr1aigDyr/hI/jf/ANE++H//AIXd9/8AKaj/AISL43f9E++H/wD4Xd9/8pq9VooA8p/4SL43f9E++H//AIXd9/8AKaj/AISL43f9E+8Af+F1ff8Aymr1aigD5e8Qa98YG/aR8CvJ4H8EJqS+E/ECw26+MrxoZIjeaN5rNJ/ZQKMpEQVQjBg7ksmwB/krwn8X/wBp+x/bA+IehfCrSYvFnhmPW3OraPc6nNqehaddPte6jj1CaK3aErK0x8pVUBgwCSbcn7/8Sf8AJ03w9P8A1JniX/0u0KvULW1hs4THBDHCjO8hWNQoLMxZmwO5Ykk9ySaAGWMl1Jp9s97FFBetGpnigkMkaSYG5VcqpZQcgEqCR2HSvJ/h9/yIPhr/ALBlt/6KWvYGrx/4ff8AIg+Gv+wZbf8Aopa9HB/DL5HFiN0b9eF/GL9mi+8bfEKx+IXgTx5ffDLx7Ba/2dcapbWUV9bXtrkkRz20hCyFSflYnjHQkKV90ortcVLc5VJx1R8yaN+xjeSaL8SbzxZ8SNS8XePfHWivoV34gudOigt7W3K4QRWcbADbwSN4BxwFySdDx5+xvp/jj4C+BPAh8RPpviTwVHaHRvF0FnmW3nhCgyCHzPuuEGU39QpySor6LopeziVzyPnb4g/sv+LPEHjzTPiB4Q+Ks/gPx9/ZEej6zqVvocN5aalGh3BvssshEbbsnJZyAAByMnsf2d/gDB8BvDusxT6/deK/EviDUJNW1rXbqIQtd3D91iUkRqB0XJ6nkdB6xRQoJO6BybVmFcx8SP8AkVz/ANf1j/6VxV09cx8SP+RXP/X9Y/8ApXFW0PiRm9jGooorE27Hb/A//j38V/8AYYH/AKR2temV8++Bvgl8O/iReeJtT8XeAfDHirUYtSW2jvNa0e2vJkiFpbsIw8iMQoZmO3OMsT3rrF/ZP+CJA/4s38P/APwl7H/41XkVv4jO6l8CPVqK8p/4ZP8Agh/0Rv4f/wDhL2P/AMao/wCGT/gh/wBEb+H/AP4S9j/8arE1PVq8q+EH/JTPjl/2Ndp/6YdKpP8Ahk/4If8ARG/h/wD+EvY//Gq80+Fv7M3wf1D4hfGO2uvhP4Iurew8TWsFpDN4ds2S3jOi6bIUjBjwimSSR9owNzsepNAH1BTG+8ee1eWr+yf8ESP+SN/D/wD8Jex/+NU1v2T/AII84+DngAcf9CxY/wDxqgDkfgx+3D8NPjF4iuvCct/J4N8f2N1JYXnhTxEUt7pbhGKPHEwYxzEMrYCMWwCSorpPh7/yIXhr/sG23/opa8K+CH/BLr4ceAfFM3jLxtFa+M/Fc949+tpbWYsdEsZGcuEt7NDgopO0K5KYC4RSK91+H3/IheG/+wbbf+ilr0cH8MvkcOI3Rv14X8Yv2aL7xt8QrH4heBPHl98MvHsFr/Z1xqltZRX1te2uSRHPbSELIVJ+VieMdCQpX3Siu1xUtzmUnHVHzJo37GN5JovxJvPFnxI1Lxd498daK+hXfiC506KC3tbcrhBFZxsANvBI3gHHAXJJ0PHn7G+n+OPgL4E8CHxE+m+JPBUdodG8XQWeZbeeEKDIIfM+64QZTf1CnJKivouil7OJXPI+dviD+y/4s8QePNM+IHhD4qz+A/H39kR6PrOpW+hw3lpqUaHcG+yyyERtuyclnIAAHIyex/Z3+AMHwG8O6zFPr914r8S+INQk1bWtduohC13cP3WJSRGoHRcnqeR0HrFFCgk7oHJtWYVzHxI/5Fc/9f1j/wClcVdPXMfEj/kVz/1/WP8A6VxVtD4kZvYxqKKKxNux2/wP/wCPXxX/ANhgf+kdrXplfPXgL4G/Dr4iX3irVfFPgTw54j1MaokP23VdKguZggs7YhN7oTtGTxnHJrrx+yj8Ff8Aokngn/wn7X/4ivIrfxGdtH4EerUV5V/wyj8Ff+iSeCf/AAn7X/43R/wyj8Ff+iSeCf8Awn7X/wCN1ibHqtQzXUNvnzZUjH+2wH868u/4ZT+DC7gPhP4LCtwy/wBgWuGHXBGzkZwceozUsP7LPwWtz+6+EHgOM+q+GbIf+0qAMrxb4i0uH9pr4eSSalZxxr4V8RKztcIACbrR8AnPXg4+hr0O4+IXha3yZfE2jxf79/EP/Zq8R8QfAb4Z2P7SHw/sbb4d+FYLKbwz4gnltYdEtkikkS50kI7KI8FlEkgBPI3tjqa9ah+Cfw7t/wDVeAvDEWP7mjW6/wAkoA8C0v8A4KR/C6y+LXiD4d+N5/8AhCdW0++e2tdTnuEutLv4ScwzLcx8R70KsRIFVc7d5Ir0/wCG1xFd/DvwtPDIk0MulWrpJGwZXUwqQQRwQa858Pf8E7fhl/wt7xD8R/GVjD4x1jULxp7LTLi1jt9L06EfLDEtsnyyFUAUlyVY87Aea9H+HMKW/wAPfDEUaLHGml2qqigAKBEoAAHQe1elhNpfI4cRujoq8L+MX7NF942+IVj8QvAnjy++GXj2C1/s641S2sor62vbXJIjntpCFkKk/KxPGOhIUr7pRXY4qW5zKTjqj5k0b9jG8k0X4k3niz4kal4u8e+OtFfQrvxBc6dFBb2tuVwgis42AG3gkbwDjgLkk6Hjz9jfT/HHwF8CeBD4ifTfEngqO0OjeLoLPMtvPCFBkEPmfdcIMpv6hTklRX0XRS9nErnkfO3xB/Zf8WeIPHmmfEDwh8VZ/Afj7+yI9H1nUrfQ4by01KNDuDfZZZCI23ZOSzkAADkZPY/s7/AGD4DeHdZin1+68V+JfEGoSatrWu3UQha7uH7rEpIjUDouT1PI6D1iihQSd0Dk2rMK5j4kf8iuf+v6x/8ASuKunrmPiR/yK5/6/rH/ANK4q2h8SM3sY1FFFYm3Y7f4H/8AHv4r/wCwwP8A0jta9Mr598D/AAT+H/xIvPE2peK/A/h3xLqMWpLbR3eraXBcypELS3YIGdCQoZmOOmWJ711i/spfBXaP+LSeCf8Awn7X/wCN15Fb+IztpfAj1aivKv8AhlH4K/8ARJPBP/hP2v8A8bo/4ZR+Cv8A0STwT/4T9r/8brE2PVaK8p/4ZV+DC5C/CjwWobhgug2uGHXBGzkZwceozR/wyh8FP+iR+Bz9fD1p/wDG6APVqYw75ry3/hk/4J/9Eh8C/wDhOWf/AMbph/ZR+CfI/wCFP+Az9fDVl/8AGqAOR+C37cHwz+MXiC68KSahJ4N8f2NzJY3nhTxGUgu0uI2KPHG24pMQytwjFsAkqK+hV6V8VfA//gl18OPAfiqfxn43itfGfiue8fUEs7ezFhotjIzlwsFmhwVUttAclAAuEXFfaooAWsnXPFWi+GWhGsaxYaT5+7yvt1ykPmYxu27iM4yOnqK1qyNe8J6H4oMH9taNp+r+Ru8r7fapP5e7G7buBxnAzj0FADv+Ek0o6wdJ/tSzOqj/AJcRcJ5/3d33M7vu/N9OelNt/FWjXltNcW+r2E9vDt82WO6Rkj3HC7mBwMnpnrTP+EP0H/hIv7f/ALE07+3cY/tT7JH9qxt2Y83bu+6MdenFZ9r8L/B9lpepabB4T0KDTtSKm+s49NhWG6IOR5qBMPg9N2etAG3/AG1p/kRTG/tfJlz5cnmrtfBwcHPOD1xVgXUPnGLzU83/AJ57hkcZ6fSubvvhX4K1LTNL0278HaDdadpTl9Ps5tMgeGzYnJaJCuIznn5QKt/8IH4Z/wCEu/4Sv/hHNJ/4SjyvI/tr7DF9t8vGNnn7d+3HGM4oA3VcOoKkEe1PrnPCvw98LeA/t48NeGtH8Pfb5vtF3/ZVjFbfaZO7yeWo3tyfmOTUvi/wP4d+IGjtpHinQNM8S6SzrI1hq9nHdwF16MUkUrkdjigDeorykfsn/BHH/JG/h/8A+EvY/wDxqj/hk/4If9Eb+H//AIS9j/8AGqAPVqK8p/4ZP+CH/RG/h/8A+EvY/wDxqj/hk/4If9Eb+H//AIS9j/8AGqAF+Mn/ACUb4E/9jnc/+o9rNM/aK/aG0f8AZr8L6X4n8SaRqt74bn1BLG+1HTY0lGnK6tsmkQsGKFwq/KDjd64DebfFr9mX4P6b47+DNvafCfwRawX/AIsuLa7ig8OWaLcRDQtWlEcgEWHXzIo32njdGh6qCKf7RH/BP34f/GHwrpXh/wAK+HPB/wAObZtQSfVdU0fwvapqElqisfKglRV8ss+wE88Z642sAe9fDL4ueDfjN4cj13wT4ksPEmluBulspQWiJGQsiHDxtjna4De1cv4X/wCPPUf+wvqX/pbPUf7Pf7LPw7/Zg8Pz6b4E0ZrSa8VBfaldSma7vSgO0yPwBjJ+VAq8k7ck1J4X/wCPPUf+wvqX/pbPXfhN5HHiOhsV4/8AHj9niP4v3/h/xHovie+8C+PfDjs2k+ItPiWYxq+PMimhbAljYD7pK8nkkEq3sFFeg0pbnIm1sfO3gD9lTXdP+I48f/ET4o6l8RvFlrp02labL/ZcGmWdpBKpD/6PESGfk/MGXrggkKRS0b9iPQ4/2Tx8Etd1r+24onnuLbXVsvIkt7h5mljlWPzG5Qvgjf8AMCR0NfS1FQqcUX7STPm7xb+yj4m8TaP8O9TtfipdaP8AFHwXbyWNv4yttIjdLy3cbWSe0klZWYqF5L4yWOOQB03wF/ZyuvhL4l8V+MPE/jO7+IHjvxKYkvtauLFLGMQxLiOKO3jJCcdcHnAwBg59rop8iTuLndrB+GPasD4hf8iD4l/7Btz/AOimrfrA+IX/ACIPiX/sG3P/AKKatY/EjKWxz1FFFZmyOn+Dv/I5eKP+vDT/AP0ZeV63Xzz4Y+FPgv4neMda/wCEv8JaJ4p+w2Fl9l/tjT4bryN8l1v2eYp27tq5x12j0rsV/ZR+C20f8Wk8E/8AhP2v/wARXl4n+K/l+R3UfgXzPVqK8q/4ZR+Cv/RJPBP/AIT9r/8AG6P+GUfgr/0STwT/AOE/a/8AxuuU2PVaK8p/4ZV+DCHKfCjwYh6ZTQbUHB4IyE6EZB9QSKB+yh8Ff+iSeB//AAnbT/43QB6tTGryz/hk/wCCf/RIfAp+vhyz/wDjdNP7KHwS3H/iz/gP8fDVkf5xUAclov7cHw0f4v8AiL4Y+KL+XwH4y0i+a0S08RbIYL5CQYZoJwSmJUaNlVyrHeAFbrX0IrblB6g+lfE2j/8ABLP4aal8YvEPjvxpbWOpWl1fNLpfhPQrFdL0myt1wsCvHEQZXCIhYgorMX3K+a+0dO0+20nT7axsreK0s7aNYYLeFAkccagBVVRwAAAABwAKALNFFFABRRRQAUUUUAI1FDUUALRRRQAUUUUAFFFFABRRRQAUUUUAFFFFABRRRQB5V4j/AOTpvh5/2Jnib/0u0GvVK8r8R/8AJ03w8/7EzxN/6XaDXqnegBrDrXz7N4e1vwPf2+gXfiLUbex2iLSriKC28qSNV4iJaFiJVUcgn5gu4fxAfQlZfiDw/YeKNLn07UYPPtpQMjJBUjkOpHKsCAQw5BHFdOHrexfkzCrS9ovM8e/s3Vv+hp1T/vzaf/GKP7O1b/oadU/782n/AMYqa6t7/wAI6qmkaw5mSUkWGpMAFulAJ2Pj7swHUDAYDK9wLte1z6XVmvQ87l6MzP7O1b/oadU/782n/wAYo/s7Vv8AoadU/wC/Np/8YrToo535fcHKjM/s7Vv+hp1T/vzaf/GKP7O1b/oadU/782n/AMYrToo535fcHKjM/s7Vv+hp1T/vzaf/ABiqWseHdT1SweB/El9MdySIlxDbeXvR1dCwSJWIDKOjDp+FdBRRzsOVHH6Zqj3jS211D9k1GDAntic4z0ZT/Eh5ww9MHBzWhVjxD4eTWkjmhk+y6lb58i6AJ256qw/iQ91/EYIBGPpmpvdvLbXUX2XUbcgT2zNnGejKf4kPOGHoQec0pK6uiou2jPR/gf8A8e/iv/sMD/0jta9MrzP4H/8AHt4r/wCwwP8A0jta9Mrw638Rno0vgQUUUViahXlXwg/5KZ8cv+xrtP8A0w6VXqteVfCD/kpnxy/7Gu0/9MOlUAeqUUUd6AGt39K+fZvD2t+Br+30C78Rajb2O0RaVcxQ23lSxqvERLQsRKqjkE/MFyP4gPoSsvxD4fsPFGlz6dqMHnW0oGeSCpHIdSOVYEAhhyCBiunD1vYvyZhVpKovM8e/s3Vv+hp1T/vzaf8Axij+ztW/6GnVP+/Np/8AGKmure/8I6qmkaw5mSUkWGpMAFulAJ2Pj7swHUDAYDK9wLte1z3V1Zr0PO5ejMz+ztW/6GnVP+/Np/8AGKP7O1b/AKGnVP8Avzaf/GK06KOd+X3ByozP7O1b/oadU/782n/xij+ztW/6GnVP+/Np/wDGK06KOd+X3ByozP7O1b/oadU/782n/wAYqlrHh3U9UsHgfxJfTHckiJcQ23l70dXQsEiViAyjow6fhXQUUc7DlRx+mao940ttdQ/ZNRgwJ7YnOM9GU/xIecMPTBwc1oVY8Q+Hk1pI5oZPsupW+fIugCdueqsP4kPdfxGCARj6Zqb3by211F9l1G3IE9szZxnoyn+JDzhh6EHnNKSuroqLtoz0f4H/APHv4r/7DA/9I7WvTK8z+B//AB7eK/8AsMD/ANI7WvTK8Ot/EZ6NL4EFFFFYmoUUUUAeVeKP+Tn/AIcf9ip4j/8ASrRq9TryzxR/yc/8OP8AsVPEf/pVo1ep+lACN3r59m8Pa34Gv7fQLvxFqNvY7RFpVzFDbeVLGq8REtCxEqqOQT8wXI/iA+hKy/EPh+w8UaXPp2owedbSgZ5IKkch1I5VgQCGHIIGK6cPW9jLyZhVpKovM8e/s3Vv+hp1T/vzaf8Axij+ztW/6GnVP+/Np/8AGKmure/8I6qmkaw5mSUkWGpMAFulAJ2Pj7swHUDAYDK9wLte1z3V1Zr0PO5ejMz+ztW/6GnVP+/Np/8AGKP7O1b/AKGnVP8Avzaf/GK06KOd+X3ByozP7O1b/oadU/782n/xij+ztW/6GnVP+/Np/wDGK06KOd+X3ByozP7O1b/oadU/782n/wAYqlrHh3U9UsHgfxJfTHckiJcQ23l70dXQsEiViAyjow6fhXQUUc7DlRx+mao940ttdQ/ZNRgwJ7YnOM9GU/xIecMPTBwc1oVY8Q+Hk1pI5oZPsupW+fIugCdueqsP4kPdfxGCARj6Zqb3by211F9l1G3IE9szZxnoyn+JDzhh6EHnNKSuroqLtoz0f4H/APHv4r/7DA/9I7WvTK8z+B//AB7eK/8AsMD/ANI7WvTK8Ot/EZ6NL4EFFFFYmoUUUUAFFFFABRRRQAUUUUAFFFFABRRRQAUUUUAFFFFABRRRQB5V8ZP+SjfAn/sc7n/1HtZr1WvKvjJ/yUb4E/8AY53P/qPazXqlADW714X4s0DWfBniC4Z9cvrXw9qV3JNbzW8VvstppnZ2ilLxMRudztbOOdvB27vd6p6lp9tq1ncWd5bx3VpOhjlhlXcjqeCCD1Fb0Kzoyv0MalNVEeK/2dq3/Q1ap/35tP8A4xR/Z2rf9DTqn/fm0/8AjFWNY0e6+Ht9HbXUslzoFw4js7+RizQMTgQzHn6LIeudpO7Ba3XuKpdXVn8jznC2jMz+ztW/6GnVP+/Np/8AGKP7O1b/AKGnVP8Avzaf/GK06KOd+X3C5UZn9nat/wBDTqn/AH5tP/jFH9nat/0NOqf9+bT/AOMVp0Uc78vuDlRmf2dq3/Q06p/35tP/AIxVfUtA1DVNPubO58TapLb3ETQyJ5VqAysMEcQg9D2INbdFHOHKjjdPv54bw6ZqapFqMY3BkGI7hP78ef1XkrkdiDWlV/XdDt9dsxFMWjkjPmQ3EWBJC46Mp9e2DwQcHrXPWF9PBeHS9TVYtRjGQyDCXKdPMjz+q8kZHYg0OPNqhp20O4+D3/I5eKP+vDT/AP0ZeV65Xkfwe/5HLxR/14af/wCjLyvXB0rxsT/Ffy/I9Cj8H3i0UUVym4UUUUAFFFFABRRRQAUUUUAFFFFABRRRQAjUUNRQAtFFFABRRRQAUUUUAFFFFABRRRQAUUUUAFFFFAHlXiP/AJOm+Hn/AGJnib/0u0GvVa8q8R/8nTfDz/sTPE3/AKXaDXqtABRRRQBleIvD9j4n0ufTtQh8+2lAyMkFSOQ6sOVYEAhhyCBivJruw1fwndSWGo2l/qlup/0bUrKzkuPOTsJViU7XHQnGD1HXA9tpNtb0q0qei2MZ01PXqeG/20f+gTr3/givf/jVH9tf9QrXf/BHe/8AxqvctppcV0fW32MvYeZ4Z/bX/UK13/wR3v8A8ao/tr/qFa7/AOCO9/8AjVe5496Me9H1t9g9g+54Z/bX/UK13/wR3v8A8ao/tr/qFa7/AOCO9/8AjVe5496Me9H1t9g9g+54Z/bX/UK13/wR3v8A8arI8QW6a1HHNFp2u2mo2+TBdDQb07c9VYeV8yHuPyweR9FY96QgU1jHF3sJ4e/U8v8AgLHqLaHr1zqWmXWlS3OqGRYbuF4iyi2t03KrqrbSyNjIB45r1FRhaT2pRXFOXPJy7nTCPJFIWiiioLCvKvhB/wAlM+OX/Y12n/ph0qvVa8q+EH/JTPjl/wBjXaf+mHSqAPVKWkpaACiiigDK8ReH7HxPpc+nahD59tKBkZIKkch1YcqwIBDDkEDFeTXdhq/hO6ksNRtL/VLdT/o2pWVnJcecnYSrEp2uOhOMHqOuB7bSba3pVpU9FsYzpqevU8N/to/9AnXv/BFe/wDxqj+2v+oVrv8A4I73/wCNV7ltNLiuj62+xl7DzPDP7a/6hWu/+CO9/wDjVH9tf9QrXf8AwR3v/wAar3PHvRj3o+tvsHsH3PDP7a/6hWu/+CO9/wDjVH9tf9QrXf8AwR3v/wAar3PHvRj3o+tvsHsH3PDP7a/6hWu/+CO9/wDjVZHiC3TWo45otO1201G3yYLoaDenbnqrDyvmQ9x+WDyPorHvSECmsY4u9hPD36nl/wABY9RbQ9eudS0y60qW51QyLDdwvEWUW1um5VdVbaWRsZAPHNeoqMLSe1KK4py55OXc6YR5IpC0UUVBYUUUUAeVeKP+Tn/hx/2KniP/ANKtGr1SvK/FH/Jz/wAOP+xU8R/+lWjV6pQAtFFFAGV4i8P2PifS59O1CHz7aUDIyQVI5Dqw5VgQCGHIIGK8mu7DV/Cd1JYajaX+qW6n/RtSsrOS485OwlWJTtcdCcYPUdcD22k21vSrSp6LYxnTU9ep4b/bR/6BOvf+CK9/+NUf21/1Ctd/8Ed7/wDGq9y2mlxXR9bfYy9h5nhn9tf9QrXf/BHe/wDxqj+2v+oVrv8A4I73/wCNV7nj3ox70fW32D2D7nhn9tf9QrXf/BHe/wDxqj+2v+oVrv8A4I73/wCNV7nj3ox70fW32D2D7nhn9tf9QrXf/BHe/wDxqsjxBbprUcc0Wna7aajb5MF0NBvTtz1Vh5XzIe4/LB5H0Vj3pCBTWMcXewnh79Ty/wCAseotoevXOpaZdaVLc6oZFhu4XiLKLa3TcquqttLI2MgHjmvUVGFpPalFcU5c8nLudMI8kUhaKKKgsKKKKACiiigAooooAKKKKACiiigAooooAKKKKACiiigAooooA8q+Mn/JRvgT/wBjnc/+o9rNeq15V8ZP+SjfAn/sc7n/ANR7Wa9VoAKSlpPagCpqWn22rWc9neW8d1aToY5YZV3I6nggg9RXkOqeHtS8DXht/IvtX0N8m1ube3kup4P+mUqoCzAfwvg5HDYIy3tPSk+lbUq0qT02Mp01M8O/tr/qE67/AOCO9P8A7RpP7a/6hWu/+CO9/wDjVe5UuK6frb7GPsPM8M/tr/qFa7/4I73/AONUf21/1Ctd/wDBHe//ABqvc8e9GPej62+wewfc8M/tr/qFa7/4I73/AONUf21/1Ctd/wDBHe//ABqvc8e9GPej62+wewfc8M/tr/qFa7/4I73/AONVna4tvrtmI5tL8QRSRnzIbiLQ70PC46Mp8k89RjoQcGvoTHvSUfXGtbB9Xvuzxr4EQ6sdc8S3Gp6bd2Q+z2dslxcWktulyUe5YuiyANjEi5BHBJ69a9mXpSdqWuSrU9rNzaN6cOSNhaKKKzNAooooAKKKKACiiigAooooAKKKKACiiigBGooaigBaKKKACiiigAooooAKKKKACiiigAooooAKKKKAPKvEf/J03w8/7EzxN/6XaDXqteVeI/8Ak6b4ef8AYmeJv/S7Qa9VoAKKKKACiiigAooooAzfEGvaf4W0PUtZ1a7jsNL0+2ku7u6mOEhhjQu7t7KoJP0r8+v2Df8AgoBq3xz/AGjPHvhXxXPJDpviK5k1DwlBNgfZEhUhrPI6sYFWTjjdHK38dfoL4g8P6Z4q0e80jWtOtdX0m8jMNzY30CzQzIequjAqw9iK8g+Fvgvw/ffFD4r/AGnQtNuDo3iyyn0zzbONvsLjQdMQNDkfuyFG3K4OOOlAHuA6UtIv3R/WloAKKKKACiiigAooooAK8q+EH/JTPjl/2Ndp/wCmHSq9Vryr4Qf8lM+OX/Y12n/ph0qgD1SlpKWgAooooAKKKKACvEf2yPj9D+zX8APEvjFXT+2vL+w6LCwB82+lBEXB4YJhpWXusTY5r26sjWvCeieIr7S7vVdHsNSu9LnNzYT3lskslpKVK+ZEzAlGwSMrzzQB8t/8E1/2nrz9or4F/ZPEd895448MSLZalNMcy3ULAm2uT67lDIW/iaJz3FfXS9K8W/ZL8MaPa/Ab4Za5FpNjFrlx4Q0u0n1NLZBdSxJbptjeXG5lB5Ck4Br2lfuigBaKKKACiiigAooooAKKKKACiiigDyrxR/yc/wDDj/sVPEf/AKVaNXqleV+KP+Tn/hx/2KniP/0q0avVKAFooooAKKKKACiiigApvGadTW5NAH5t/Gz/AIKOT+Af29tF8NW2oH/hV+gk6F4hCYMT3ErATXJPb7M4jU55HlzAffr9JI2EiKytuVhkMDkEeteD+Ivhv4Ttfj14I0CLwvoyaBqPhnxO95pa2EItbl5bvR3kaSLbtcuwy24cnk17pZ2sNjaQ21tDHb20KLHFDCoVEUDAVQOAABgAUATUUUUAFFFFABRRRQAUUUUAFFFFABRRRQAUUUUAFFFFABRRRQAUUUUAFFFFABRRRQB5V8ZP+SjfAn/sc7n/ANR7Wa9Vryr4yf8AJRvgT/2Odz/6j2s16rQAUUUUAFFFFABRRRQA1q/Nr4T/APBR6bxh+31rPhm41EP8KdZdfD2htkGGO6jYiG6DDtcSGRQepEkIP+rNfpBdW8N5BLb3EKT28yGOSKRQyupGCpB4II6j0rwvQvhv4S/4X74p8NnwtoreHbPwf4de10n+zofskDRX+sMjRw7dqlScggcHpQB70vCilpF6UtABRRRQAUUUUAFFFFABRRRQAUUUUAFFFFABRRRQAUUUUAFFFFACNRQ1FAC0UUUAFFFFABRRRQAUUUUAFFFFABRRRQAUhorN1DxBpulzCO6vYYZTyImcbz9F6monOMFeTsNJvY888Rf8nTfDz/sTPEv/AKXaFXqteOa5qSXX7QngvXobXUJNIsfC+u2VxeLYTmOOae70h4kPydWW2nIx/wA8z7V6ZY+J9M1CZYYb2Lz26Qudj/8AfLYP6VhHE0JO0Zr7y3Tkldo1+OtFFFdJmLRRRTAKKKKACvKfhPx8Vvjavr4hsW/8o1gP6V6tXlPws+X4u/Gkeus6e3/lJtB/SgD1aiiigAooooAKKKKACkpaaxpMBa8q+EP/ACUz44/9jXaf+mHSq7y68XaTayNGb2OWVTho7cGVx9VQE/pXmvwz1RNG8e/Fq9v7a/tLTVvEVtd2M01jMqTwro+nQl1OzoJIZV57oa5niaEXZzV/U0VOb2R7FSiqGna1YasD9kvIbkr94RuCV+o6j8avrjtW8ZxmrxdyGmtxaKKKsQUUUUAFIaWkoA8r/ZT/AOTafhiP7vh6yX8oVFeq15V+yrx+zj8Oh/d0W3X8lxXqtABRRRQAUUUUAFFFFABRRRQAUUUUAeVeKP8Ak5/4cf8AYqeI/wD0q0avVK8r8Uf8nP8Aw4/7FTxH/wClWjV6pQAtFFFABRRRQAUUUUAFFFFAHlPi7j9pf4an/qW/EK/nPpX+Feq15X4x/wCTkvhkf+oFr6/nJpp/pXqtABRRRQAUUUUAFFFFABRRRQAUUUUAFFFFABRRRQAUUUUAFFFFABRRRQAUUUUAFJS1Q1HWrDSdv2y8gtt33VkkClvoO/4VEpRirydhpN6I84+Mn/JRfgV/2Odz/wCo9rNeqV498UNTTWvG/wAI7ywtr67tdI8UT3t9NDYzMsEDaLqluJCQvTzbiFeO7jtk16Rb+LtIupFjF9HFK3Cxz5ic/QOATXOsVQk7KaL9nNa2NoUUi420tdRmLRRRTAKKKKACvKdH4/am8X/7XgzRf0vtV/xr1avKdL4/am8Tf7XgzSf0vtR/xoA9WooooAKKKKACiiigAooooAKKKKACiiigAooooAKKKKACiiigAooooARqKGooAWiiigAooooAKKKKACiiigAoopKACq95eQ2FvJcTyCKGMZZ26Cpyw6VyF1Mde1h5GOdPsZCkSdpZh95z7KcqB6hj2FcWKxH1eF0rt7GtOHO7CTXN/r2S7zaZp55WGNis8o9Xbqg9l+b1PapbPT7bT0KW1vHCp+9tUAn3J6mrODu46UtfLSlKpLmm7s9OMVFWQlQ3dnBfRGK4hjnj/uSKGH5EVPSbeamy2KKES32hkPYSPdWo+9YzuSQPWN25B/2SSvYbetdLpeqQataieA5UkqVYEMjDqrA9CKyTWbczHQ74arGSIDhL1B0MfQS/VM8n+7kdhXdhcVLDyUZO8fyOepSUldbnaDsaUUkZyo5zSivqF5Hmi0UUVQBXlPww+X4yfGUeupaa3/lNgH9K9Wryn4anb8a/jEPW70tv/JCMf0oA9WooooAKKKKACkpar3t1HY2s1xM4jihQu7HsAMk1MpKKcnsh7lXWtZi0iFSUaeeQ7YbeP78jeg9h3J4Fc5JZ3OsHzNWl8xD0sYWIgHsenmf8C49BRp6TXk0mpXastzcr8sTdYIu0Y9+59SeeAK0Bx9a+VxGJliJWT93t+p6VOmoK73GwQx28axxRrEijCogwB9B2p+M0dKUVxq3Q3Kd5pNrfsrTwqZF+5MuVkX/dYYIP0NFvql5oLKt3I9/p3e4Yfvof94AfMvv1HfPUXKay7vY9uKunKVKXPB2ZEoqWkjoYZkmiV0YOjDKsDkEdjUlcjoNwdF1QaeSfsN0Wa2yRiJwCWiHsRlgO2GHpXWr0FfV4ausRDmW55lSDpuwtFFFdRmFJS0lAHlf7K/8Aybx4DH93TUX8iRXqteVfss8fs/8Agsf3bRl/KVxXqtABRRRQAUUUUAFFFFABSHFLTGNJ7AL70bq5q78TTXkskGkRpKEO2S8mz5SH0UDmQ/TA988VRbSWvPmv726vWPVWkMcf02JgY/3s15NbMIQfLBX/ACOmNCUt9DnfFB/4ye+HPP8AzKniP/0q0avVNwrif+EV0fr/AGVZk/3jAmfzx/WnroaWvzWdxc2D9vIlO3/vhsr+lc8cznf3ofj/AMA0+rLoztaBXKW/iO70nC6sqzWvT7dboRt/66ICcD/aBx6ha6iGVZolkRg6MNyspyCD0NepQxNPEK8DmnBw3JKKKK6zMKKKKACiiigDynxt/wAnGfC8/wDUI15fzNgf6V6tXlPjrj9ob4WH/qHa4v5raH+lerUAFFFFABRRRQAUUUUAFFFFABRRRQAUUUUAFFFFABRRRQAUUUUAFFFFABUU0iwqzyMERRuLE4AA6mpDXJ69cNreqHTVYixtdrXPpK5GVj+gGGI75UetcuJrrD0+Z79DSnBzdkNuNXvdeYrZyNYad2uFAM03ugIO1fcjJ7Y4NFnpNrp7M0EKiRvvSsSzt7lzy31NWhgU6vlKk5VXzVHdnpxioKyEAqOa3juYzHLGskbcMrgMD+B4qWk21GjLM6OzudGbzNJl2oOtjKx8l/Zc8ofpx6g10Wj61Fq8LFVaGeM7ZoJPvRt6H19QR1BBrO9qz9Qjms501OzVnurcYaJf+W8fUx/Xuvv9TXXh8VLDyX8vb9TCpTU1fqdl+FKKgsruK+s4bmFxLDMgkRx0KkZBqevq4tNXT0PNFoooqhBXlWn8ftTa9/teDNO/S+vf8a9Vryqz+X9qbVv9rwZZ/pfXX+NAHqg6UtJS0AFFFFABRRRQAUUUUAFFFFABRRRQAUUUUAFFFFABRRRQAUUUUAI1FDUUALRRRQAUUUUAFFFFABRRRQAUhpaaaAM7xFftpmi3t1GA00cRMYboz4+UH6nH51jadZLp9jBbKSwiQLubqx7k+5PP41c8bc6CR2N1ag/Q3Eef0qHdkV8zmMm66XRL+vyPQw691sd1zzisFfH3hmTRodXXxFpJ0ma6FlFfC+iMD3Bl8oQrJu2mQyDy9uSd3y4zW6WCLuY7VXkk9h618c6LqelyfHaH4pC3f/hTF7q72mn3RuALNdddBbtrHl7ABDKQ9qsm7G8+YBiXfXHCClqzdvU+vLjV7Cz1G0sLi9toL68EjW1rJKFknCAFyikgttBBOM4yKTVNXsdDtVudSvbewt2kSES3UqxoZHYIiZYgbmZgoHckAckV4b8dLWK3+PXwe1SOZRqoj1eDT7e71u40+0urryI2ihcx7gSxDf8ALNywB+VguKq/tFeGZ/Enw48MeIPGGj2Vn4l0vxHpBt7bTtWuL6zt2fVLZfMXfHCryFMjzGhDIHdVOGOX7NWWu4rn0SKZJGsqsjqGRhtIPQ59fanmkJOP5Vi1fQsm8HXDSaKkDsWktXe2JbqQjEKT7ldp/Gt0V5Ncax8QdN1zVovCfhTw9r2mfaFZrjVvEc2nSrKYo9yCNLGcFQNp3bwSWI28ZMi+KPjVgf8AFuvBJ/7ni6/+VVfVYOXNQi3/AFY8uqrTZ6tRXlX/AAlHxq/6Jz4J/wDC4uv/AJU0f8JR8av+ic+Cf/C4uv8A5U12mR6rXlPw5+X45fF5fWTSW/8AJPH9KX/hKPjV/wBE58E/+Fxdf/KmnfCfwv4ws/GnjjxN4v0zR9Hm1xrIW9no+qS6gqLBEyFnkkt4MEkjgKenWgD1OikX7opaACiiigArnPGMnnLYWI6XM4aT/cQFz+BYKP8AgVdHXL+I8/8ACTaSD937Lcn8d0OP5mvOzCTjh5W8vzN6CvURJ/EKQd6X1NFfM+Z6QUba8E+P3xe8S/ALxVpOvY/4SXwv4kaPQbTQ2ktraS01hyTausrbC0MvzLJuZjGVVlGCwrvJr7xP8Ofgvf6lrF2/jDxXpmlz3s7wwQwLPOqM+xEzGojU/KuWDFVG5i3J09m0l5i5tbHf9KO5rjvg1401D4jfCfwn4n1XTTpOo6vpsF5PafLtR3QEldsjgIc7lBYnaRuw2QOwrNq10PdGfr8b/wBmTTRD/SLbFxF/vIdwH44x+JrsLadbq3jmQ5SRQyn2IyK56QAowblSOa4PQ/Enxdj0exTTvAfhC909YEFvc3XjC5gllj2ja7xjTHCMRglQ7YJxuOM16uWyftJR7pfgcmIWiZ7FRXlX/CUfGr/onPgn/wALi6/+VNH/AAlHxq/6Jz4J/wDC4uv/AJU19EcJ6rSV5X/wlHxq/wCic+Cf/C4uv/lTTT4n+NR/5p14J6/9Dxdf/KmgB37Lf/JBfCg/uxzr+VxKK9VrgvgX4N1bwB8KdB0HXBaLq1qspuFsJmlgVnmeTajsiFgA4GSo6dK72gAooooAKKKKACkpaae9AAa5fXr59V1B9KgcraRAG8kU4JyARED2JByfYgd+N3VL5NM0+6u5ASkEbSMF6kAZIHvXNaPayWtjH553XMhM07DvI3LH6ZJx7AV4uYVnGKpRdr7+h10IKT5mW44VhVURFRFAVVUYAA7AVJSe1LXg6dDvCkzS0mKAEI7dj1FU9PuT4e1CODONLun2qO0ExPAH+wxPTsxHrxdWoL6yj1C1mt5PuSqUOOo9x7jr+FVCcqclODs0RKKkrM6lTuApayvDOoSanottNMc3CgxTcY/eISrHH1U1q19jTmqkVNdTyZLldhaKKK1EFFFFAHlPj7j9oD4UH/p11pf/ACFbn+lerV5T8QuPjz8JT/0z1hfzt4v8K9WoAKKKKACiiigAooooAKKKKACiiigAooooAKKKKACiiigAooooAKRu1LTWoAiupkt7eWWQ4SNSzH0AGTXJeH43/suGaUYnuP8ASZfXe/zEfhnH4VteMmaPwnrTL94WUxH18tqpwhVjUL90DAr53MpN1Ix7I78MtGPqhreuab4a0u51TV9QtdK0y1XfPeXsywwwr0yzsQqjJHJNX65j4meK/DngrwJrer+LZYo/D0Nsy3iTR+YJkf5PKCYJkZywQIASxYAda8qKu7HU9jWk8QaXHrFtpL6nZpq11A91BYm4QTywqVDyLHncyqXQFgMAsM8kVoe9fLv7KOk3vw48UaloHji0uLDxbrVlFe6AdQvBcumixDbHpiybRmS0L4kHO4yq+5skr3vw1sbnVPj58WNSvdY1e6j0y7srCw06TU7gWVsjWMEshW38zyizMwO4oWHJB+Zs6yhyshSPZetHRv5Ug6/49aX1rHzLE8Ht5K39hn5bacmMHqI3AcfkSy/8BrpK8t1jVPGum+JrkeD/AA5oniAPawm6/tjXJtN8o7pNuzy7S435Gc5242jrnhi+KPjVtH/FufBP/hcXX/yqr6fL5OWHj5XX4nm1laoz1aivKv8AhKPjV/0TnwT/AOFxdf8Aypo/4Sj41f8AROfBP/hcXX/ypr0TA9VryqDj9qa+/wBrwZb/AKX03+NH/CUfGr/onPgn/wALi6/+VNQeB/Dfjy++L194x8XaLoOg2x0OPSYLbR9am1F5GFw0pdjJaQBRhsYGaAPW6WkXpS0AFFFFABRRRQAUUUUAFFFFABRRRQAUUUUAFFFFABRRRQAUUUUAI1FDUUALRRRQAUUUUAFFFFABRRRQAUUUnrSAyfFFlLqGg30MI3TmMtEPV1+ZR+YFZlldR3tnBcRHMUyLIp9QRkV059K45Yv7C1V9PcYtrhmmtG6gZ5ePPqCSR/snH8JrwMyp2kqq9H+h24eW8TRopFpa8c7QooooGFNbpgmnVm6grancppMLESXAzO6/8s4c4Y57E8qPfJ7GjV6R3JeiuavguMto5uyMG9me5H+4x+Q/98Ba3x0pkMaQxJGihEUbVUDAAHapK+xo0/ZU4wXQ8iUuZthRRRW5IUUUUAFFFFABRRRQAVzfi6PyZtLvTwkVx5MjeiyDaP8Ax/yx+NdJVPVLCLVLG4tJ8+XMhQ4OCMjqPQj+dc2Jpe2pSgtzSnLlkmY/8Io/WqGl3Usnm2l2f9Ptj5c2BtD+kgB7MOR6EEdq0M5r49X67o9U8w8V/AvTviR4s1fUvGtxF4h0ebTG0nTNG+y+VHYRSjFzLu3tvmkIUCQBNiIFUZLM214a8CarZ/Cz/hEfEPiOTxHd/YZNObWjbCCeWIqyI0g3uGlCFdz8BmBbaucDtNtAGK055WsHKjlPhR4Pvvh78OPDvhjUdTt9ZuNHsorAX1rZtaJJHGuxD5bSSEHYFB+c5IJGAdo6vuaWk6VLbYWM/Xp2t9KufL5mkXyol9ZGwqD8SwrrNPtVsbGC3T7kKLGv0AwK5fTYv7c1pJB81jp7nBxxLPjHHqFBP/Aj/s11y/dr3Mtpu0qr2eiOHES1UR1FFFe2cgUUUUAFFFFABRRRQAUUUUAFJS0negDB8bN/xT8idpJ7eI/RpkU/oai9aseMozJ4cvXUFmgC3AA7mNhJj6/LVVWDxhlO5WAII718xmCf1j5L9T0cP8BV1jTIta0e+sJpri3huoXhea0uHt5kDKQWSRCGRgDwykEEA54FfNv7MvjbW/iR481KHX/FFzf2/hG2ax0YRPNAniG1aR4/7XmXASfIi8oY3IHSRx/rI8fRPinwzp/jTw3qWhask0umahA1vcxwXMtu7xsCGXzImV1yP7rDgms7/hW/huPVPDmoQ6Wlpd+Hbd7PS3tZHgEEDoEaHahCvHhE+R8ruRSBlVI5IyiotGzWp5VN4u8aeH/2gPiQ0K3XizQ7Lw/pM1p4a0yOOO4jkkkuQZFkubyOAY8ty5wpYeWBynzts/iD43+Lv7M0/iKG2vvhrrU+jrfSahLBbXHnxm3MjvZiO5k8rJwEacblzzGTgj16LwNotv44ufF8VtPHr1zYx6dPMl3MI5YEdnRWhDeWzKzvhyu8BmAOCRWtqmn2+sabd6feR+fZ3UTQTR7iu5GBDLkHIyD1ByO1PnVloKxznwjvbnU/hP4Lu7yeW6u7jRLKaaeZy7yO0CFmZjySSSSTyc811i1T0XR7Pw7othpWnxeRYWNvHa20W5m2RooVFyxJOABySSauY/x5rGWrZa2OKn+L+gfD7VtT0vVLbxFNMZ/PRtJ8MalqcQV40ODJa28iK27d8pYMBg4wwJeP2l/BuObHxtn/ALEHXf8A5Crs/Bq+ZaX11yRc3cjgnuFxGD+IjzXRCvqcDf2ETy6vxs8q/wCGmPBn/Pl42/8ACB17/wCQqP8AhpjwZ/z5eNv/AAgde/8AkKvVqK7jI8p/4aY8Gf8APl42/wDCB17/AOQqP+GmPBn/AD5eNv8Awgde/wDkKvVqKAPAp/iFp/xM+OPw2k0LTPExg0xdTe8udU8L6np0EKvbhUzJc28aZLDAGSfavfF6UtFADWrlPhx8SNM+KOh3GraTb6ha28N5PYsmpWjW0hkifaxCtyVJ6N0I5rraKAOR+G/xI0z4oaDcatpNvqFtbQXk9iyalaNbSGSJ9rEK3JUno3Qjmj4b/EjTPijoVxq2k2+oW1tBeT2LJqVo1tIZIn2sQrclSejdCOa66igDkfhv8SNM+KGg3GraTb6hbW0F5PYsmpWjW0hkifaxCtyVJ6N0I5o+G/xI0z4oaDcatpNvqFtbQXk9iyalaNbSGSJ9rEK3JUno3QjmuuooA5H4b/EjTPihoNxq2k2+oW1tBeT2LJqVo1tIZIn2sQrclSejdCOaPhv8SNM+KGg3GraTb6hbW0F5PYsmpWjW0hkifaxCtyVJ6N0I5rrqKAOR+G/xI0z4o6FcatpNvqFtbQXk9iyalaNbSGSJ9rEK3JUno3Qjmj4b/EjTPihoNxq2k2+oW1tBeT2LJqVo1tIZIn2sQrclSejdCOa66igDkfhv8SNM+KGg3GraTb6hbW0F5PYsmpWjW0hkifaxCtyVJ6N0I5o+G/xI0z4oaDcatpNvqFtbQXk9iyalaNbSGSJ9rEK3JUno3QjmuuooA5H4b/EjTPihoNxq2k2+oW1tBeT2LJqVo1tIZIn2sQrclSejdCOaPhv8SNM+KGg3GraTb6hbW0F5PYsmpWjW0hkifaxCtyVJ6N0I5rrqKAOR+G/xI0z4oaDcatpNvqFtbQXk9iyalaNbSGSJ9rEK3JUno3Qjmj4b/EjTPihoNxq2k2+oW1tBeT2LJqVo1tIZIn2sQrclSejdCOa66igDkfhv8SNM+KGg3GraTb6hbW0F5PYsmpWjW0hkifaxCtyVJ6N0I5o+G/xH0z4o6DcatpNvqFtbQXk9iyalaPbSF4n2sQrclSejDrXXUUAIv3aQ06kz1oAr39qt7Zz27/cmRo2+hGDXKaDO8+k23m8Txr5Uq+kiHaw/Bga7IgVyOpRf2HrjSEH7DqDj5u0U+Mc+gYAY/wBoH+8K8PMqT92ra6W52YeVrxLhpRTQ1OrwzuCiiigYUnrS1n6pdSxiO0tT/p10SkOVyE45kI9FHJ9eB1NLyQi94Rj86bVL7+Cafyo29VjAU/8Aj++ukFVdN0+LS9PgtIciKFAg3HJOO5Pcn1q1X1+GpujSUHueTUlzychaKKK6jMKKKKACiiigAooooAKKKKACiiigAooooAKKKKACiiigAooooAKKKKACiiigBGooaigBaKKKACiiigAooooAKKKKACiiigAqjq2lwavatb3CkqSCrKcMjDoynsR61epKmUVJWkrjTa1RxUt1daG+zVRugz8moIv7th6yAD92f/HT69q0I5FlRXRg6NyGU5BHtXRsobryPpWHP4P055GkgSSwkY5LWcjRAn1Kg7T+INeBVy2af7p3XmdscQvtEW6kLBc84pf+ERl6DW9RC+mID+pizUkfgzT2IN0Z9QP927lLp/3x90/lXOsDiHpa3zNPbwMldQm1SQwaQi3UmcNctnyI/X5sfMw/ur+JHWuj0XR4tKhYBmluJDumnf70jep9uwHYAVfhhWGNUjUIi8BVGAB6U6vWw+DjR96TvI5KlVz06CgUUtFemYBRRRQAUUUUAFFFFABRRRQAUnelpKAMfXNE/tJkuLeQW1/EMRzYyCO6MO6n9DzWHHqht5ltdRj+wXh4CucxyH/pm54b6fe9QK7OobqzhvIXhnijnhfho5FDKfqDXlYnAxrPng7P8zop1nDR7GHuo4pz+DLRf+PS4u7Af3YJyVHsFfco/AUz/hEZej63qLp/d/cr+qxg/rXlPA4hacqZ1KtAjuLiO0haWeRIIl+9JIwVR9SaqW6XniBgLYSWennO+6cFJJB6Rg8gdfmPtjOcjZs/Cum2kyzmBrmdeVmunaZlP+zuJ2/hitleldVHLpXTrPTsjKeI0tEgsrOGwtY7e3jWGGMbURRwBVij3or3opRVlscQtFFFUAUUUUAFFFFABRRRQAUUUUAFNanUnegBkiiRWUjKkYIrjdJVtPebSZs77Q4iLfxwn7h/AfKfdTXa1j69on9peVPA4hv7fJhlIyCD1Rh3U4Gcc8AjkV5eOw7rRUofEvxOijU5HZ7Mqbvm9aWqNjqYnle2nja0vY+Xt5OuP7ykcMvuPx5q9XzfoeigpKWkoGFUdWuJY4UgtsNe3LeTAp7MR94+yjLH2HuKfqGpRaeqBg0s0hxHbxDdJIfRR/M9B3xV/QdGkinbUL7a1867FRTlYI852D1JIBJ7kDsK3o0XiZqEduplUqciuaum2Mem2FvaQ/6qGMRrnrgDHPvVqk9KWvroxUUkjy99RaKKKsQUUUUAFFFFABRRRQAUUUUAFFFFABRRRQAUUUUAFFFFABRRRQAUUUUAFFFFABRRRQAVVvrOHUIJbe4jEsUgwyN0I/z6VapMcmpklJWYHGXCXnh4kXIkvNOH3LtAWkjHpKo5IH94fjjqblvcRXUKywSJNEwyrxsCpHqCK6XGeKxrzwnpt1M04hNtcNy0tq7RMx9W2kbvxzXg1stle9F/JnbDEaWkV8/hSbh0HWj/AIRGT+DW9SRfTEDfq0RNPj8GWbcXc93fjus85Cn2KrhSPYiuVYHEPSxr7aBmS6sZpmttOi+33g4Kof3cZ9Xfov06nsK3NF0Q6fvuLhxcX8oxJMRgAdlUdlH88k1o2trFZwpDbwpBEvCxxqFUfQCpvxr1cNgY0Xzz1f4HLUrOWi2Bc8UtHFFeoc4tFFFMAooooAKKKKACiiigAooooAKKKKACiiigAooooAKKKKACiiigAooooAKKKKAEaihqKAFooooAKKKKACiiigAooooAKKKKACiiigAooooAKKKKACiiigAooooAKKKKACiiigAooooAKKKKACiiigAooooAKKKKACiiigAooooAKKKKACiiigAooooAKKKKACiiigAooooAKTvS0lAFDVNHtNXjVLqESFDuRwSrofVWByD9Kxm8N6laHFpqS3EQ6R30W5vpvUj8yCa6ik2/jXHVwlGs7yWprGpOGzOU+w+IBx9j04/7X2yQfp5X9afHoGr3R/0m+hs07raRbn/77fj/AMcrqP0o5rmWXUU7u7+Zo68zM0vw/Z6OzvDGWnkGHuJSXkf2LHnHt0Fai8LRRXowhGmuWCsjnbctWLRRRWggooooAKKKKACiiigAooooAKKKKACiiigAooooAKKKKACiiigAooooAKKKKACiiigAooooAKKKKACiiigAooooAKKKKACiiigAooooAKKKKACiiigAooooAKKKKACiiigAooooAKKKKACiiigAooooAKKKKACiiigBGooaigBaKKKACiiigAooooAKKKKACiiigAooooAKKKKACiiigAooooAKKKKACiiigAooooAKKKKACiiigAooooAKKKKACiiigAooooAKKKKACiiigAooooAKKKKACiiigAooooAKKKKACiiigAooooAKKKKACiiigAooooAKKKKACiiigAooooAKKKKACiiigAooooAKKKKACiiigAooooAKKKKACiiigAooooAKKKKACiiigAooooAKKKKACiiigAooooAKKKKACiiigAooooAKKKKACiiigAooooAKKKKACiiigAooooAKKKKACiiigAooooARqKGooAWiiigAooooAKKKKACiiigAooooAKKKKACiiigAooooAKKKKACiiigAooooAKKKKACiiigAooooAKKKKACiiigAooooAKKKKACiiigAooooAKKKKACiiigAooooAKKKKACiiigAooooAKKKKACiiigAooooAKKKKACiiigAooooAKKKKACiiigAooooAKKKKACiiigAooooAKKKKACiiigAooooAKKKKACiiigAooooAKKKKACiiigAooooAKKKKACiiigAooooAKKKKACiiigAooooAKKKKACiiigAooooAKKKKACiiigAooooAKKKKAEaihqKAPKv+GlvCP8A0B/iB/4bjxD/APINH/DS3hH/AKA/xA/8Nx4h/wDkGiigA/4aW8I/9Af4gf8AhuPEP/yDR/w0t4R/6A/xA/8ADceIf/kGiigA/wCGlvCP/QH+IH/huPEP/wAg0f8ADS3hH/oD/ED/AMNx4h/+QaKKAD/hpbwj/wBAf4gf+G48Q/8AyDR/w0t4R/6A/wAQP/DceIf/AJBoooAP+GlvCP8A0B/iB/4bjxD/APINH/DS3hH/AKA/xA/8Nx4h/wDkGiigA/4aW8I/9Af4gf8AhuPEP/yDR/w0t4R/6A/xA/8ADceIf/kGiigA/wCGlvCP/QH+IH/huPEP/wAg0f8ADS3hH/oD/ED/AMNx4h/+QaKKAD/hpbwj/wBAf4gf+G48Q/8AyDR/w0t4R/6A/wAQP/DceIf/AJBoooAP+GlvCP8A0B/iB/4bjxD/APINH/DS3hH/AKA/xA/8Nx4h/wDkGiigA/4aW8I/9Af4gf8AhuPEP/yDR/w0t4R/6A/xA/8ADceIf/kGiigA/wCGlvCP/QH+IH/huPEP/wAg0f8ADS3hH/oD/ED/AMNx4h/+QaKKAD/hpbwj/wBAf4gf+G48Q/8AyDR/w0t4R/6A/wAQP/DceIf/AJBoooAP+GlvCP8A0B/iB/4bjxD/APINH/DS3hH/AKA/xA/8Nx4h/wDkGiigA/4aW8I/9Af4gf8AhuPEP/yDR/w0t4R/6A/xA/8ADceIf/kGiigA/wCGlvCP/QH+IH/huPEP/wAg0f8ADS3hH/oD/ED/AMNx4h/+QaKKAD/hpbwj/wBAf4gf+G48Q/8AyDR/w0t4R/6A/wAQP/DceIf/AJBoooAP+GlvCP8A0B/iB/4bjxD/APINH/DS3hH/AKA/xA/8Nx4h/wDkGiigA/4aW8I/9Af4gf8AhuPEP/yDR/w0t4R/6A/xA/8ADceIf/kGiigA/wCGlvCP/QH+IH/huPEP/wAg0f8ADS3hH/oD/ED/AMNx4h/+QaKKAD/hpbwj/wBAf4gf+G48Q/8AyDR/w0t4R/6A/wAQP/DceIf/AJBoooAP+GlvCP8A0B/iB/4bjxD/APINH/DS3hH/AKA/xA/8Nx4h/wDkGiigA/4aW8I/9Af4gf8AhuPEP/yDR/w0t4R/6A/xA/8ADceIf/kGiigA/wCGlvCP/QH+IH/huPEP/wAg0f8ADS3hH/oD/ED/AMNx4h/+QaKKAD/hpbwj/wBAf4gf+G48Q/8AyDR/w0t4R/6A/wAQP/DceIf/AJBoooAP+GlvCP8A0B/iB/4bjxD/APINH/DS3hH/AKA/xA/8Nx4h/wDkGiigA/4aW8I/9Af4gf8AhuPEP/yDR/w0t4R/6A/xA/8ADceIf/kGiigA/wCGlvCP/QH+IH/huPEP/wAg0f8ADS3hH/oD/ED/AMNx4h/+QaKKAD/hpbwj/wBAf4gf+G48Q/8AyDR/w0t4R/6A/wAQP/DceIf/AJBoooAP+GlvCP8A0B/iB/4bjxD/APINH/DS3hH/AKA/xA/8Nx4h/wDkGiigA/4aW8I/9Af4gf8AhuPEP/yDR/w0t4R/6A/xA/8ADceIf/kGiigA/wCGlvCP/QH+IH/huPEP/wAg0f8ADS3hH/oD/ED/AMNx4h/+QaKKAD/hpbwj/wBAf4gf+G48Q/8AyDR/w0t4R/6A/wAQP/DceIf/AJBoooAP+GlvCP8A0B/iB/4bjxD/APINH/DS3hH/AKA/xA/8Nx4h/wDkGiigA/4aW8I/9Af4gf8AhuPEP/yDR/w0t4R/6A/xA/8ADceIf/kGiigA/wCGlvCP/QH+IH/huPEP/wAg0f8ADS3hH/oD/ED/AMNx4h/+QaKKAD/hpbwj/wBAf4gf+G48Q/8AyDR/w0t4R/6A/wAQP/DceIf/AJBoooAP+GlvCP8A0B/iB/4bjxD/APINH/DS3hH/AKA/xA/8Nx4h/wDkGiigA/4aW8I/9Af4gf8AhuPEP/yDR/w0t4R/6A/xA/8ADceIf/kGiigA/wCGlvCP/QH+IH/huPEP/wAg0f8ADS3hH/oD/ED/AMNx4h/+QaKKAD/hpbwj/wBAf4gf+G48Q/8AyDR/w0t4R/6A/wAQP/DceIf/AJBoooAP+GlvCP8A0B/iB/4bjxD/APINH/DS3hH/AKA/xA/8Nx4h/wDkGiigA/4aW8I/9Af4gf8AhuPEP/yDR/w0t4R/6A/xA/8ADceIf/kGiigA/wCGlvCP/QH+IH/huPEP/wAg0f8ADS3hH/oD/ED/AMNx4h/+QaKKAD/hpbwj/wBAf4gf+G48Q/8AyDR/w0t4R/6A/wAQP/DceIf/AJBoooAP+GlvCP8A0B/iB/4bjxD/APINH/DS3hH/AKA/xA/8Nx4h/wDkGiigA/4aW8I/9Af4gf8AhuPEP/yDR/w0t4R/6A/xA/8ADceIf/kGiigA/wCGlvCP/QH+IH/huPEP/wAg0f8ADS3hH/oD/ED/AMNx4h/+QaKKAD/hpbwj/wBAf4gf+G48Q/8AyDR/w0t4R/6A/wAQP/DceIf/AJBoooAP+GlvCP8A0B/iB/4bjxD/APINH/DS3hH/AKA/xA/8Nx4h/wDkGiigA/4aW8I/9Af4gf8AhuPEP/yDR/w0t4R/6A/xA/8ADceIf/kGiigA/wCGlvCP/QH+IH/huPEP/wAg0f8ADS3hH/oD/ED/AMNx4h/+QaKKAD/hpbwj/wBAf4gf+G48Q/8AyDR/w0t4R/6A/wAQP/DceIf/AJBoooAP+GlvCP8A0B/iB/4bjxD/APINH/DS3hH/AKA/xA/8Nx4h/wDkGiigA/4aW8I/9Af4gf8AhuPEP/yDR/w0t4R/6A/xA/8ADceIf/kGiigA/wCGlvCP/QH+IH/huPEP/wAg0f8ADS3hH/oD/ED/AMNx4h/+QaKKAD/hpbwj/wBAf4gf+G48Q/8AyDR/w0t4R/6A/wAQP/DceIf/AJBoooAP+GlvCP8A0B/iB/4bjxD/APINH/DS3hH/AKA/xA/8Nx4h/wDkGiigA/4aW8I/9Af4gf8AhuPEP/yDR/w0t4R/6A/xA/8ADceIf/kGiigA/wCGlvCP/QH+IH/huPEP/wAg0f8ADS3hH/oD/ED/AMNx4h/+QaKKAD/hpbwj/wBAf4gf+G48Q/8AyDR/w0t4R/6A/wAQP/DceIf/AJBoooAP+GlvCI5OkfEAf9058Q//ACDRRRQB/9k=;imageBorder=default;rotation=-90;" vertex="1" parent="1">
          <mxGeometry x="80" y="290" width="212.68" height="139.15" as="geometry" />
        </mxCell>
        <mxCell id="SSA5BnTpUQUNPvU0TnQh-3" value="" style="endArrow=none;dashed=1;html=1;rounded=0;entryX=0;entryY=0.5;entryDx=0;entryDy=0;exitX=1;exitY=1;exitDx=0;exitDy=0;" edge="1" parent="1" source="SSA5BnTpUQUNPvU0TnQh-1" target="lAROizHbzUq1qXPvCfQx-13">
          <mxGeometry width="50" height="50" relative="1" as="geometry">
            <mxPoint x="220" y="450" as="sourcePoint" />
            <mxPoint x="270" y="400" as="targetPoint" />
          </mxGeometry>
        </mxCell>
        <mxCell id="SSA5BnTpUQUNPvU0TnQh-4" value="" style="endArrow=none;dashed=1;html=1;rounded=0;entryX=0;entryY=0.5;entryDx=0;entryDy=0;exitX=0;exitY=1;exitDx=0;exitDy=0;" edge="1" parent="1" source="SSA5BnTpUQUNPvU0TnQh-1" target="lAROizHbzUq1qXPvCfQx-13">
          <mxGeometry width="50" height="50" relative="1" as="geometry">
            <mxPoint x="220" y="450" as="sourcePoint" />
            <mxPoint x="270" y="400" as="targetPoint" />
          </mxGeometry>
        </mxCell>
      </root>
    </mxGraphModel>
  </diagram>
</mxfile>
